<svg xmlns="http://www.w3.org/2000/svg" width="293.128" height="285.385" viewBox="0 0 293.128 285.385"><defs><style>.a{fill:#b3b3b3;}.b{fill:#0651b9;}.c{fill:#fff;}.d{fill:#ccc;}.e{fill:#ff5959;}.f{fill:#f40000;}</style></defs><g transform="matrix(0.966, -0.259, 0.259, 0.966, -282.768, -591.271)"><g transform="translate(101.521 713.653)"><rect class="a" width="218.124" height="221.131"/></g><g transform="translate(101.521 713.653)"><rect class="b" width="218.184" height="72.274"/></g><g transform="translate(101.521 759.765)"><path class="c" d="M319.7,766.837H101.521V938.909H284.247L319.7,903.451Z" transform="translate(-101.521 -766.837)"/></g><g transform="translate(111.082 694.599)"><g transform="translate(0 27.289)"><circle class="c" cx="5.413" cy="5.413" r="5.413"/></g><g transform="translate(2.074)"><g transform="translate(0 0.323)"><g transform="translate(0.451 0.451)"><path class="a" d="M117.807,730.266h0a2.888,2.888,0,0,1-2.888-2.888V698.345a2.888,2.888,0,0,1,2.888-2.888h0a2.888,2.888,0,0,1,2.888,2.888v29.033A2.888,2.888,0,0,1,117.807,730.266Z" transform="translate(-114.919 -695.457)"/></g><path class="a" d="M117.758,730.668a3.342,3.342,0,0,1-3.339-3.339V698.3a3.339,3.339,0,1,1,6.677,0v29.033A3.342,3.342,0,0,1,117.758,730.668Zm0-34.809a2.44,2.44,0,0,0-2.437,2.437v29.033a2.437,2.437,0,1,0,4.873,0V698.3A2.44,2.44,0,0,0,117.758,695.859Z" transform="translate(-114.419 -694.957)"/></g><g transform="translate(0.039)"><path class="d" d="M117.35,729.409h0a2.887,2.887,0,0,1-2.888-2.888V697.487a2.887,2.887,0,0,1,2.888-2.888h0a2.887,2.887,0,0,1,2.888,2.888v29.034A2.887,2.887,0,0,1,117.35,729.409Z" transform="translate(-114.462 -694.599)"/></g></g><g transform="translate(13.021)"><g transform="translate(0 27.289)"><circle class="c" cx="5.413" cy="5.413" r="5.413"/></g><g transform="translate(2.075)"><g transform="translate(0 0.323)"><g transform="translate(0.45 0.451)"><path class="a" d="M132.241,730.266h0a2.888,2.888,0,0,1-2.889-2.888V698.345a2.888,2.888,0,0,1,2.889-2.888h0a2.888,2.888,0,0,1,2.888,2.888v29.033A2.888,2.888,0,0,1,132.241,730.266Z" transform="translate(-129.352 -695.457)"/></g><path class="a" d="M132.192,730.668a3.342,3.342,0,0,1-3.339-3.339V698.3a3.339,3.339,0,1,1,6.677,0v29.033A3.342,3.342,0,0,1,132.192,730.668Zm0-34.809a2.439,2.439,0,0,0-2.437,2.437v29.033a2.437,2.437,0,1,0,4.873,0V698.3A2.44,2.44,0,0,0,132.192,695.859Z" transform="translate(-128.853 -694.957)"/></g><g transform="translate(0.038)"><path class="d" d="M131.783,729.409h0a2.887,2.887,0,0,1-2.888-2.888V697.487a2.887,2.887,0,0,1,2.888-2.888h0a2.888,2.888,0,0,1,2.889,2.888v29.034A2.888,2.888,0,0,1,131.783,729.409Z" transform="translate(-128.895 -694.599)"/></g></g></g></g><g transform="translate(169.091 694.599)"><g transform="translate(0)"><g transform="translate(0 27.289)"><circle class="c" cx="5.413" cy="5.413" r="5.413"/></g><g transform="translate(2.074)"><g transform="translate(0 0.323)"><g transform="translate(0.451 0.451)"><path class="a" d="M182.111,730.266h0a2.888,2.888,0,0,1-2.888-2.888V698.345a2.888,2.888,0,0,1,2.888-2.888h0A2.888,2.888,0,0,1,185,698.345v29.033A2.888,2.888,0,0,1,182.111,730.266Z" transform="translate(-179.223 -695.457)"/></g><path class="a" d="M182.062,730.668a3.342,3.342,0,0,1-3.339-3.339V698.3a3.339,3.339,0,0,1,6.678,0v29.033A3.343,3.343,0,0,1,182.062,730.668Zm0-34.809a2.44,2.44,0,0,0-2.437,2.437v29.033a2.437,2.437,0,0,0,4.874,0V698.3A2.44,2.44,0,0,0,182.062,695.859Z" transform="translate(-178.723 -694.957)"/></g><g transform="translate(0.039)"><path class="d" d="M181.654,729.409h0a2.887,2.887,0,0,1-2.888-2.888V697.487a2.887,2.887,0,0,1,2.888-2.888h0a2.887,2.887,0,0,1,2.888,2.888v29.034A2.887,2.887,0,0,1,181.654,729.409Z" transform="translate(-178.766 -694.599)"/></g></g></g><g transform="translate(13.02)"><g transform="translate(0 27.289)"><path class="c" d="M201.683,730.262a5.413,5.413,0,1,1-5.413-5.413A5.413,5.413,0,0,1,201.683,730.262Z" transform="translate(-190.857 -724.849)"/></g><g transform="translate(2.074)"><g transform="translate(0 0.323)"><g transform="translate(0.451 0.451)"><path class="a" d="M196.545,730.266h0a2.888,2.888,0,0,1-2.889-2.888V698.345a2.888,2.888,0,0,1,2.889-2.888h0a2.888,2.888,0,0,1,2.888,2.888v29.033A2.888,2.888,0,0,1,196.545,730.266Z" transform="translate(-193.656 -695.457)"/></g><path class="a" d="M196.495,730.668a3.342,3.342,0,0,1-3.339-3.339V698.3a3.339,3.339,0,0,1,6.678,0v29.033A3.343,3.343,0,0,1,196.495,730.668Zm0-34.809a2.44,2.44,0,0,0-2.437,2.437v29.033a2.437,2.437,0,0,0,4.874,0V698.3A2.44,2.44,0,0,0,196.495,695.859Z" transform="translate(-193.156 -694.957)"/></g><g transform="translate(0.039)"><path class="d" d="M196.087,729.409h0a2.887,2.887,0,0,1-2.888-2.888V697.487a2.887,2.887,0,0,1,2.888-2.888h0a2.888,2.888,0,0,1,2.889,2.888v29.034A2.888,2.888,0,0,1,196.087,729.409Z" transform="translate(-193.199 -694.599)"/></g></g></g></g><g transform="translate(229.033 694.599)"><g transform="translate(0)"><g transform="translate(0 27.289)"><circle class="c" cx="5.413" cy="5.413" r="5.413"/></g><g transform="translate(2.074)"><g transform="translate(0 0.323)"><g transform="translate(0.451 0.451)"><path class="a" d="M248.558,730.266h0a2.888,2.888,0,0,1-2.889-2.888V698.345a2.888,2.888,0,0,1,2.889-2.888h0a2.888,2.888,0,0,1,2.888,2.888v29.033A2.888,2.888,0,0,1,248.558,730.266Z" transform="translate(-245.669 -695.457)"/></g><path class="a" d="M248.509,730.668a3.343,3.343,0,0,1-3.34-3.339V698.3a3.339,3.339,0,0,1,6.678,0v29.033A3.342,3.342,0,0,1,248.509,730.668Zm0-34.809a2.44,2.44,0,0,0-2.437,2.437v29.033a2.437,2.437,0,0,0,4.874,0V698.3A2.44,2.44,0,0,0,248.509,695.859Z" transform="translate(-245.169 -694.957)"/></g><g transform="translate(0.039)"><path class="d" d="M248.1,729.409h0a2.887,2.887,0,0,1-2.888-2.888V697.487A2.887,2.887,0,0,1,248.1,694.6h0a2.888,2.888,0,0,1,2.889,2.888v29.034A2.888,2.888,0,0,1,248.1,729.409Z" transform="translate(-245.212 -694.599)"/></g></g></g><g transform="translate(13.021)"><g transform="translate(0 27.289)"><circle class="c" cx="5.413" cy="5.413" r="5.413"/></g><g transform="translate(2.074)"><g transform="translate(0 0.323)"><g transform="translate(0.451 0.451)"><path class="a" d="M262.991,730.266h0a2.888,2.888,0,0,1-2.888-2.888V698.345a2.888,2.888,0,0,1,2.888-2.888h0a2.888,2.888,0,0,1,2.889,2.888v29.033A2.888,2.888,0,0,1,262.991,730.266Z" transform="translate(-260.103 -695.457)"/></g><path class="a" d="M262.942,730.668a3.342,3.342,0,0,1-3.339-3.339V698.3a3.339,3.339,0,1,1,6.677,0v29.033A3.342,3.342,0,0,1,262.942,730.668Zm0-34.809a2.44,2.44,0,0,0-2.437,2.437v29.033a2.437,2.437,0,1,0,4.873,0V698.3A2.439,2.439,0,0,0,262.942,695.859Z" transform="translate(-259.603 -694.957)"/></g><g transform="translate(0.039)"><path class="d" d="M262.534,729.409h0a2.887,2.887,0,0,1-2.888-2.888V697.487a2.887,2.887,0,0,1,2.888-2.888h0a2.887,2.887,0,0,1,2.888,2.888v29.034A2.887,2.887,0,0,1,262.534,729.409Z" transform="translate(-259.646 -694.599)"/></g></g></g></g><g transform="translate(286.873 694.599)"><g transform="translate(0 27.289)"><path class="c" d="M317.812,730.262a5.413,5.413,0,1,1-5.414-5.413A5.414,5.414,0,0,1,317.812,730.262Z" transform="translate(-306.986 -724.849)"/></g><g transform="translate(2.074)"><g transform="translate(0 0.323)"><g transform="translate(0.451 0.451)"><path class="a" d="M312.673,730.266h0a2.888,2.888,0,0,1-2.888-2.888V698.345a2.888,2.888,0,0,1,2.888-2.888h0a2.888,2.888,0,0,1,2.889,2.888v29.033A2.888,2.888,0,0,1,312.673,730.266Z" transform="translate(-309.785 -695.457)"/></g><path class="a" d="M312.624,730.668a3.342,3.342,0,0,1-3.339-3.339V698.3a3.339,3.339,0,0,1,6.678,0v29.033A3.343,3.343,0,0,1,312.624,730.668Zm0-34.809a2.44,2.44,0,0,0-2.437,2.437v29.033a2.437,2.437,0,0,0,4.874,0V698.3A2.44,2.44,0,0,0,312.624,695.859Z" transform="translate(-309.285 -694.957)"/></g><g transform="translate(0.039)"><path class="d" d="M312.216,729.409h0a2.887,2.887,0,0,1-2.888-2.888V697.487a2.887,2.887,0,0,1,2.888-2.888h0a2.887,2.887,0,0,1,2.888,2.888v29.034A2.887,2.887,0,0,1,312.216,729.409Z" transform="translate(-309.328 -694.599)"/></g></g><g transform="translate(13.021)"><g transform="translate(0 27.289)"><circle class="c" cx="5.413" cy="5.413" r="5.413"/></g><g transform="translate(2.074)"><g transform="translate(0 0.323)"><g transform="translate(0.451 0.451)"><path class="a" d="M327.107,730.266h0a2.888,2.888,0,0,1-2.888-2.888V698.345a2.888,2.888,0,0,1,2.888-2.888h0a2.888,2.888,0,0,1,2.888,2.888v29.033A2.888,2.888,0,0,1,327.107,730.266Z" transform="translate(-324.219 -695.457)"/></g><path class="a" d="M327.058,730.668a3.342,3.342,0,0,1-3.339-3.339V698.3a3.339,3.339,0,1,1,6.677,0v29.033A3.342,3.342,0,0,1,327.058,730.668Zm0-34.809a2.44,2.44,0,0,0-2.437,2.437v29.033a2.437,2.437,0,1,0,4.873,0V698.3A2.44,2.44,0,0,0,327.058,695.859Z" transform="translate(-323.719 -694.957)"/></g><g transform="translate(0.038)"><path class="d" d="M326.65,729.409h0a2.888,2.888,0,0,1-2.889-2.888V697.487a2.888,2.888,0,0,1,2.889-2.888h0a2.888,2.888,0,0,1,2.888,2.888v29.034A2.887,2.887,0,0,1,326.65,729.409Z" transform="translate(-323.761 -694.599)"/></g></g></g></g><g transform="translate(284.247 896.379)"><path class="e" d="M304.075,953.733l35.458-35.458H312.118a8.043,8.043,0,0,0-8.043,8.043Z" transform="translate(-304.075 -918.275)"/></g><g transform="translate(124.726 787.203)"><g transform="translate(0 95.624)"><path class="d" d="M128.973,903.252H152.03a1.773,1.773,0,0,1,1.729,1.8v24.057a1.773,1.773,0,0,1-1.729,1.8H128.973a1.773,1.773,0,0,1-1.729-1.8V905.056A1.773,1.773,0,0,1,128.973,903.252Z" transform="translate(-127.244 -903.252)"/><g transform="translate(48.42)"><path class="d" d="M182.647,903.252H205.7a1.773,1.773,0,0,1,1.729,1.8v24.057a1.773,1.773,0,0,1-1.729,1.8H182.647a1.773,1.773,0,0,1-1.729-1.8V905.056A1.773,1.773,0,0,1,182.647,903.252Z" transform="translate(-180.918 -903.252)"/></g><g transform="translate(96.839)"><path class="d" d="M236.32,903.252h23.057a1.773,1.773,0,0,1,1.729,1.8v24.057a1.773,1.773,0,0,1-1.729,1.8H236.32a1.773,1.773,0,0,1-1.729-1.8V905.056A1.773,1.773,0,0,1,236.32,903.252Z" transform="translate(-234.591 -903.252)"/></g><g transform="translate(145.258)"><path class="d" d="M289.994,903.252h23.057a1.773,1.773,0,0,1,1.729,1.8v24.057a1.773,1.773,0,0,1-1.729,1.8H289.994a1.773,1.773,0,0,1-1.729-1.8V905.056A1.773,1.773,0,0,1,289.994,903.252Z" transform="translate(-288.265 -903.252)"/></g></g><g transform="translate(0 47.812)"><path class="d" d="M128.973,850.252H152.03a1.773,1.773,0,0,1,1.729,1.8v24.057a1.773,1.773,0,0,1-1.729,1.8H128.973a1.773,1.773,0,0,1-1.729-1.8V852.056A1.773,1.773,0,0,1,128.973,850.252Z" transform="translate(-127.244 -850.252)"/><g transform="translate(48.42)"><path class="d" d="M182.647,850.252H205.7a1.773,1.773,0,0,1,1.729,1.8v24.057a1.773,1.773,0,0,1-1.729,1.8H182.647a1.773,1.773,0,0,1-1.729-1.8V852.056A1.773,1.773,0,0,1,182.647,850.252Z" transform="translate(-180.918 -850.252)"/></g><g transform="translate(96.839)"><path class="d" d="M236.32,850.252h23.057a1.773,1.773,0,0,1,1.729,1.8v24.057a1.773,1.773,0,0,1-1.729,1.8H236.32a1.773,1.773,0,0,1-1.729-1.8V852.056A1.773,1.773,0,0,1,236.32,850.252Z" transform="translate(-234.591 -850.252)"/></g><g transform="translate(145.258)"><path class="d" d="M289.994,850.252h23.057a1.773,1.773,0,0,1,1.729,1.8v24.057a1.773,1.773,0,0,1-1.729,1.8H289.994a1.773,1.773,0,0,1-1.729-1.8V852.056A1.773,1.773,0,0,1,289.994,850.252Z" transform="translate(-288.265 -850.252)"/></g></g><g transform="translate(48.42)"><path class="f" d="M182.647,797.252H205.7a1.773,1.773,0,0,1,1.729,1.8v24.057a1.773,1.773,0,0,1-1.729,1.8H182.647a1.773,1.773,0,0,1-1.729-1.8V799.056A1.773,1.773,0,0,1,182.647,797.252Z" transform="translate(-180.918 -797.252)"/><g transform="translate(48.419)"><path class="d" d="M236.32,797.252h23.057a1.773,1.773,0,0,1,1.729,1.8v24.057a1.773,1.773,0,0,1-1.729,1.8H236.32a1.773,1.773,0,0,1-1.729-1.8V799.056A1.773,1.773,0,0,1,236.32,797.252Z" transform="translate(-234.591 -797.252)"/></g><g transform="translate(96.839)"><path class="d" d="M289.994,797.252h23.057a1.773,1.773,0,0,1,1.729,1.8v24.057a1.773,1.773,0,0,1-1.729,1.8H289.994a1.773,1.773,0,0,1-1.729-1.8V799.056A1.773,1.773,0,0,1,289.994,797.252Z" transform="translate(-288.265 -797.252)"/></g></g></g><g transform="translate(252.508 864.972)"><circle class="f" cx="44.14" cy="44.14" r="44.14"/></g><g transform="translate(263.026 875.49)"><circle class="c" cx="33.622" cy="33.622" r="33.622" transform="translate(0)"/></g><g transform="translate(267.654 880.571)"><path class="f" d="M316.116,934.732H289.741a4.059,4.059,0,1,1,0-8.119h22.315v-21.8a4.059,4.059,0,1,1,8.119,0v25.861A4.059,4.059,0,0,1,316.116,934.732Z" transform="translate(-285.682 -900.752)"/></g></g></svg>