<svg xmlns="http://www.w3.org/2000/svg" width="339.842" height="475.126" viewBox="0 0 339.842 475.126">
  <g id="Gruppe_2202" data-name="Gruppe 2202" transform="translate(-335.807 267.545)">
    <path id="Pfad_1096" data-name="Pfad 1096" d="M706.837,804.909a10.312,10.312,0,0,0,6.507,4.926,11.221,11.221,0,0,1,6.747,4.146,2.632,2.632,0,0,1-2.115,4.192H695.218a3.272,3.272,0,0,1-3.257-3.6c.169-1.687.347-3.65.424-5.155.169-3.287,3.46-5.932,3.46-5.932Z" transform="translate(-329.284 -610.723)" fill="#2c2c2c"/>
    <path id="Pfad_1031" data-name="Pfad 1031" d="M832.035,108.613s17.487,8.274,21.461,7.23,19.07-3.709,21.189-2.769c0,0,2.4,3.834.59,6.357s-16.5,9.346-21.806,9.592-25.444-3.4-29.718-6.739Z" transform="translate(-385.58 -313.935)" fill="#ffccbe"/>
    <path id="Pfad_1032" data-name="Pfad 1032" d="M911.107,115.675s6.744-2.8,8.951.328,3.46,6.3,3.186,7.9-4.828,2.308-6.649,1.063a44.311,44.311,0,0,0-6.33-2.986Z" transform="translate(-422.531 -316.459)" fill="#e8945b"/>
    <path id="Pfad_1033" data-name="Pfad 1033" d="M965.164,797.854a28.472,28.472,0,0,0-3.8,13.011,2.8,2.8,0,0,0,2.807,2.822h23.208a3.451,3.451,0,0,0,3.351-4.291c-1.081-4.25-3.394-10.671-8.028-14.569-7.395-6.218-17.534,3.028-17.534,3.028" transform="translate(-444.355 -606.107)" fill="#2c2c2c"/>
    <path id="Pfad_1034" data-name="Pfad 1034" d="M864.29,785.794s-1.334,21.518-5.5,21.826c-.554.041-21.115.041-21.115.041H811.157s.447-6.476,8.119-7.813,20.513-6.729,25.161-16.869c4.889-10.668,19.853,2.815,19.853,2.815" transform="translate(-380.201 -600.211)" fill="#2c2c2c"/>
    <path id="Pfad_1035" data-name="Pfad 1035" d="M884.809,474.366c-.928,11.954-1.048,21.39.178,25.864,5.473,20.013-9.865,110.377-9.865,110.377-11.308,5.409-27.366-.057-27.366-.057.976-12.517-4.976-124.573-10.513-192.934-2.318-28.7-4.058-48.78-4.058-48.78l67.736-7.886s-12.905,71.9-16.113,113.417" transform="translate(-389.61 -421.711)" fill="#0466a8"/>
    <path id="Pfad_1036" data-name="Pfad 1036" d="M900.923,360.949s-12.905,71.9-16.113,113.417l-47.566-56.751c-2.318-28.7-4.057-48.781-4.057-48.781Z" transform="translate(-389.61 -421.711)" fill="#0079cc"/>
    <path id="Pfad_1037" data-name="Pfad 1037" d="M893.423,380.891S927.711,580.543,933.61,619.2a43.306,43.306,0,0,0,25.954-1.97s1.7-92.775-2.792-120.724,2.391-114.343-4.843-122.38-58.506,6.761-58.506,6.761" transform="translate(-415.338 -426.319)" fill="#0079cc"/>
    <path id="Pfad_1038" data-name="Pfad 1038" d="M898.268,89.5s-2.631,17.743-1.479,23.043,18.78,8.18,26.154,3.8,5.156-6.005,5.156-6.005-1.125-20.313-2.16-21.761-27.67.922-27.67.922" transform="translate(-416.651 -305.176)" fill="#f4b3a4"/>
    <path id="Pfad_1039" data-name="Pfad 1039" d="M890.894,212.635c2.332-22.29,1.734-39.065-.465-51.684-6.438-37.035-26.614-38.269-26.614-38.031,0,4.985-10.721,9.584-19.369,9.018-7.289-.477-12.019-6.018-12.019-9.018,0-.025-.136-.022-.381,0a127.916,127.916,0,0,0-18.708,1.591c-5.929,1.023-11.6,2.706-14.268,5.482-1.376,1.431-6.281,5.441-12.582,10.891-16.048,13.878-41.142,37.108-40.033,50.951,0,0,31.018,22.778,50.675,8.5-1.07,37.067-7.8,76.329-6.149,76.3,0,0,10.957,9.488,44.246,9.488,18.2,0,31.364-1.559,40.5-3.363,12.443-2.455,17.4-5.355,17.4-5.355,2.773-.041-3.031-57.079-2.225-64.774" transform="translate(-352.551 -320.037)" fill="#0651b9"/>
    <path id="Pfad_1040" data-name="Pfad 1040" d="M950.219,299.275s-4.953,2.9-17.4,5.354c-17.2-7.618-51.338-27.307-52.672-60.369-1.769-43.979,51.923-70.167,51.923-70.167s7.2,4,15.457,8.724c2.2,12.62,2.8,29.394.464,51.684-.806,7.694,5,64.732,2.226,64.774" transform="translate(-409.651 -341.902)" fill="#023d90"/>
    <path id="Pfad_1041" data-name="Pfad 1041" d="M899.1,94.022s6.837,9.637,14.067,9.724,14.61-9.573,14.61-9.573Z" transform="translate(-417.763 -307.703)" fill="#e98c94"/>
    <path id="Pfad_1042" data-name="Pfad 1042" d="M894.984,64.539a46.324,46.324,0,0,0,9.583,4.906,11.837,11.837,0,0,0,8.195.174c3.99-1.375,10.03-3.526,11.56-4.448,3.621-2.195,3.387-6.637,3.573-12.814.222-7.311.959-13.052.143-17.266-.97-5.041-4.167-7.909-13.116-8.689-16.429-1.426-23.273,2.688-23.559,8.2-.074,1.479-.143,2.89-.191,4.225-.657,17.177.7,23.268,3.812,25.717" transform="translate(-414.307 -278.7)" fill="#f4b3a4"/>
    <path id="Pfad_1043" data-name="Pfad 1043" d="M887.919,25.472a6.9,6.9,0,0,1,7.746-2.411c5.056,1.555,5.574,5.876,14.215,5.185s10.715-4.781,12.271-2.736,2.455,14.126,2.455,14.126S941.979.021,906.765.021c0,0-36.288-2.192-18.846,38.076Z" transform="translate(-410.962 -267.545)" fill="#403b35"/>
    <path id="Pfad_1044" data-name="Pfad 1044" d="M779.77,109.953l.047.027c-.04.021-.047-.027-.047-.027" transform="translate(-366.795 -314.507)" fill="#ffb27d"/>
    <path id="Pfad_1045" data-name="Pfad 1045" d="M868.834,285.03a19.815,19.815,0,0,1-11.348,3.629s-6.875-7.576-12.668-14.9c-3.75-4.746-7.044-9.388-7.725-11.8-1.728-6.132-34.07-7.86-38.031-12.181s16.069-15.16,16.069-15.16,32.833,5.022,37.769,11.472c1.963,2.568,4.887,9.26,7.7,16.387,4.248,10.781,8.237,22.557,8.237,22.557" transform="translate(-374.813 -367.752)" fill="#edc0b3"/>
    <path id="Pfad_1047" data-name="Pfad 1047" d="M824.06,276.1a182.37,182.37,0,0,1-10.625,21.184c-.048.083-.076.128-.076.128h-.1c-1.047-.01-10.061-.207-10.943-3.826,0,0-.29-12.526.208-22.477a52.692,52.692,0,0,1,1.237-10.452s-48.891-.328-48.03-14.157,26.418-21.146,41.111-13.974c0,0,19.484,7.079,29.739,16.432,5.036,4.594,1.939,16.359-2.52,27.144" transform="translate(-356.523 -365.666)" fill="#ffccbe"/>
    <path id="Pfad_1048" data-name="Pfad 1048" d="M754.389,225.156s-6.509,9.567-4.983,18.494,20.1,13.7,33.1,14.265c0,0,37.172-8.519,31.409-23.338-1.307-3.36-59.521-9.421-59.521-9.421" transform="translate(-353.728 -363.712)" fill="#3a3a5b"/>
    <path id="Pfad_1049" data-name="Pfad 1049" d="M758.878,14.641s-5.9-12.084-20.165-4.695-.376,35.23-7.861,42.188,2.712,11.513,1.194,16.5,2.82,10.664,12.8,10,20.488-.129,25-8.859,3.484-27.941,1.742-30.641-12.705-24.492-12.705-24.492" transform="translate(-344.717 -270.771)" fill="#403b35"/>
    <path id="Pfad_1050" data-name="Pfad 1050" d="M804.1,112.912,779.851,98.279c.135-.053.625-.785,2.438-6.03a29.285,29.285,0,0,0,1.383-5.715c.02-.154.041-.3.054-.45a15.65,15.65,0,0,0,.067-3.526L789.1,84.48l9.824,3.559a12.165,12.165,0,0,0,.765,5.446,4.374,4.374,0,0,0,3.74,2.941Z" transform="translate(-366.83 -302.807)" fill="#ffccbe"/>
    <path id="Pfad_1051" data-name="Pfad 1051" d="M802.348,94.917a18.217,18.217,0,0,1-16.022-6.95c-.174-.228-.262-.356-.262-.356l.316-.094c.773-.229,2.867-.859,5.379-1.605l9.824,3.559a12.168,12.168,0,0,0,.765,5.446" transform="translate(-369.484 -304.239)" fill="#e98c94"/>
    <path id="Pfad_1052" data-name="Pfad 1052" d="M798.844,70.179s-21.1,2.317-21.527-11.947-3.551-20.791,11.045-22.062,18.042,3.986,18.9,8.812c2.687,15.076-2.479,24.557-8.422,25.2" transform="translate(-365.503 -282.912)" fill="#ffccbe"/>
    <path id="Pfad_1053" data-name="Pfad 1053" d="M782.531,33.885c-7.465-1.89-4.611,11.335-6.5,10.43-2.11-1.013-5.737-1-5.165,1.55s1.4,3.46,1.829,5.051,0,4.741-1.739,4.106-17.879-19.069-6.48-33.427,45.386-5.512,34.683,9.506c-1.882,2.641-11.317,4.13-16.631,2.784" transform="translate(-358.538 -273.659)" fill="#403b35"/>
    <path id="Pfad_1054" data-name="Pfad 1054" d="M806.919,178.965s-6.338,3.364-16.318,3.205c-6.357-.1-19.859-2.859-28.538-5.992-4.947-1.781-8.33-3.685-7.922-5.283.586-2.3,4.823-19.984,8.738-36.346,3.579-14.96,6.889-28.817,6.889-28.817s9.88,7.02,15.637,4.544S790.423,105,790.423,105s6.783-.832,8.623-.615c2.938.345,13.313,4.128,13.313,4.128s1.363,3.832-2.252,9.813c-3,4.954-5.909,5.914-5.909,5.914s8.479,26.73,2.721,54.726" transform="translate(-355.834 -312.113)" fill="#ecf1f9"/>
    <path id="Pfad_1055" data-name="Pfad 1055" d="M790.15,192.64s6.092-1.137,8.475.422,3.088,4,1.372,5c-5.377,3.126-10.828-.33-10.828-.33Z" transform="translate(-370.81 -349.653)" fill="#ffccbe"/>
    <path id="Pfad_1056" data-name="Pfad 1056" d="M762.061,196.169c-4.947-1.78-8.33-3.685-7.922-5.283.585-2.3,4.823-19.984,8.738-36.346,1.156-2.12,1.891-3.387,1.891-3.387s7.427,33.96-2.706,45.015" transform="translate(-355.834 -332.105)" fill="#ced1ec"/>
    <path id="Pfad_1057" data-name="Pfad 1057" d="M762.161,110.1s-18.765,3.972-26.166,33.145a8.849,8.849,0,0,0,2,8.089c3.4,3.772,10.906,9.286,28.35,11.317,1.905.222,2.161-4.611,2.161-4.611-.19.385-11.85-7.534-16.814-11.791a2.739,2.739,0,0,1-.212-3.374,79.5,79.5,0,0,0,5.437-9.254c1.38-3.314,10.492-22.017,5.247-23.52" transform="translate(-347.983 -314.568)" fill="#ffccbe"/>
    <path id="Pfad_1058" data-name="Pfad 1058" d="M766.514,106.764s-11.033.785-20.029,12.781c0,0,3.044,11.034,17.336,13.979,0,0,8.808-19.868,2.694-26.76" transform="translate(-352.579 -313.145)" fill="#ced1ec"/>
    <path id="Pfad_1059" data-name="Pfad 1059" d="M858.738,306.956a182.4,182.4,0,0,1-10.625,21.184c-.059.041-.117.083-.177.128-1.047-.01-10.061-.207-10.943-3.826,0,0-.29-12.526.208-22.477,1.434,1.376,6.971,5.482,21.537,4.992" transform="translate(-391.2 -396.518)" fill="#ecf1f9"/>
    <path id="Pfad_1060" data-name="Pfad 1060" d="M903.334,305.8a19.815,19.815,0,0,1-11.348,3.629s-6.875-7.576-12.668-14.9c6.518-2.817,13.4-9.028,15.779-11.282,4.248,10.781,8.237,22.557,8.237,22.557" transform="translate(-409.314 -388.522)" fill="#ecf1f9"/>
    <path id="Pfad_1061" data-name="Pfad 1061" d="M858.773,357.809a2.074,2.074,0,0,1-2.463,1.644,95.66,95.66,0,0,1-9.611-2.332c-2.872-1.045-8.384-4.3-11.257-5.346-.987-.359-3.361-1.318-4.9-1.942a1.713,1.713,0,0,1-1-2.066,36.263,36.263,0,0,1,2.9-7.23,2.634,2.634,0,0,1,1.2-1.063A11.155,11.155,0,0,0,840.627,342a15.279,15.279,0,0,0,6.3-1.326c.2.4,4.115,8.3,6.889,9.312,2.5.908,5.766,3.292,4.958,7.826" transform="translate(-388.026 -412.539)" fill="#3a3a5b"/>
    <path id="Pfad_1062" data-name="Pfad 1062" d="M928.8,318.218a2.074,2.074,0,0,1-.915,2.816,95.522,95.522,0,0,1-8.99,4.122c-2.9.958-9.246,1.816-12.149,2.774-1,.329-3.454,1.047-5.047,1.508a1.713,1.713,0,0,1-2.065-1,36.351,36.351,0,0,1-2.2-7.472,2.637,2.637,0,0,1,.284-1.577,11.153,11.153,0,0,0,7.046-2.344,15.28,15.28,0,0,0,4.124-4.943c.4.194,8.372,3.97,11.175,3.044,2.524-.833,6.567-.985,8.741,3.074" transform="translate(-417.039 -400.847)" fill="#3a3a5b"/>
    <path id="Pfad_1063" data-name="Pfad 1063" d="M820.431,265.367s-1.407,8.153-6.709,11.907c0,0-21.53-2.962-41.574-8.032-14.735-3.727-28.671-8.589-32.656-14.255-9.415-13.363,4.925-29.628,4.925-29.628s27.641,13.338,57.567,29.681c6.128,3.345,12.347,6.819,18.447,10.327" transform="translate(-348.224 -363.799)" fill="#0651b9"/>
    <path id="Pfad_1064" data-name="Pfad 1064" d="M816.786,315.977s-6.395.52-8.814,2.939-6.085,9.457-3.475,12.246,15.054-3.325,15.4-4.329-3.111-10.856-3.111-10.856" transform="translate(-376.973 -402.503)" fill="#f4b3a4"/>
    <path id="Pfad_1066" data-name="Pfad 1066" d="M930.763,133.775c-4.3-10.223-32.611-10.613-32.611-10.613-14.4,37.791-17.863,62.577-21.671,78.506a8.1,8.1,0,0,0-1.721,0s-20.232,7.894-50.3,29.732c0,0-3.146,8.623,2.5,15.683,0,0,51.814-11.437,66.287-19.919l.023,0,.432-.277q.33-.2.63-.405c47.065-30.581,42.588-78.085,36.432-92.712" transform="translate(-385.509 -320.149)" fill="#0651b9"/>
    <path id="Pfad_1067" data-name="Pfad 1067" d="M792.633,458.206a19.923,19.923,0,0,1,12.484,21.753s-1.342,6.791-5.524,3.779-2.222-2.456-8.195-6.574-9.871-10.612-9.192-15.77Z" transform="translate(-367.803 -463.25)" fill="#f4b3a4"/>
    <path id="Pfad_1091" data-name="Pfad 1091" d="M776,804.909a10.312,10.312,0,0,0,6.507,4.926,11.221,11.221,0,0,1,6.747,4.146,2.632,2.632,0,0,1-2.115,4.192H764.376a3.272,3.272,0,0,1-3.257-3.6c.169-1.687.347-3.65.424-5.155.168-3.287,3.46-5.932,3.46-5.932Z" transform="translate(-358.822 -610.723)" fill="#2c2c2c"/>
    <path id="Vereinigungsmenge_7" data-name="Vereinigungsmenge 7" d="M39.385,136.191q-3.033-13.968-5.614-26.659Q32.436,102.98,31.218,96.8c-3.878,16.937-8.81,35.241-8.81,35.241s-2.442,3.976-12.467,2.977a30.022,30.022,0,0,1-9.821-2.875C-.7,54.185,2.988,5.269,2.988,5.269L47.552,4.151,65.408,0S63.269,34.265,62.64,57.63c-.2,7.293-.245,13.526-.038,17.32.95,17.306-1.41,56.641-1.41,56.641s-1.587,4.385-11.607,5.434a25.394,25.394,0,0,1-2.628.133A30.326,30.326,0,0,1,39.385,136.191Z" transform="translate(359.725 61.84)" fill="#f40000" stroke="rgba(0,0,0,0)" stroke-miterlimit="10" stroke-width="1"/>
    <path id="Pfad_1094" data-name="Pfad 1094" d="M685.3,434.872s-18.9-8.6-33.192-1.076S646.553,503.423,667,509.443c0,0,38.3,12.245,18.3-74.571" transform="translate(-309.264 -451.506)" fill="#3a3a5b"/>
    <path id="Pfad_1095" data-name="Pfad 1095" d="M800.2,523.731a2.235,2.235,0,0,0-.184-.24,31.769,31.769,0,0,1-1.77-3.722c3.8-18.608,1.243-29.368,1.243-29.368.451-5.417,3.687-43.264-3.762-60.8-3.594-8.459-9.612-8.474-9.612-8.474s1.411,13.516.479,20.781c-.855,6.669,5.5,69.167,6.553,79.382-.017,0-.03,0-.035,0l.3,10.386,3.049-.721a2.2,2.2,0,0,0,1.31-.949l2.462-3.9a2.2,2.2,0,0,0-.032-2.383m-5.8-1.684.13-.077-.064.085c-.009.009-.033,0-.066-.007" transform="translate(-369.506 -447.415)" fill="#f4b3a4"/>
    <path id="Pfad_1097" data-name="Pfad 1097" d="M725.118,300.051c-4.867,0-10.982,2.1-14.263,5.284-3.484,3.386-7.111,3.559-9.692,7.558-2.692,4.167-4.359,8.5-3.007,14.361,1.478,6.405,1.177,12.6,5.2,17.3,1.992,2.328,5.236,2.592,7.5,4.73,4.154,3.927,8.875,5.169,14.263,5.169,10.154,0,16.474-6.015,21.672-13.511,4.164-6.006,3.339-10.054,4.316-15.191,3.075-16.169-10.412-25.7-25.987-25.7" transform="translate(-331.733 -395.701)" fill="#2c2c2c"/>
    <path id="Pfad_1098" data-name="Pfad 1098" d="M753.16,393.752l-19.411,9.92-3.889-13.466a41.293,41.293,0,0,0,3.591-12.294,51.293,51.293,0,0,0,.4-11.085l15.815,8.1a29.943,29.943,0,0,0-.63,3.62,26.322,26.322,0,0,0,.273,8.463,11.714,11.714,0,0,0,3.848,6.743" transform="translate(-345.479 -424.221)" fill="#f4b3a4"/>
    <path id="Pfad_1100" data-name="Pfad 1100" d="M737.2,412.538a62.194,62.194,0,0,0-15.3-4.34c.085,2.791-.646,5.417-5.544,6.058-6.515.848-12.341-3.6-15.29-6.62h0v0s-4.594.493-9.95,1.665a62.458,62.458,0,0,0-8.131,2.3c-3.13,1.151-5.833,2.587-7.276,4.354l0,0v0c-5.013,6.151-13.259,24.678-13.259,24.678s13.728,5.089,17.192,8.058l.079.662,2.149,17.843-6.4,35.539a5.413,5.413,0,0,0-.085.928,5.239,5.239,0,0,0,4.012,5.087s.55.092,1.563.231c6.784.953,34.324,4.238,55.916-1.624a10.483,10.483,0,0,0,7.651-10.973l-3.52-44.173c1.879-.323,4.047-.665,5.81-.86a10.932,10.932,0,0,1,3.132-.068s-2.439-34.5-12.751-38.753" transform="translate(-316.686 -441.651)" fill="#ecf1f9"/>
    <path id="Pfad_1101" data-name="Pfad 1101" d="M706.1,508.847c-.273,12.4-8.4,26.97-15.494,30.9-1.013-.14-1.563-.232-1.563-.232a5.24,5.24,0,0,1-4.012-5.087,5.36,5.36,0,0,1,.086-.928l6.4-35.539-2.149-17.842.159-.477s17.057,7.3,16.575,29.209" transform="translate(-326.33 -472.404)" fill="#ced1ec"/>
    <path id="Pfad_1102" data-name="Pfad 1102" d="M803.862,470.8c-1.807.2-5.821.862-5.821.862l-2.032-18.5s6.791,13.043,7.853,17.642" transform="translate(-373.731 -461.096)" fill="#ced1ec"/>
    <path id="Pfad_1103" data-name="Pfad 1103" d="M687.173,497.637l1.662-9.23c28.147-40.723,30.277-48.028,17.619-66.312-3.625-5.236-10.219-8.509-12.907-9.25a62.483,62.483,0,0,1,8.131-2.3,30.554,30.554,0,0,1,7.034,4.139c38.63,33.445-21.539,82.957-21.539,82.957" transform="translate(-327.246 -442.892)" fill="#3a3a5b"/>
    <path id="Pfad_1104" data-name="Pfad 1104" d="M707.627,469.283c-11.02.762-12.546,12.054-12.546,12.054s-18.5,1.678-21.227,2.893c0,0,1.5-4.059,4.169-10.2-2.412-2.371-10.337-5.9-15.584-7.519-4,10.211-5.54,20.318-3.3,30.062a2.36,2.36,0,0,0,2.2,1.815c5.886.274,25.337.177,39.577-11.616l.251-.067c3.408-.2,6.61-3.589,7.838-8.041s1.328-3.091,2.269-6.224-3.648-3.161-3.648-3.161" transform="translate(-314.832 -466.799)" fill="#f4b3a4"/>
    <path id="Pfad_1105" data-name="Pfad 1105" d="M751.989,395.271c-8.993-.24-15.861-9.1-15.861-9.1l15.587.634a26.337,26.337,0,0,0,.274,8.462" transform="translate(-348.155 -432.485)" fill="#e98c94"/>
    <path id="Pfad_1106" data-name="Pfad 1106" d="M750.167,366.819s-19.87,2.422-20.293-11.577,7.858-23.066,13.385-22.963c11.024.207,12.841,4.662,14.119,9.3s1.936,24.254-7.212,25.24" transform="translate(-345.477 -409.465)" fill="#f4b3a4"/>
    <path id="Pfad_1107" data-name="Pfad 1107" d="M756.032,377.607s.433,1.746,4.785,1.424c0,0,3.653-.269,3.519-2.191a11.764,11.764,0,0,0-8.3.768" transform="translate(-356.657 -428.321)" fill="#ecf1f9"/>
    <path id="Pfad_1108" data-name="Pfad 1108" d="M744.888,331.9s-16.982-.01-13.08,11.648c2.459,7.347-5.718,8.49-5.718,8.49l-3.935-11.777,2.465-9.175Z" transform="translate(-342.187 -408.956)" fill="#2c2c2c"/>
    <path id="Pfad_1109" data-name="Pfad 1109" d="M1066.431,257.958c-4.231-7.027-6.858-38.394-9.91-46.8-1.93-5.311-7.1-11.657-6.552-12.051-5.5-3.242-20.375-4.8-20.375-4.8s0,.021,0,.031c-.58-.121-1.158-.242-1.714-.352-1.783-.36-3.467-1.4-3.668-3.208-.006-.09-.017-.184-.027-.273a56.779,56.779,0,0,1-.249-6.464.333.333,0,0,1,0-.082c.049-3.218.294-5.606.294-5.606l-.059-.007-19.287-3.1c-.262,6.021-.612,10.5-.981,13.846a5.287,5.287,0,0,1-4.929,4.7c-.384.021-.774.045-1.161.072v0s-12.433-.484-17.189.968a7.768,7.768,0,0,0-1.209.5c.288.3-45.787,46.482-44.6,51.831s21.406,35.718,28.737,41.315h7.337s-16.262-37.089-16.473-40.1c-.309-4.4,40.891-29.036,40.891-33.527,0-1.633,11.486-2.127,19-2.069,7.955.061,22.936-4.093,22.936-4.093s6.476,49.074,14.66,63.63c6.454,11.478,34.963,40.889,34.963,40.889l6.014-5.334s-16.2-32.906-26.444-49.925" transform="translate(-433.006 -342.395)" fill="#ffccbe"/>
    <path id="Vereinigungsmenge_6" data-name="Vereinigungsmenge 6" d="M47.011,229.609C29.176,182.7,28.64,153.274,27.624,142.223c-.553-6.021-8.682-30.088-15.979-53.236C5.547,69.659.038,50.97,0,43.968-.078,28.3,15.169,3.38,15.884,2.221l.026-.042s15.838,6.11,29.33,13.195L94.623,0s4.636,11.922,8.523,23.944c1.693,5.242,3.241,10.5,4.2,14.8,2.124,9.49-3.855,45.349-7.936,70.843-2.017,12.556-3.57,22.6-3.467,25.738.309,9.51,17.744,10.742,31.215,92.545H113.9s-51.712-74.757-53.492-93.765c-.408-4.367-1.3-11.1-2.49-19.181-2.876,12.735-.854,19.243-.854,19.243a143.478,143.478,0,0,1,2.5,16.276c3.481,34.278-.737,79.163-.737,79.163Z" transform="translate(515.493 -46.013)" fill="#f40000" stroke="rgba(0,0,0,0)" stroke-miterlimit="10" stroke-width="1"/>
    <path id="Pfad_1112" data-name="Pfad 1112" d="M1017.681,787.486s-.669,7.7-1.659,9.289-5.151,6.934-9.906,8.718-18.359.859-19.415,5.8h47.944s.66-7.409-1.189-12.284-3.962-11.524-3.962-11.524Z" transform="translate(-455.178 -603.89)" fill="#ecf1f9"/>
    <path id="Pfad_1113" data-name="Pfad 1113" d="M1170.735,783.032s5.361,7.327,6.682,10.233,10.036,15.208,8.981,15.312-24.3,0-24.3,0-2.378-5.8-2.113-9.764-3.17-11.484-2.509-15.78,13.262,0,13.262,0" transform="translate(-528.081 -601.172)" fill="#ecf1f9"/>
    <path id="Pfad_1115" data-name="Pfad 1115" d="M1056.605,184.329c-.029.48-.058.946-.091,1.4.03-.45.061-.917.091-1.4" transform="translate(-484.996 -346.274)" fill="#2b478b"/>
    <path id="Pfad_1116" data-name="Pfad 1116" d="M1056.807,180.875q-.039.767-.084,1.5c.029-.489.055-.988.084-1.5" transform="translate(-485.085 -344.799)" fill="#2b478b"/>
    <path id="Pfad_1117" data-name="Pfad 1117" d="M1057.106,175.247c-.016.376-.032.747-.051,1.11.016-.363.032-.733.048-1.11Z" transform="translate(-485.227 -342.395)" fill="#2b478b"/>
    <path id="Pfad_1118" data-name="Pfad 1118" d="M1071.166,323.852c1.728,5.2-23.231,8.235-50.932,7.868a90.452,90.452,0,0,1-21.1-2.61c-12.68-3.279-19.656-9.245-14.089-15.572,1.583-1.8,19.141-26.926,19.141-26.926,1.036-2.249-.087-9.622-5.448-27.141-2.194-7.163.666-11.62,1.69-14.462a.011.011,0,0,1,0-.006,2.867,2.867,0,0,0,.109-2.427,59.626,59.626,0,0,0-8.995-11.328,88.807,88.807,0,0,0-7.523-6.854s10.282-11.206,16.029-14.086c5.921,6.208,18.764,17.329,34.893,17.455,13.915.106,27.435-7.733,35.666-13.679a5.74,5.74,0,0,1,1.464,1.155c5.142,6.034,6.609,16.921,6.609,16.921s-16.55,9.132-16.255,12.106c.821,8.193,1.6,10.59,1.236,13.515l0,.029a19.9,19.9,0,0,1-.856,3.562c-2.823,8.866-8.933,22.559-7.407,27.17.4,1.2,13.287,27.846,15.765,35.309" transform="translate(-453.645 -357.371)" fill="#36adff"/>
    <path id="Pfad_1119" data-name="Pfad 1119" d="M1014.793,209.265c.267-.081.557-.158.869-.225-.312.071-.606.148-.872.229Z" transform="translate(-467.175 -356.829)" fill="#ffb27d"/>
    <path id="Pfad_1120" data-name="Pfad 1120" d="M1092.426,205.546a4.584,4.584,0,0,0,1.484.982,4.55,4.55,0,0,1-1.484-.982" transform="translate(-500.335 -355.336)" fill="#ffb27d"/>
    <path id="Pfad_1121" data-name="Pfad 1121" d="M1095.016,207.26q.309.13.637.231a5.329,5.329,0,0,1-.637-.231" transform="translate(-501.441 -356.068)" fill="#ffb27d"/>
    <path id="Pfad_1122" data-name="Pfad 1122" d="M1206.076,406.768s10.137,2.624,11.524,4.039,5.36,12.408,3.963,12.51c-7.265.529-11.1-3.369-11.1-3.369-4.392-4.833-10.954-5.6-10.628-9.142s6.236-4.039,6.236-4.039" transform="translate(-546.207 -441.281)" fill="#ffccbe"/>
    <path id="Pfad_1123" data-name="Pfad 1123" d="M979.516,372.9s-7.34,9.27-7.34,10.955,1.486,8.717,3.269,8.816,2.377-5.745,3.763-6.835,6.34-3.138,7.034-5.036.61-7.9.61-7.9Z" transform="translate(-448.974 -426.816)" fill="#ffccbe"/>
    <path id="Pfad_1125" data-name="Pfad 1125" d="M1047.794,155.306s22.535,7.521,27-6.585,10.385-22.635-3.815-28.033-18.713-.906-21.35,3.44-7.586,28.859-1.838,31.179" transform="translate(-480.134 -318.035)" fill="#ffccbe"/>
    <path id="Pfad_1126" data-name="Pfad 1126" d="M1057.822,170.111s-.831,1.637-5.086.317c0,0-3.572-1.107-3-2.989a12.009,12.009,0,0,1,8.082,2.672" transform="translate(-482.076 -339.048)" fill="#ecf1f9"/>
    <path id="Pfad_1127" data-name="Pfad 1127" d="M1109.956,109.207c-2.525-3.243,5.762-9.93-11.072-17.969-12.77-6.1-16.727,3.139-17.893,7.956-7.594-4.333-19.986-16.815-27.888-8.683-9.463,9.736.8,18.3.8,18.3,3.589,2.614,5.333,1.891,10.579,3.044s1.9,7.224,2.305,9.271,3.991,6.188,8.843,4.1,4.294,5.9-.318,7.547c-1.315.469-2.68,7.818-.776,8.128,1.6.26,7.385.314,7.973-4.4.349-2.8,3.909-4.264,7.682-7.158,2.611,2.484,6.282,3.751,8.306,3.461,2.981-.428,3.013-2.82,9.4-7.081s4.581-13.272,2.057-16.515" transform="translate(-481.828 -305.054)" fill="#ffe2aa"/>
    <path id="Pfad_1128" data-name="Pfad 1128" d="M999.136,386c-12.679-3.28-19.657-9.246-14.088-15.575,1.583-1.8,19.141-26.926,19.141-26.926s4.7,28.374-5.053,42.5" transform="translate(-453.645 -414.257)" fill="#0651b9"/>
    <path id="Pfad_3025" data-name="Pfad 3025" d="M13.107,3.436s-1.725,3.27-8.346,1.216C4.761,4.651-.8,2.929.1,0A22.28,22.28,0,0,0,6.556,2.585,26.73,26.73,0,0,0,13.107,3.436Z" transform="translate(488.923 -218.25) rotate(-20)" fill="#ecf1f9"/>
    <path id="Pfad_3027" data-name="Pfad 3027" d="M8.145,2.7s-.831,1.637-5.086.317c0,0-3.572-1.107-3-2.989A12.009,12.009,0,0,1,8.145,2.7" transform="matrix(0.899, -0.438, 0.438, 0.899, 429.534, -219.162)" fill="#ecf1f9"/>
  </g>
</svg>
