<svg xmlns="http://www.w3.org/2000/svg" xmlns:xlink="http://www.w3.org/1999/xlink" width="183.812" height="177.945" viewBox="0 0 183.812 177.945"><defs><style>.a{fill:none;}.b{clip-path:url(#a);}.c{fill:#f899ad;}.d{fill:#e04545;}.e{fill:#fff;}.f{opacity:0.5;}.g{fill:#ccc;}</style><clipPath id="a"><rect class="a" width="168.807" height="152.39"/></clipPath></defs><g transform="translate(-10448.688 4526.538)"><g transform="matrix(0.995, -0.105, 0.105, 0.995, 10448.688, -4500.147)"><g class="b"><path class="c" d="M168.2,275.02c-3.164-16.873-16.788-71.76-36.681-71.76H36.176c-19.894,0-32.693,52.4-35.671,71.76s7.361,35.95,27.255,35.95H142.121c19.893,0,29.247-19.077,26.083-35.95" transform="translate(0 -158.58)"/><path class="d" d="M157.587,202.668c-10.551,8.971-.166,11.922,6.078,26.4s1.926,24.787,3.436,33.846c1.978,11.87,12.192,21.87,23.631,21.87,12.53,0,13.409-52.756,21.762-52.976,6.94-.183,2.418,32.093,11.87,46.161,7.139,10.625,14,10.128,20,3.737s15.9-21.213,16.872-33.994,3.992-16.4,10.5-30.192-3.854-15.157-11.988-16.707" transform="translate(-128.226 -156.136)"/></g></g><g transform="matrix(0.995, -0.105, 0.105, 0.995, 10473.371, -4513.894)"><path class="e" d="M468.457,400.2c-.168.577-.354,1.157-.548,1.721v.014c-.689,2.161-1.493,4.279-2.362,6.379-.288.7-.6,1.4-.883,2.085-.305.7-.609,1.386-.926,2.088-.945,2.069-1.92,4.11-2.909,6.15a86.4,86.4,0,0,0-6.5,18.284c-1.556,6.667-2.74,13.425-4.721,19.984-1.6,5.254-3.515,10.689-7.219,14.876a13.746,13.746,0,0,1-3.756,3c-3.457,1.875-7.628,2.039-10.84-1.155a7.017,7.017,0,0,1-1.873-3.151,29.03,29.03,0,0,1-.654-4.292,20.389,20.389,0,0,0-.9-4.036,16.2,16.2,0,0,0-1.539-3.453c-3.273-5.528-10.564-8.679-17.019-7.749a13.119,13.119,0,0,0-7.747,3.821c-3.958,4.095-3.2,9.434-4.4,14.429-.17.638-.354,1.28-.581,1.9-1.766,4.735-6.179,7.917-11.294,6.35a11.718,11.718,0,0,1-3.014-1.433h-.018a14.268,14.268,0,0,1-1.734-1.276,23.576,23.576,0,0,1-6.166-8.755c-2.464-5.954-2.2-12.545-2.453-18.861-.517-12.47-6.011-23.126-11.218-34.191-5.573-11.877-8.89-24.418-5.725-37.479,2.345-9.669,8.283-18.467,17.309-22.989a32.4,32.4,0,0,1,16.87-3.12c4.14.29,8.172,2.087,12.284,2.909a16.742,16.742,0,0,0,5.573.272,12.03,12.03,0,0,0,4.87-1.9c.838-.534,1.642-1.127,2.437-1.754a34.94,34.94,0,0,1,27.262-5.555c.988.243,1.981.517,2.971.838h.014a51.624,51.624,0,0,1,8.663,3.56c.135.078.274.155.423.229a49.461,49.461,0,0,1,7.295,4.748l.014.018c.337.258.671.534.99.824a39.7,39.7,0,0,1,5.373,5.387c-.09-.135-.135-.213-.135-.213.029,0,.364.442,1.231,1.6,1.568,2.251,1.448,2.145.855,1.339C472.9,373.073,472.141,387.7,468.457,400.2Z" transform="translate(-350.234 -342.564)"/><g class="f" transform="translate(28.693 8.056)"><path class="g" d="M389.465,348.581a12.03,12.03,0,0,0,4.87-1.9c-8.266,9.423-15.132,18.689-29.442,14.935,9.515.636,14.024-6.671,19-13.306A16.742,16.742,0,0,0,389.465,348.581Z" transform="translate(-364.893 -346.68)"/></g><g class="f" transform="translate(74.134 10.964)"><path class="g" d="M432.2,394.839c-.168.577-.354,1.157-.548,1.721v.014c-.689,2.161-1.493,4.279-2.362,6.379-.288.7-.6,1.4-.883,2.085-.305.7-.609,1.386-.926,2.088-.945,2.069-1.92,4.11-2.909,6.15a86.4,86.4,0,0,0-6.5,18.284c-1.556,6.667-2.74,13.425-4.721,19.984-1.6,5.254-3.515,10.689-7.219,14.876a13.746,13.746,0,0,1-3.756,3c-3.457,1.875-7.628,2.039-10.84-1.155a7.017,7.017,0,0,1-1.873-3.151,29.03,29.03,0,0,1-.654-4.292,20.389,20.389,0,0,0-.9-4.036c5.725,6.608,13.944,4.052,17.158-4.87,5.71-15.224.38-30.83,8.753-45.669,8.751-15.224,16.365-28.166,12.558-46.05a42.888,42.888,0,0,0-4.4-12.026,39.7,39.7,0,0,1,5.373,5.387c-.09-.135-.135-.213-.135-.213.029,0,.364.442,1.231,1.6,1.568,2.251,1.448,2.145.855,1.339C436.641,367.71,435.882,382.341,432.2,394.839Z" transform="translate(-388.109 -348.166)"/></g><g class="f" transform="translate(26.79 108.37)"><path class="g" d="M392.708,397.937a13.119,13.119,0,0,0-7.747,3.821c-3.958,4.095-3.2,9.434-4.4,14.429-.17.638-.354,1.28-.581,1.9-1.766,4.735-6.179,7.917-11.294,6.35a11.718,11.718,0,0,1-3.014-1.433h-.018a14.268,14.268,0,0,1-1.734-1.276c6.5-1.188,11.206-5.786,13.96-12.134C381.077,402.731,385.522,397.724,392.708,397.937Z" transform="translate(-363.921 -397.931)"/></g></g></g></svg>