<svg xmlns="http://www.w3.org/2000/svg" xmlns:xlink="http://www.w3.org/1999/xlink" width="301.589" height="720.539" viewBox="0 0 301.589 720.539"><defs><style>.a,.d,.f,.m{fill:none;}.b{fill:#151425;}.c{fill:#ffbe99;}.d{stroke:#151425;}.d,.f{stroke-miterlimit:10;stroke-width:1.569px;}.e{fill:#e9535b;}.f{stroke:#e8926d;}.g{fill:#a1b23d;opacity:0.33;}.h{clip-path:url(#a);}.i{fill:#f899ad;}.j{fill:#fff;}.k{clip-path:url(#c);}.l{fill:#ce667c;}.m{stroke:#fff;stroke-linecap:round;stroke-width:3px;}</style><clipPath id="a"><rect class="a" width="113.624" height="121.164"/></clipPath><clipPath id="c"><rect class="a" width="113.197" height="102.188" transform="translate(0 -12)"/></clipPath></defs><g transform="translate(-192.244 -617.114)"><g transform="translate(-26.271 1010.169) rotate(-22)"><path class="b" d="M402.114,88.491c7.6-3.8,17.105-21.857,10.928-43.714s-28.51-7.6-28.51,0c-3.8-7.6-55.593-33.261-87.9,9.029.476-5.228-4.277-6.653-8.078,2.375-5.7-3.8-11.547,4.277-5.06,8.553-11.1,6.653-24.875,28.034.308,67.472,47.516,19.957,65.572,15.206,65.572,15.206s24.709-21.383,27.085-24.233S402.114,88.491,402.114,88.491Z" transform="translate(0 0)"/><path class="c" d="M397.1,67.43s9.978,65.1,0,82.2c-7.485,12.828-18.175,23.787-37.085,25.258A54.547,54.547,0,0,1,322.263,163a62.8,62.8,0,0,1-19.717-27.62c-9.027,0-26.608-3.326-23.758-24.233,1.9-11.4,19.007-13.3,26.609-1.9,4.277,3.8,8.078-.95,9.978-13.779s3.8-23.282,4.751-24.709S362.892,85.486,397.1,67.43Z" transform="translate(5.01 21.061)"/><path class="d" d="M341.2,86.77s1.741,18.848,2.85,26.292-10.017,7.285-13.087,6.651" transform="translate(34.623 31.974)"/><path class="b" d="M352.914,125.811a15.935,15.935,0,0,1-1.841,4.457c-3.229,5.708-20.3,11.17-25.288,4.283a9.459,9.459,0,0,1-.993-1.7v-.013c-2.97-6.642,3.093-14.632,13.576-16.817,11.4-2.368,14.263,7.131,14.263,7.131S353.355,123.762,352.914,125.811Z" transform="translate(30.716 48.262)"/><path class="e" d="M352.642,122.779a15.936,15.936,0,0,1-1.841,4.457c-3.229,5.708-20.3,11.17-25.288,4.283a9.468,9.468,0,0,1-.993-1.705V129.8c1.067-2.492,3.695-5.4,10.077-4.7C339.471,125.737,343.227,117.514,352.642,122.779Z" transform="translate(30.988 51.293)"/><path class="f" d="M299.587,110.773s.476-17.879-13.066-14.413c-6.177,2.038-3.326,10.829,0,10.592" transform="translate(7.494 37.133)"/><path class="g" d="M344.911,120.464c1.783-5.289,9.594-10.205,18.663-8.373,11.349,2.292,12.131-7.108,19.534-11.882,6.147-3.965,22.142-2.91,25.755,4.461,6.573,13.407,9.221,26.855.946,32.489-6.839,4.655-20.9,1.234-26.048-1.714-5.591-3.2-11.339-6.094-20.517-4.948C351.609,131.952,341.614,130.242,344.911,120.464Z" transform="translate(42.134 38.273)"/><path class="g" d="M350.018,118.92c1.422-4.372,7.477-8.383,14.435-6.784,8.71,2,9.4-5.789,15.14-9.686,4.768-3.236,17.061-2.22,19.771,3.928,4.929,11.183,6.839,22.362.419,26.965-5.306,3.8-16.088.84-20.021-1.65-4.27-2.706-8.664-5.157-15.735-4.286C355.061,128.51,347.388,127,350.018,118.92Z" transform="translate(45.08 39.805)"/></g><g transform="matrix(0.985, -0.174, 0.174, 0.985, -578.439, -3122.485)"><g transform="translate(104 3864.822)"><g class="h"><path class="i" d="M113.218,377.21c-2.13-11.357-11.3-48.3-24.69-48.3H24.35c-13.391,0-22.006,35.274-24.01,48.3s4.955,24.2,18.345,24.2H95.662c13.39,0,19.686-12.841,17.556-24.2" transform="translate(0 -280.243)"/><path class="j" d="M234.428,139.086a18.164,18.164,0,0,0-3.582-9.241,13.154,13.154,0,0,0-6.741-4,41.6,41.6,0,0,0-9.616.207L203.1,127.6l-11.387-1.551a41.618,41.618,0,0,0-9.618-.207,13.148,13.148,0,0,0-6.74,4,18.165,18.165,0,0,0-3.581,9.241c-.309,5.721.071,14.781,4.168,23.1,0,0,2.931,5.862,2.931,15.241,0,6.858,2.614,21.647,6.006,28.225,1.484,2.878,5.929,2.327,6.83-.784,3.151-10.9,5.4-38.36,11.389-38.285,5.989-.076,8.236,27.383,11.391,38.285.9,3.111,5.349,3.663,6.831.784,3.392-6.578,6.007-21.363,6.007-28.225,0-9.379,2.931-15.241,2.931-15.241,4.1-8.315,4.476-17.375,4.167-23.1" transform="translate(-146.29 -117.058)"/></g></g><g transform="translate(269.376 3864.822)"><g class="h"><path class="i" d="M113.218,377.21c-2.13-11.357-11.3-48.3-24.69-48.3H24.35c-13.391,0-22.006,35.274-24.01,48.3s4.955,24.2,18.345,24.2H95.662c13.39,0,19.686-12.841,17.556-24.2" transform="translate(0 -280.243)"/><path class="j" d="M234.428,139.086a18.164,18.164,0,0,0-3.582-9.241,13.154,13.154,0,0,0-6.741-4,41.6,41.6,0,0,0-9.616.207L203.1,127.6l-11.387-1.551a41.618,41.618,0,0,0-9.618-.207,13.148,13.148,0,0,0-6.74,4,18.165,18.165,0,0,0-3.581,9.241c-.309,5.721.071,14.781,4.168,23.1,0,0,2.931,5.862,2.931,15.241,0,6.858,2.614,21.647,6.006,28.225,1.484,2.878,5.929,2.327,6.83-.784,3.151-10.9,5.4-38.36,11.389-38.285,5.989-.076,8.236,27.383,11.391,38.285.9,3.111,5.349,3.663,6.831.784,3.392-6.578,6.007-21.363,6.007-28.225,0-9.379,2.931-15.241,2.931-15.241,4.1-8.315,4.476-17.375,4.167-23.1" transform="translate(-146.29 -117.058)"/></g></g><g transform="translate(184.747 3884.073)"><g class="k"><path class="l" d="M112.792,252.251c-2.122-11.315-12.425-54.751-28.54-45.1s-40.467,8.085-56.333,0S2.336,239.272.339,252.251s4.936,24.107,18.276,24.107H95.3c13.34,0,19.612-12.792,17.49-24.107" transform="translate(0 -174.17)"/><path class="j" d="M234.191,13.388a18.1,18.1,0,0,0-3.568-9.207A13.1,13.1,0,0,0,223.907.193a41.448,41.448,0,0,0-9.58.207L202.984,1.945,191.64.4a41.462,41.462,0,0,0-9.581-.207,13.1,13.1,0,0,0-6.715,3.988,18.1,18.1,0,0,0-3.568,9.207c-.308,5.7.071,14.725,4.152,23.009,0,0,2.92,5.84,2.92,15.184,0,6.833,2.6,21.565,5.984,28.118,1.478,2.867,5.907,2.318,6.8-.782,3.139-10.861,5.677-34.716,11.646-34.641,5.966-.075,7.905,23.78,11.049,34.641.9,3.1,5.328,3.649,6.806.782,3.38-6.553,5.984-21.283,5.984-28.118,0-9.343,2.92-15.184,2.92-15.184,4.08-8.284,4.459-17.31,4.151-23.009" transform="translate(-146.385 -10)"/></g><path class="i" d="M113.218,378.841c-2.13-11.357-17.633-69.612-35.908-39.036s-22.446,25.082-46.153.159S2.344,365.813.34,378.841s4.955,24.2,18.345,24.2H95.662c13.39,0,19.686-12.841,17.556-24.2" transform="translate(2.537 -300.951)"/></g><path class="i" d="M113.218,377.21c-2.13-11.357-11.3-48.3-24.69-48.3H24.35c-13.391,0-22.006,35.274-24.01,48.3s4.955,24.2,18.345,24.2H95.662c13.39,0,19.686-12.841,17.556-24.2" transform="translate(104 3584.579)"/><path class="i" d="M113.218,377.21c-2.13-11.357-11.3-48.3-24.69-48.3H24.35c-13.391,0-22.006,35.274-24.01,48.3s4.955,24.2,18.345,24.2H95.662c13.39,0,19.686-12.841,17.556-24.2" transform="translate(269.375 3584.579)"/></g><g transform="translate(1190.96 -2599.492) rotate(16)"><g transform="translate(104 3864.822)"><g class="h"><path class="i" d="M113.218,377.21c-2.13-11.357-11.3-48.3-24.69-48.3H24.35c-13.391,0-22.006,35.274-24.01,48.3s4.955,24.2,18.345,24.2H95.662c13.39,0,19.686-12.841,17.556-24.2" transform="translate(0 -280.243)"/><path class="j" d="M234.428,139.086a18.164,18.164,0,0,0-3.582-9.241,13.154,13.154,0,0,0-6.741-4,41.6,41.6,0,0,0-9.616.207L203.1,127.6l-11.387-1.551a41.618,41.618,0,0,0-9.618-.207,13.148,13.148,0,0,0-6.74,4,18.165,18.165,0,0,0-3.581,9.241c-.309,5.721.071,14.781,4.168,23.1,0,0,2.931,5.862,2.931,15.241,0,6.858,2.614,21.647,6.006,28.225,1.484,2.878,5.929,2.327,6.83-.784,3.151-10.9,5.4-38.36,11.389-38.285,5.989-.076,8.236,27.383,11.391,38.285.9,3.111,5.349,3.663,6.831.784,3.392-6.578,6.007-21.363,6.007-28.225,0-9.379,2.931-15.241,2.931-15.241,4.1-8.315,4.476-17.375,4.167-23.1" transform="translate(-146.29 -117.058)"/></g></g><g transform="translate(269.376 3864.822)"><g class="h"><path class="i" d="M113.218,377.21c-2.13-11.357-11.3-48.3-24.69-48.3H24.35c-13.391,0-22.006,35.274-24.01,48.3s4.955,24.2,18.345,24.2H95.662c13.39,0,19.686-12.841,17.556-24.2" transform="translate(0 -280.243)"/><path class="j" d="M234.428,139.086a18.164,18.164,0,0,0-3.582-9.241,13.154,13.154,0,0,0-6.741-4,41.6,41.6,0,0,0-9.616.207L203.1,127.6l-11.387-1.551a41.618,41.618,0,0,0-9.618-.207,13.148,13.148,0,0,0-6.74,4,18.165,18.165,0,0,0-3.581,9.241c-.309,5.721.071,14.781,4.168,23.1,0,0,2.931,5.862,2.931,15.241,0,6.858,2.614,21.647,6.006,28.225,1.484,2.878,5.929,2.327,6.83-.784,3.151-10.9,5.4-38.36,11.389-38.285,5.989-.076,8.236,27.383,11.391,38.285.9,3.111,5.349,3.663,6.831.784,3.392-6.578,6.007-21.363,6.007-28.225,0-9.379,2.931-15.241,2.931-15.241,4.1-8.315,4.476-17.375,4.167-23.1" transform="translate(-146.29 -117.058)"/></g></g><g transform="translate(184.747 3884.073)"><path class="i" d="M113.218,378.841c-2.13-11.357-17.633-69.612-35.908-39.036s-22.446,25.082-46.153.159S2.344,365.813.34,378.841s4.955,24.2,18.345,24.2H95.662c13.39,0,19.686-12.841,17.556-24.2" transform="translate(2.537 -300.951)"/><line class="m" x1="9.664" y1="11.793" transform="translate(30.277 -5.084)"/><line class="m" y1="16.606" x2="0.44" transform="translate(61.499 -18.159)"/><line class="m" y1="9.902" x2="12.765" transform="translate(80.329 -0.21)"/></g><path class="i" d="M113.218,377.21c-2.13-11.357-11.3-48.3-24.69-48.3H24.35c-13.391,0-22.006,35.274-24.01,48.3s4.955,24.2,18.345,24.2H95.662c13.39,0,19.686-12.841,17.556-24.2" transform="translate(104 3584.579)"/><path class="i" d="M113.218,377.21c-2.13-11.357-11.3-48.3-24.69-48.3H24.35c-13.391,0-22.006,35.274-24.01,48.3s4.955,24.2,18.345,24.2H95.662c13.39,0,19.686-12.841,17.556-24.2" transform="translate(269.375 3584.579)"/></g></g></svg>