<svg width="501" height="757" viewBox="0 0 501 757" fill="none" xmlns="http://www.w3.org/2000/svg">
<mask id="mask0_396_827" style="mask-type:luminance" maskUnits="userSpaceOnUse" x="0" y="0" width="501" height="757">
<path d="M500.411 0.287231H0.457031V756.297H500.411V0.287231Z" fill="white"/>
</mask>
<g mask="url(#mask0_396_827)">
<path d="M262.591 498.722C382.605 498.722 479.896 493.279 479.896 486.565C479.896 479.851 382.605 474.408 262.591 474.408C142.576 474.408 45.2852 479.851 45.2852 486.565C45.2852 493.279 142.576 498.722 262.591 498.722Z" fill="#E5E5E5"/>
<path d="M469.577 312.583L467.739 312.716C467.753 312.909 469.154 332.271 468.799 353.248C468.331 380.837 465.082 398.629 459.405 404.701C458.718 405.47 457.882 406.09 456.947 406.525C457.197 407.082 457.444 407.639 457.686 408.196C458.851 407.664 459.896 406.899 460.756 405.949C466.835 399.448 470.16 381.727 470.642 353.279C470.998 332.22 469.59 312.776 469.577 312.583Z" fill="#657FA5"/>
<path d="M480.624 315.387L478.786 315.521C478.8 315.714 480.201 335.075 479.846 356.053C479.378 383.641 476.13 401.434 470.453 407.506C469.766 408.275 468.929 408.895 467.994 409.33C468.245 409.887 468.491 410.444 468.733 411.001C469.898 410.469 470.943 409.704 471.803 408.754C477.882 402.253 481.207 384.532 481.689 356.084C482.046 335.024 480.638 315.583 480.624 315.387Z" fill="#657FA5"/>
<path d="M461.583 302.898L459.744 303.032C459.758 303.225 461.159 322.586 460.804 343.564C460.336 371.152 457.088 388.944 451.411 395.017C450.724 395.785 449.887 396.404 448.953 396.837C449.203 397.394 449.449 397.953 449.692 398.512C450.857 397.979 451.901 397.215 452.761 396.265C458.84 389.764 462.165 372.043 462.647 343.595C463.003 322.535 461.597 303.092 461.583 302.898Z" fill="#657FA5"/>
<path d="M400.176 314.879H426.132L433.798 294.051H439.405L428.897 321.895H400.176V314.879Z" fill="#8C8F8F"/>
<path d="M400.177 304.998C399.123 305.005 398.099 304.647 397.278 303.986C396.457 303.325 395.889 302.401 395.67 301.37C395.451 300.339 395.594 299.264 396.076 298.326C396.558 297.388 397.349 296.645 398.314 296.223L427.327 283.495C428.444 283.003 429.711 282.973 430.849 283.412C431.988 283.851 432.907 284.723 433.406 285.837C433.649 286.388 433.782 286.982 433.796 287.585C433.809 288.187 433.703 288.787 433.484 289.348C433.266 289.91 432.938 290.422 432.52 290.857C432.102 291.291 431.603 291.639 431.05 291.879L402.037 304.608C401.451 304.865 400.818 304.998 400.177 304.998Z" fill="#8C8F8F"/>
<path d="M404.162 283.424H389.012V340.841H404.162V283.424Z" fill="#717E83"/>
<path d="M354.554 192.931C353.823 192.933 353.107 192.717 352.499 192.308C351.891 191.9 351.42 191.32 351.145 190.641C350.87 189.963 350.805 189.218 350.957 188.502C351.11 187.786 351.473 187.132 352.001 186.624L365.815 173.43C366.354 172.916 367.036 172.577 367.772 172.457C368.507 172.336 369.262 172.441 369.937 172.756L378.587 176.799C379.025 177.002 379.418 177.289 379.743 177.644C380.069 178 380.322 178.416 380.486 178.869C380.65 179.323 380.723 179.804 380.701 180.286C380.678 180.767 380.561 181.24 380.355 181.676C379.936 182.557 379.185 183.237 378.266 183.566C377.347 183.896 376.335 183.848 375.451 183.434L369.095 180.464L357.108 191.912C356.42 192.568 355.505 192.933 354.554 192.931Z" fill="#8C8F8F"/>
<path d="M357.11 191.908L369.096 180.46L375.452 183.43C375.931 183.661 376.455 183.784 376.987 183.791C377.518 183.798 378.045 183.69 378.531 183.473C379.016 183.256 379.448 182.936 379.797 182.535C380.146 182.134 380.404 181.661 380.552 181.151L368.535 175.984L351.895 191.809C352.574 192.51 353.503 192.915 354.48 192.934C355.456 192.954 356.4 192.587 357.107 191.913L357.11 191.908Z" fill="#797C7B"/>
<path d="M354.555 346.339C353.831 346.341 353.113 346.201 352.443 345.926C351.773 345.65 351.164 345.246 350.651 344.735C350.137 344.225 349.729 343.618 349.45 342.95C349.171 342.281 349.027 341.565 349.025 340.841V110.111L261.171 86.9663L232.81 112.896C231.728 113.884 230.299 114.404 228.836 114.343C227.372 114.282 225.992 113.645 224.996 112.57C224.505 112.04 224.123 111.418 223.874 110.739C223.624 110.061 223.511 109.34 223.542 108.617C223.572 107.895 223.746 107.186 224.052 106.531C224.357 105.876 224.79 105.288 225.324 104.801L255.916 76.835C256.602 76.2094 257.433 75.7655 258.334 75.5441C259.236 75.3227 260.178 75.3308 261.075 75.5677L355.971 100.565C357.148 100.873 358.19 101.561 358.935 102.523C359.679 103.486 360.083 104.668 360.085 105.884V340.839C360.083 341.563 359.938 342.28 359.659 342.949C359.381 343.617 358.973 344.224 358.459 344.735C357.946 345.246 357.337 345.65 356.667 345.926C355.997 346.201 355.279 346.341 354.555 346.339Z" fill="#B4B6B6"/>
<path d="M394.542 266.23H324.973V482.891H394.542V266.23Z" fill="#D7DBDB"/>
<path d="M407.784 230.254L402.34 232.171L379.629 211.443L372.611 144.678H378.064L407.794 163.446L407.784 230.254Z" fill="#6B8189"/>
<path d="M402.341 232.171L372.611 211.443V144.678L402.341 163.605V232.171Z" fill="#93B0B9"/>
<path d="M397.817 219.007L374.643 203.311V156.085L397.813 173.131L397.817 219.007Z" fill="#435D77"/>
<path d="M376.959 157.787V200.447L397.816 219.007L374.643 203.311V156.085L376.959 157.787Z" fill="#395067"/>
<path d="M375.588 199.414L393.216 169.748L397.815 173.131L377.732 205.399L374.645 203.308L375.588 199.414Z" fill="#496480"/>
<path d="M374.643 184.064L386.228 164.608L390.526 167.771L374.646 195.061L374.643 184.064Z" fill="#496480"/>
<path d="M383.553 209.344L397.815 187.31V197.984L389.491 213.37L383.553 209.344Z" fill="#496480"/>
<path d="M422.727 304.998L426.553 272.09L459.349 274.585L463.738 310.916L422.727 304.998Z" fill="#829095"/>
<path d="M432.029 306.341L435.092 282.276L460.089 280.697L459.351 274.586L426.555 272.091L422.729 304.999L432.029 306.341Z" fill="#69767A"/>
<path d="M461.196 329.619L435.119 306.496L436.455 285.348L462.531 308.471L461.196 329.619Z" fill="#69767A"/>
<path d="M436.457 285.349C436.457 285.349 453.541 283.02 459.065 287.209C464.589 291.398 485.351 308.878 485.351 308.878L462.532 308.471L436.457 285.349Z" fill="#5B676B"/>
<path d="M461.195 329.62L492.512 329.225L485.35 308.878L462.531 308.472L461.195 329.62Z" fill="#6C7A7E"/>
<path d="M448.979 396.538C448.3 396.814 447.573 396.956 446.839 396.953C446.602 396.935 446.37 396.869 446.158 396.759C445.947 396.649 445.759 396.497 445.608 396.312C442.705 393.342 439.037 380.466 438.058 335.993C437.469 309.238 438.183 283.469 438.19 283.212L436.347 283.16C436.34 283.418 435.625 309.227 436.216 336.027C436.562 351.78 437.285 364.794 438.364 374.702C439.75 387.444 441.688 394.929 444.29 397.586C444.611 397.95 445.003 398.244 445.442 398.45C445.882 398.656 446.358 398.769 446.843 398.783C447.834 398.785 448.816 398.59 449.73 398.209C449.482 397.651 449.232 397.094 448.979 396.538Z" fill="#657FA5"/>
<path d="M438.067 277.031H435.955V283.186H438.067V277.031Z" fill="#2A405A"/>
<path d="M439.404 281.265H434.762V299.533H439.404V281.265Z" fill="#4B6C92"/>
<path d="M456.975 406.222C456.295 406.499 455.568 406.64 454.835 406.637C454.596 406.619 454.364 406.553 454.153 406.443C453.941 406.333 453.754 406.181 453.603 405.996C450.699 403.026 447.031 390.15 446.053 345.677C445.464 318.922 446.177 293.153 446.185 292.896L444.342 292.844C444.335 293.102 443.62 318.91 444.21 345.711C444.557 361.464 445.279 374.477 446.358 384.385C447.745 397.127 449.682 404.613 452.285 407.271C452.605 407.635 452.998 407.929 453.437 408.134C453.876 408.34 454.353 408.454 454.838 408.467C455.829 408.47 456.81 408.274 457.725 407.893C457.477 407.335 457.227 406.778 456.975 406.222Z" fill="#657FA5"/>
<path d="M446.196 286.715H443.998V292.869H446.196V286.715Z" fill="#2A405A"/>
<path d="M447.589 290.949H442.756V309.217H447.589V290.949Z" fill="#4B6C92"/>
<path d="M468.019 409.024C467.34 409.301 466.613 409.442 465.879 409.439C465.641 409.421 465.409 409.355 465.198 409.245C464.986 409.135 464.799 408.983 464.648 408.798C461.744 405.828 458.076 392.953 457.098 348.479C456.509 321.724 457.222 295.955 457.229 295.698L455.387 295.646C455.379 295.904 454.665 321.713 455.255 348.513C455.601 364.266 456.324 377.28 457.403 387.187C458.79 399.929 460.727 407.415 463.329 410.073C463.65 410.437 464.042 410.731 464.481 410.937C464.92 411.142 465.397 411.256 465.882 411.27C466.873 411.272 467.855 411.077 468.769 410.695C468.522 410.138 468.272 409.581 468.019 409.024Z" fill="#657FA5"/>
<path d="M456.591 289.52H454.809V295.675H456.591V289.52Z" fill="#2A405A"/>
<path d="M457.721 293.754H453.803V312.022H457.721V293.754Z" fill="#4B6C92"/>
<path d="M380.719 289.305H340.5V329.298H380.719V289.305Z" fill="#4A7499"/>
<path d="M220.334 106.698C220.334 106.698 227.772 97.7936 234.929 102.979C242.086 108.163 234.929 118.794 234.929 118.794L220.334 106.698Z" fill="#3B3A4F"/>
<path d="M189.76 104.967L222.713 100.021L237.681 121.371L223.102 148.034L189.76 104.967Z" fill="#92B8E9"/>
<path d="M254.028 79.5121C254.486 77.3366 255.776 75.4263 257.623 74.1898C259.471 72.9534 261.729 72.4888 263.914 72.8956C266.1 73.3024 268.039 74.5481 269.318 76.3665C270.597 78.1848 271.114 80.4314 270.758 82.6257C270.3 84.8013 269.01 86.7115 267.163 87.948C265.315 89.1845 263.057 89.6491 260.872 89.2423C258.686 88.8355 256.747 87.5897 255.468 85.7714C254.189 83.953 253.672 81.7065 254.028 79.5121Z" fill="#3B3A4F"/>
<path d="M394.542 266.23H324.973V278.238H394.542V266.23Z" fill="#4A7499"/>
<path d="M164.188 305.718L174.064 304.17L181.048 348.233C181.15 348.882 181.122 349.544 180.967 350.182C180.813 350.82 180.535 351.421 180.148 351.951C179.762 352.482 179.275 352.931 178.715 353.273C178.155 353.615 177.532 353.843 176.883 353.945C176.235 354.047 175.574 354.02 174.936 353.865C174.298 353.711 173.697 353.433 173.166 353.046C172.636 352.659 172.186 352.172 171.844 351.612C171.502 351.052 171.274 350.43 171.173 349.781L164.188 305.718Z" fill="#3E4142"/>
<path d="M232.583 308.111L242.721 309.521L237.167 349.018C237.075 349.684 236.852 350.325 236.512 350.905C236.172 351.484 235.721 351.991 235.185 352.397C234.649 352.802 234.039 353.098 233.388 353.267C232.738 353.437 232.061 353.477 231.395 353.384C230.73 353.292 230.089 353.069 229.509 352.729C228.929 352.389 228.422 351.939 228.017 351.403C227.611 350.867 227.316 350.256 227.146 349.606C226.977 348.955 226.937 348.278 227.029 347.613L232.583 308.111Z" fill="#3E4142"/>
<path d="M160.759 315.216C159.627 315.029 158.579 314.5 157.756 313.701C156.933 312.901 156.374 311.869 156.154 310.743C155.933 309.617 156.063 308.45 156.524 307.4C156.986 306.349 157.758 305.465 158.736 304.865C159.744 304.248 180.653 291.916 224.592 299.356C232.789 300.765 240.899 302.642 248.881 304.978C250.269 305.376 251.451 306.292 252.183 307.535C252.916 308.779 253.143 310.257 252.819 311.663C252.494 313.07 251.642 314.298 250.438 315.095C249.235 315.891 247.771 316.196 246.35 315.945C246.133 315.909 245.919 315.859 245.708 315.798C216.259 307.258 195.465 307.498 183.207 309.203C170.695 310.943 164.734 314.426 164.678 314.461C163.506 315.179 162.113 315.447 160.759 315.216Z" fill="#4A7499"/>
<path d="M282.031 436.494L210.692 367.244L198.355 366.506L168.898 368.558L218.92 447.013L272.943 446.472L271.202 444.606L282.031 436.494Z" fill="#D7DBDB"/>
<path d="M118.812 319.115C118.812 319.115 127.382 325.793 131.811 333.426L116.007 354.963C116.007 354.963 114.299 341.113 112.407 336.301C111.095 332.966 103.189 322.382 103.189 322.382L118.812 319.115Z" fill="#D7DBDB"/>
<path d="M114.266 323.856L127.299 339.576L131.813 333.425C127.384 325.792 118.814 319.113 118.814 319.113L114.5 320.014C114.191 321.27 114.112 322.572 114.266 323.856Z" fill="#606264"/>
<path d="M224.906 349.332C205.512 347.675 181.042 353.028 159.991 353.181C148.912 351.2 138.695 349.097 131.067 347.448C127.922 345.689 125.122 343.375 122.802 340.619L117.584 344.402C117.584 344.402 105.306 357.97 107.479 369.704C109.652 381.437 119.918 393.886 141.704 393.838C160.171 393.797 214.797 364.528 234.519 372.177C243.997 375.853 254.05 377.466 263.639 377.998C288.18 383.865 318.048 387.542 324.97 375.41C324.973 375.413 258.378 352.192 224.906 349.332Z" fill="#D7DBDB"/>
<path d="M215.808 336.37C215.808 336.37 183.7 339.262 173.639 338.774C164.68 338.34 139.731 332.685 139.731 332.685L136.663 329.305C135.772 330.101 134.867 330.887 133.947 331.661C128.816 335.962 123.395 339.905 117.723 343.463C117.723 343.463 124.73 357.287 141.526 358.035C171.051 359.351 215.085 347.264 237.759 356.663L309.042 374.68C326.378 381.699 325.544 375.562 324.77 371.594C324.77 371.594 264.843 337.039 215.808 336.37Z" fill="#2B6299"/>
<path d="M113.704 326.081C113.006 316.964 109.514 300.146 95.1656 279.049C93.201 276.174 91.0885 273.402 88.8364 270.746C77.1811 255.497 61.7402 243.561 44.0464 236.123C37.411 232.661 33.0474 230.939 33.0474 230.939C32.7155 231.397 32.5337 231.946 32.527 232.512C31.0469 233.575 28.3199 236.96 37.8836 244.276C42.4356 247.759 64.8029 269.806 76.9887 282.222C96.8851 302.496 95.5911 326.196 96.8851 331.088C99.6819 341.658 112.36 336.242 113.715 333.545C113.716 333.541 115.29 333.637 113.704 326.081Z" fill="#D7DBDB"/>
<path d="M32.7542 231.449C32.7542 231.449 64.455 249.533 81.088 269.82C95.7956 287.758 116.697 310.311 113.659 333.588C113.659 333.588 119.08 339.025 123.005 322.788C124.291 317.47 120.18 305.328 117.497 297.662C113.023 284.886 108.697 272.285 94.2296 260.983C85.5108 254.171 59.8863 235.824 49.3637 231.819C37.0798 227.143 31.8075 228.95 32.7542 231.449Z" fill="#2B6299"/>
<path d="M31.6945 230.61L0.777082 212.496C0.321196 212.228 0.135805 211.787 0.340953 211.449L0.498234 211.189C4.55485 204.492 22.329 203.033 31 208.717C43.9844 217.227 37.4014 223.738 33.344 230.434C33.1358 230.656 32.8547 230.796 32.5519 230.829C32.2491 230.861 31.9448 230.783 31.6945 230.61Z" fill="#2B6299"/>
<path d="M30.0298 228.34C32.7772 223.52 36.8278 216.434 21.14 210.662C13.14 207.72 6.19076 207.863 2.47985 212.842C1.94177 212.619 1.36577 212.501 0.783203 212.495C1.53339 214.205 2.62621 215.743 3.99415 217.014C7.22182 220.013 16.9382 225.87 22.6854 229.719C29.0959 234.011 28.5223 236.453 31.6512 237.721L33.3494 230.435C33.3494 230.435 32.0721 229.618 30.0298 228.34Z" fill="#D7DBDB"/>
<path d="M196.252 470.308C196.252 470.308 196.701 438.976 227.538 437.912C258.375 436.847 263.66 437.912 263.66 437.912L276.706 432.213C276.706 432.213 306.091 434.429 314.311 449.233C320.954 461.194 319.614 470.313 319.614 470.313L196.252 470.308Z" fill="#D7DBDB"/>
<path d="M137.951 324.738L147.593 322.11L159.453 365.129C159.802 366.408 159.628 367.772 158.971 368.923C158.313 370.073 157.225 370.915 155.947 371.264C154.668 371.612 153.304 371.439 152.153 370.781C151.003 370.123 150.161 369.036 149.812 367.757L137.951 324.738Z" fill="#1F2222"/>
<path d="M205.251 319.971L215.475 320.254L214.373 360.094C214.335 361.45 213.761 362.735 212.776 363.667C211.79 364.599 210.475 365.102 209.119 365.065C207.763 365.027 206.478 364.452 205.546 363.467C204.613 362.482 204.111 361.167 204.148 359.811L205.251 319.971Z" fill="#1F2222"/>
<path d="M134.665 334.96C133.518 334.9 132.417 334.491 131.51 333.788C130.603 333.084 129.932 332.121 129.588 331.025C129.243 329.93 129.242 328.756 129.584 327.66C129.926 326.564 130.594 325.598 131.5 324.893C132.432 324.169 151.836 309.604 196.334 312.149C204.639 312.645 212.909 313.616 221.104 315.057C222.527 315.297 223.804 316.075 224.671 317.229C225.538 318.383 225.929 319.826 225.763 321.259C225.598 322.693 224.888 324.009 223.78 324.935C222.673 325.861 221.253 326.326 219.812 326.236C219.592 326.223 219.374 326.197 219.157 326.16C188.936 320.923 168.298 323.456 156.306 326.505C144.066 329.616 138.531 333.735 138.478 333.775C137.393 334.62 136.038 335.041 134.665 334.96Z" fill="#5585AF"/>
<path d="M394.034 466.277H114.004C109.416 466.277 105.697 469.997 105.697 474.584C105.697 479.172 109.416 482.891 114.004 482.891H394.034C398.622 482.891 402.341 479.172 402.341 474.584C402.341 469.997 398.622 466.277 394.034 466.277Z" fill="#939393"/>
<path d="M190.03 402.226C203.248 402.226 213.964 391.511 213.964 378.292C213.964 365.074 203.248 354.358 190.03 354.358C176.812 354.358 166.096 365.074 166.096 378.292C166.096 391.511 176.812 402.226 190.03 402.226Z" fill="#606264"/>
<path d="M311.535 679.26L317.141 728.028H338.996L337.175 676.878L311.535 679.26Z" fill="#E2E2E2"/>
<path d="M230.588 679.17L231.819 725.01L242.16 729.64L253.955 725.01L255.496 677.579L230.588 679.17Z" fill="#E2E2E2"/>
<path d="M273.586 434.104C288.094 529.174 286.681 515.312 291.87 559.661C296.143 596.176 304.942 714.779 304.942 714.779L347.783 713.109L341.483 553.569L331.203 425.771L273.586 434.104Z" fill="#2E6C9C"/>
<path d="M239.101 427.44C229.757 511.167 231.388 548.575 230.368 593.257C229.529 630.011 222.617 716.448 222.617 716.448H263.779L277.378 556.505L287.72 427.44H239.101Z" fill="#2E6C9C"/>
<path d="M231.793 720.565C231.793 720.565 228.909 720.223 227.825 722.272C227.348 723.173 227.314 724.243 226.383 729.782C225.198 736.831 224.246 739.881 223.858 742.755C223.651 744.288 223.858 751.29 223.858 751.29C223.858 751.29 263.892 751.29 282.65 750.948C301.407 750.608 296.61 734.362 288.781 733.538C285.535 733.197 276.671 733.778 269.665 732.514C261.602 731.06 259.205 729.1 259.205 729.1C259.205 729.1 255.959 721.929 254.156 720.908C254.156 720.908 248.102 726.028 241.532 726.028C233.236 726.027 232.153 721.929 231.793 720.565Z" fill="#2E3462"/>
<path d="M316.258 720.565C316.258 720.565 313.374 720.223 312.29 722.272C311.813 723.173 311.778 724.243 310.847 729.782C309.662 736.831 308.71 739.881 308.322 742.755C308.116 744.288 308.322 751.29 308.322 751.29C308.322 751.29 348.357 751.29 367.114 750.948C385.872 750.608 381.075 734.362 373.246 733.538C370 733.197 361.136 733.778 354.13 732.514C346.067 731.06 343.67 729.1 343.67 729.1C343.67 729.1 340.423 721.929 338.62 720.908C338.62 720.908 332.566 726.028 325.997 726.028C317.701 726.027 316.618 721.929 316.258 720.565Z" fill="#2E3462"/>
</g>
<path d="M214.051 511.162C217.227 499.553 216.323 485.205 221.535 473.323C222.844 476.091 223.689 481.064 226.323 482.776C227.787 483.881 230.261 483.482 229.856 481.253C226.744 474.6 226.375 467.467 225.737 460.234C225.214 455.179 220.154 449.983 218.877 448.241C215.528 443.11 215.889 443.055 211.271 439.032L202.457 441.369C205.097 447.323 208.258 453.092 210.442 459.223C213.959 475.514 199.892 497.624 214.06 511.174L214.051 511.162Z" fill="#F7B196"/>
<path d="M211.431 491.71C211.359 491.815 210.332 505.657 212.328 509.714C212.328 509.714 209.802 505.523 209.896 498.481C209.429 491.904 211.377 486.471 211.422 491.698L211.431 491.71Z" fill="#E8957C"/>
<path d="M264.352 217.755C271.944 231.233 268.42 248.407 262.809 262.084C261.81 263.86 262.137 266.015 264.407 266.033C278.536 267.61 294.518 272.718 307.939 266.341C294.663 253.262 295.971 226.958 304.924 211.777" fill="#F7B196"/>
<path d="M302.002 216.451C297.389 230.382 283.169 240.164 268.531 238.751C269.312 230.255 265.989 218.335 259.342 210.49C262.157 211.269 264.99 212.067 267.805 212.846" fill="#E8957C"/>
<path d="M259.83 144.893C236.584 169.005 248.207 221.414 281.478 230.037C307.449 228.135 317.982 192.864 309.61 171.342C301.437 150.4 265.951 135.129 253.528 159.893" fill="#F7B196"/>
<path d="M282.661 184.241C281.898 197.882 301.185 200.454 282.788 202.791Z" fill="#E8957C"/>
<path d="M273.471 209.005L294.865 206.378C294.865 206.378 287.963 224.766 273.471 209.005Z" fill="white"/>
<path d="M257.633 162.828C277.101 161.197 266.895 181.342 286.999 182.646C300.765 183.027 284.856 152.121 270.291 152.556C255.726 152.991 249.478 156.85 257.633 162.828Z" fill="#E8957C"/>
<path d="M289.307 148.969C302.455 153.788 295.336 170.292 304.29 177.628C310.755 180.491 318.927 179.766 324.467 184.766C335.545 199.748 348.911 206.432 358.482 185.69C355.086 179.186 346.314 177.266 342.319 171.125C336.235 156.922 343.826 135.618 319.527 135.708C306.342 140.437 299.259 137.049 287.872 130.02C276.231 125.093 261.72 132.14 258.705 144.458C268.984 142.067 280.153 143.698 289.288 148.987L289.307 148.969Z" fill="#232850"/>
<path d="M346.859 193.832C339.727 194.652 330.243 189.936 324.362 182.584C319.403 176.385 311.717 178.538 305.252 175.658C298.314 171.092 300.48 160.299 297.229 153.741C289.456 141.766 276.034 140.592 262.831 143.436C261.615 147.168 256.08 151.097 257.896 154.612C261.959 150.548 274.705 158.389 276.793 164.005C278.391 168.281 277.393 173.697 280.571 176.976C289.143 181.958 303.49 183.009 305.252 195.02C306.432 201.578 302.691 208.425 304.507 214.838C318.655 242.773 368.271 211.577 358.5 185.654C357.774 187.574 357.579 187.553 356.416 189.274C356.416 189.274 353.99 193.012 346.859 193.832Z" fill="#101638"/>
<path d="M273.397 140.437C301.783 141.56 308.702 146.977 317.147 173.154C329.352 181.813 344.098 191.433 337.76 209.059C342.791 203.842 338.505 188.915 332.294 183.263C327.572 178.335 319.69 177.031 316.421 170.636C312.661 161.324 311.79 149.567 301.02 145.256C293.32 141.977 279.608 138.281 273.379 140.437H273.397Z" fill="black"/>
<path d="M317.783 146.596C325.665 149.187 323.685 159.314 327.045 165.31C332.893 176.524 345.769 179.766 347.404 192.248C348.039 179.368 333.038 175.926 328.171 165.853C324.303 159.513 326.555 148.571 318.001 145.853C317.529 145.727 317.311 146.469 317.801 146.596H317.783Z" fill="black"/>
<path d="M229.866 226.034C274.688 213.154 225.889 175.654 261.321 152.14C261.357 152.085 268.059 138.698 268.095 138.643C244.068 133.335 240.145 148.498 237.294 167.9C222.819 187.302 199.246 202.338 225.035 226.288C226.651 226.396 228.268 226.288 229.866 226.034Z" fill="#232850"/>
<path d="M251.343 190.353C250.907 182.853 258.553 176.802 259.061 169.321C259.007 163.161 251.343 159.347 260.006 153.306C249.914 153.306 241.663 176.567 248.092 191.186C254.249 207.78 241.645 225.932 223.811 225.081C239.72 240.805 272.192 230.95 260.006 206.186C257.045 200.878 251.688 196.349 251.343 190.371V190.353Z" fill="#101638"/>
<path d="M259.032 148.444C244.267 155.944 246.392 173.534 240.617 186.541C235.423 194.476 223.909 207.23 229.194 215.654C227.051 204.802 234.551 196.415 240.544 188.353C247.427 173.19 245.212 158.353 259.051 148.426L259.032 148.444Z" fill="black"/>
<path d="M222.202 209.458C219.769 200.925 223.8 192.085 229.303 185.527C229.63 185.128 229.049 184.585 228.722 184.984C223.546 190.726 217.262 204.512 222.202 209.458Z" fill="black"/>
<path d="M263.264 248.751C276.467 253.117 289.979 252.827 303.4 251.07C312.299 256.613 330.061 260.273 332.64 271.142C335.673 285.58 335.854 300.453 336.018 315.218C334.456 359.402 341.176 403.876 344.699 446.992C316.713 471.865 269.203 463.894 235.169 456.937C230.683 456.213 248.107 458.175 248.198 453.556C271.69 405.662 252.777 337.926 227.287 286.106C228.304 267.664 250.878 259.657 263.264 248.751Z" fill="#2E6C9C"/>
<path d="M301.293 248.751C301.293 248.751 329.915 257.465 342.337 268.189C342.337 268.189 339.958 414.383 348.549 463.423C348.549 463.423 303.236 470.234 289.852 463.369C276.467 456.503 292.013 285.037 301.311 248.751H301.293Z" fill="#C7DDEB"/>
<path d="M286.927 369.058L313.461 299.602L300.203 292.7L314.895 290.798L308.993 251.342L301.311 248.751C301.311 248.751 286.31 329.239 286.945 369.058H286.927Z" fill="#A6CADD"/>
<path d="M278.029 368.659L251.495 299.204L264.753 292.301L250.061 290.399L255.963 250.943L263.645 248.353C263.645 248.353 278.646 328.841 278.011 368.659H278.029Z" fill="#A6CADD"/>
<path fill-rule="evenodd" clip-rule="evenodd" d="M263.591 248.61C263.602 248.607 263.608 248.606 263.608 248.606H263.589C263.59 248.607 263.59 248.609 263.591 248.61ZM231.729 464.521C246.985 465.54 268.946 466.359 275.049 463.223C288.433 456.358 272.889 284.906 263.591 248.61C262.739 248.838 230.156 257.605 217.914 268.171C217.914 268.171 218.975 290.152 219.77 319.923C221.921 316.737 223.839 314.623 225.352 313.855V313.837C225.352 313.837 232.363 317.641 232.671 359.235C232.768 371.562 233.302 384.872 233.821 397.81C235.008 427.427 236.117 455.09 231.729 464.521Z" fill="#C7DDEB"/>
<path d="M277.314 352.711L252.489 292.236L265.097 286.311L251.171 284.58L256.962 250.338L264.261 248.129C264.261 248.129 278.095 318.126 277.297 352.711L277.314 352.711Z" fill="#A6CADD"/>
<path d="M342.337 268.171C342.337 268.171 356.811 296.848 377.824 318.479C379.277 319.982 384.336 314.769 386.171 313.736C391.858 313.736 393.637 326.964 386.171 335.142C374.504 347.92 369.522 343.207 339.159 333.732C339.159 333.732 335.654 288.153 342.337 268.153V268.171Z" fill="#C7DDEB"/>
<path d="M399.309 277.084C401.742 279.602 397.729 283.334 395.368 280.761C392.934 278.243 396.948 274.511 399.309 277.084Z" fill="#A6CADD"/>
<path d="M217.915 268.171C217.915 268.171 206.945 297.12 189.42 359.801C185.788 372.826 188.057 385.544 190.545 398.841L206.02 462.26L228.813 460.035L216.001 386.872C209.99 339.3 247.989 326.866 217.915 268.153V268.171Z" fill="#C7DDEB"/>
<path d="M224.588 451.27C224.642 454.748 219.157 454.748 219.194 451.27C219.139 447.792 224.624 447.792 224.588 451.27Z" fill="#A6CADD"/>
<path d="M327.28 436.068C321.505 434.981 299.022 441.466 299.04 430.832L297.787 399.275C297.641 395.778 300.384 392.826 303.889 392.681C309.664 393.768 332.148 387.282 332.129 397.916L333.383 429.474C333.528 432.97 330.786 435.923 327.28 436.068Z" fill="#A6CADD"/>
<path d="M329.319 398.863L300.178 400.087L300.254 401.897L329.395 400.673L329.319 398.863Z" fill="#C7DDEB"/>
<path d="M306.543 356.168L372.864 345.354L410.427 260.843L330.351 279.193L306.543 356.168Z" fill="#2E3462"/>
<path d="M363.17 333.051C375.716 336.991 381.885 336.147 383.911 332.348C387.707 325.232 393.109 316.276 386.61 314.543C369.337 317.544 366.632 309.404 362.57 315.359C358.509 321.314 351.221 329.299 363.17 333.051Z" fill="#F7B196"/>
</svg>
