<svg xmlns="http://www.w3.org/2000/svg" width="204.897" height="215.516" viewBox="0 0 204.897 215.516"><defs><style>.a{fill:#fff;}.b{opacity:0.5;}.c{fill:#ccc;}.d{fill:#89dae8;}.e{fill:#d4f2f9;}</style></defs><g transform="translate(154.507 -228.952)"><g transform="translate(-154.507 228.952)"><g transform="translate(162.952 131.936)"><path class="a" d="M-85.507,287.45c11.7,3.455,19.716,14.181,23.168,25.484.7,2.3,4.319,1.319,3.611-1-3.84-12.573-12.8-24.266-25.785-28.1-2.321-.686-3.306,2.93-.994,3.611Z" transform="translate(86.824 -283.752)"/><path class="a" d="M-70.465,296.138c-4.574.477-6.387,7.854-10.755,10.36h0c2.294,2.333,6.257.9,8.643-.888,3.014,4.317,9.038,12.946,15.649,12.271-.313-3.058-2.046-4.931-3.886-7.829,1.382,3.457,4.24,6.248,7.849,6.39-.313-3.048-2.61-5.383-4.341-7.261a33.212,33.212,0,0,0,4.538,4.16c-.171-6.667-12.17-23.421-19.627-15.977Z" transform="translate(94.712 -267.224)"/></g><g transform="translate(7.176 113.267)"><g transform="translate(9.244 7.288)"><path class="a" d="M-107.524,292c-14.128,4.064-27.071-2.54-36.961-12.426a1.873,1.873,0,0,0-2.648,2.646c10.839,10.834,25.215,17.819,40.606,13.391,2.316-.667,1.329-4.283-1-3.611Z" transform="translate(147.686 -279.025)"/></g><path class="a" d="M-133.994,277.353h0a1.948,1.948,0,0,0-.253.1l-.188.176a6.043,6.043,0,0,0-2.461,4.442c-2.222-1.562-3.847-6.178-6.826-6.07-2.55.091,1.03,5.1,1.36,6.074-2.008.012-4.143-2.54-6.188-1.762-1.931.734,2.559,4.252,2.713,5.275-1.242.007-5.292-.833-5.675.987-.313,1.481,4.459,2.2,5.328,3.06-.6.2-4.673,1.006-4,2.087a1.383,1.383,0,0,0,.679.518l-.017.014.12.031a2.1,2.1,0,0,0,.356.1l2.6.758a23.763,23.763,0,0,0,2.656.77l.063.014v0c2.615.575,5.887.746,8.188-1.069l-.043-.063a8.429,8.429,0,0,0,2.788-7.772c-.2-1.618-.754-3.2-.539-4.842C-133.238,279.52-132.7,276.963-133.994,277.353Z" transform="translate(151.526 -275.998)"/></g><g transform="translate(37.691 49.116)"><path class="a" d="M6.563,320.243c-.207.713-.431,1.425-.674,2.119v.019c-.845,2.66-1.837,5.263-2.9,7.844-.356.862-.732,1.721-1.086,2.567-.373.862-.749,1.7-1.141,2.567C-.4,337.9-1.6,340.413-2.819,342.922a106.664,106.664,0,0,0-8,22.487c-1.909,8.2-3.366,16.516-5.8,24.584-1.967,6.464-4.326,13.145-8.877,18.3a16.916,16.916,0,0,1-4.623,3.686c-4.252,2.307-9.382,2.511-13.333-1.418a8.644,8.644,0,0,1-2.3-3.881,35.586,35.586,0,0,1-.8-5.275,25.135,25.135,0,0,0-1.105-4.964,20.007,20.007,0,0,0-1.892-4.249c-4.025-6.8-12.994-10.673-20.934-9.536a16.163,16.163,0,0,0-9.532,4.7c-4.868,5.034-3.932,11.607-5.41,17.751-.207.787-.431,1.57-.713,2.343-2.172,5.822-7.6,9.734-13.894,7.805a14.327,14.327,0,0,1-3.708-1.76h-.017a17.375,17.375,0,0,1-2.136-1.57,29.03,29.03,0,0,1-7.584-10.769c-3.034-7.324-2.7-15.428-3.014-23.2-.638-15.334-7.4-28.443-13.8-42.053-6.854-14.607-10.935-30.035-7.04-46.1,2.882-11.891,10.184-22.716,21.288-28.275A39.8,39.8,0,0,1-95.3,257.686c5.092.354,10.054,2.564,15.112,3.575a20.58,20.58,0,0,0,6.852.337,14.8,14.8,0,0,0,5.992-2.34,36.713,36.713,0,0,0,3-2.155,42.992,42.992,0,0,1,33.535-6.833c1.218.3,2.436.636,3.652,1.031h.019a63.2,63.2,0,0,1,10.656,4.382c.169.089.337.183.522.277A60.954,60.954,0,0,1-7,261.806l.022.019c.412.315.821.652,1.216,1.011A49.1,49.1,0,0,1,.85,269.462l-.169-.26c.039,0,.45.542,1.519,1.965,1.928,2.771,1.779,2.641,1.05,1.647C12.029,286.878,11.095,304.873,6.563,320.243Z" transform="translate(138.852 -249.353)"/><g class="b" transform="translate(35.292 9.906)"><path class="c" d="M-93.971,255.807a14.8,14.8,0,0,0,5.992-2.34c-10.17,11.59-18.613,22.992-36.215,18.368,11.7.79,17.246-8.2,23.37-16.364A20.579,20.579,0,0,0-93.971,255.807Z" transform="translate(124.193 -253.467)"/></g><g class="b" transform="translate(91.187 13.484)"><path class="c" d="M-46.748,312.36c-.207.713-.431,1.425-.674,2.119v.019c-.845,2.66-1.837,5.263-2.9,7.844-.356.862-.732,1.721-1.086,2.567-.373.862-.749,1.7-1.141,2.567-1.16,2.547-2.359,5.056-3.578,7.565a106.665,106.665,0,0,0-8,22.487c-1.909,8.2-3.366,16.516-5.8,24.584-1.967,6.464-4.326,13.145-8.877,18.3a16.916,16.916,0,0,1-4.623,3.686c-4.252,2.307-9.382,2.511-13.333-1.418a8.644,8.644,0,0,1-2.3-3.881,35.585,35.585,0,0,1-.8-5.275,25.135,25.135,0,0,0-1.105-4.964c7.04,8.128,17.152,4.979,21.1-5.992,7.023-18.729.467-37.92,10.767-56.176,10.769-18.726,20.13-34.643,15.45-56.643a52.891,52.891,0,0,0-5.412-14.79,49.1,49.1,0,0,1,6.609,6.626l-.169-.26c.039,0,.45.542,1.519,1.965,1.928,2.771,1.779,2.641,1.05,1.647C-41.283,279-42.217,296.99-46.748,312.36Z" transform="translate(100.977 -254.953)"/></g><g class="b" transform="translate(32.952 133.292)"><path class="c" d="M-89.757,304.724a16.163,16.163,0,0,0-9.532,4.7c-4.868,5.034-3.932,11.607-5.41,17.751-.207.787-.431,1.57-.713,2.343-2.172,5.822-7.6,9.734-13.894,7.805a14.327,14.327,0,0,1-3.708-1.76h-.017a17.375,17.375,0,0,1-2.136-1.57c8-1.464,13.781-7.119,17.171-14.929C-104.062,310.625-98.595,304.468-89.757,304.724Z" transform="translate(125.165 -304.716)"/></g></g><path class="d" d="M-121.9,255.159l-1.575,3.7-6.253,14.641-11.966,131.794a6.451,6.451,0,0,1-4.165,5.453,6.545,6.545,0,0,1-2.814.376,6.419,6.419,0,0,1-5.807-6.989c.012-.113.026-.26.038-.371l19.728-131.2.058-.395.12-.286,7.981-18.7a2.541,2.541,0,0,1,3.322-1.331A2.533,2.533,0,0,1-121.9,255.159Z" transform="translate(154.507 -197.019)"/><g transform="translate(7.714)"><path class="d" d="M-147.442,248.752c8.388-16.94,27.726-24.461,43.2-16.8s21.225,27.6,12.832,44.543-27.728,24.461-43.2,16.8S-155.837,265.691-147.442,248.752Z" transform="translate(151.303 -228.952)"/><path class="e" d="M-97.749,272.089c-5.212,10.56-15.587,17.385-26.409,17.414a24.443,24.443,0,0,1-11.056-2.552,22.614,22.614,0,0,1-3.265-1.957,25.4,25.4,0,0,1-9.132-11.939c-.284-.729-.53-1.478-.756-2.246s-.417-1.534-.568-2.321a30.108,30.108,0,0,1-.364-9.7,33.166,33.166,0,0,1,3.19-10.644c5.232-10.557,15.606-17.385,26.43-17.414.636,0,1.271.014,1.89.07h.017a24.127,24.127,0,0,1,8.7,2.28c.149.075.282.128.431.2a24.861,24.861,0,0,1,3.282,1.957A25.381,25.381,0,0,1-96.247,247.2c.284.732.53,1.459.756,2.227A31.3,31.3,0,0,1-97.749,272.089Z" transform="translate(153.797 -226.449)"/></g></g></g></svg>