<svg xmlns="http://www.w3.org/2000/svg" xmlns:xlink="http://www.w3.org/1999/xlink" width="529" height="930" viewBox="0 0 529 930">
  <defs>
    <clipPath id="clip-path">
      <rect id="Rechteck_602" data-name="Rechteck 602" width="529" height="930" transform="translate(121 439.217)" fill="none"/>
    </clipPath>
  </defs>
  <g id="Gruppe_maskieren_5" data-name="Gruppe maskieren 5" transform="translate(-121 -439.217)" clip-path="url(#clip-path)">
    <g id="Gruppe_1642" data-name="Gruppe 1642" transform="translate(-56 429.565)">
      <rect id="Rechteck_586" data-name="Rechteck 586" width="892" height="887" transform="translate(0 -0.348)" fill="#fff"/>
      <ellipse id="Ellipse_60" data-name="Ellipse 60" cx="286" cy="16" rx="286" ry="16" transform="translate(107 633.652)" fill="#e5e5e5"/>
      <g id="Gruppe_1640" data-name="Gruppe 1640" transform="translate(47.741 102.976)">
        <g id="Gruppe_1634" data-name="Gruppe 1634" transform="translate(249.404 0)">
          <path id="Pfad_1639" data-name="Pfad 1639" d="M1471.112,949.821l-2.419.176c.019.254,1.863,25.736,1.395,53.345-.616,36.31-4.891,59.726-12.363,67.718a9.978,9.978,0,0,1-3.235,2.4q.494,1.1.972,2.2a12.417,12.417,0,0,0,4.041-2.957c8-8.556,12.376-31.879,13.011-69.32C1472.983,975.666,1471.13,950.076,1471.112,949.821Z" transform="translate(-1102.837 -632.127)" fill="#657fa5"/>
          <path id="Pfad_1640" data-name="Pfad 1640" d="M1503.695,958.142l-2.419.176c.019.254,1.863,25.736,1.395,53.345-.616,36.31-4.891,59.727-12.362,67.719a9.99,9.99,0,0,1-3.236,2.4q.494,1.1.972,2.2a12.412,12.412,0,0,0,4.041-2.958c8-8.556,12.376-31.879,13.011-69.32C1505.566,983.987,1503.714,958.4,1503.695,958.142Z" transform="translate(-1120.882 -636.757)" fill="#657fa5"/>
          <path id="Pfad_1641" data-name="Pfad 1641" d="M1447.531,921.091l-2.42.176c.019.254,1.863,25.736,1.395,53.345-.616,36.31-4.891,59.726-12.362,67.719a9.981,9.981,0,0,1-3.235,2.395q.493,1.1.972,2.205a12.417,12.417,0,0,0,4.04-2.958c8-8.556,12.376-31.879,13.011-69.32C1449.4,946.936,1447.55,921.346,1447.531,921.091Z" transform="translate(-1089.777 -616.143)" fill="#657fa5"/>
          <path id="Pfad_1642" data-name="Pfad 1642" d="M1287.019,922.257h34.161l10.09-27.412h7.379l-13.83,36.646h-37.8Z" transform="translate(-1010.085 -601.541)" fill="#8c8f8f"/>
          <g id="Gruppe_1624" data-name="Gruppe 1624" transform="translate(270.867 278.896)">
            <path id="Pfad_1643" data-name="Pfad 1643" d="M1279.491,891.184a6.027,6.027,0,0,1-2.452-11.549l38.184-16.752a6.079,6.079,0,0,1,8,3.083,6.017,6.017,0,0,1-3.1,7.952l-38.184,16.752A6.088,6.088,0,0,1,1279.491,891.184Z" transform="translate(-1273.422 -862.368)" fill="#8c8f8f"/>
          </g>
          <rect id="Rechteck_587" data-name="Rechteck 587" width="19.939" height="75.567" transform="translate(262.241 279.318)" fill="#717e83"/>
          <g id="Gruppe_1625" data-name="Gruppe 1625" transform="translate(212.04 133.204)">
            <path id="Pfad_1644" data-name="Pfad 1644" d="M1146.422,560.978a4.824,4.824,0,0,1-3.361-8.3l18.181-17.365a4.873,4.873,0,0,1,5.425-.887l11.385,5.32a4.813,4.813,0,0,1,2.327,6.419,4.864,4.864,0,0,1-6.455,2.314l-8.365-3.909-15.776,15.067A4.85,4.85,0,0,1,1146.422,560.978Z" transform="translate(-1141.57 -533.964)" fill="#8c8f8f"/>
          </g>
          <path id="Pfad_1645" data-name="Pfad 1645" d="M1151.462,565.532l15.776-15.067,8.365,3.909a4.816,4.816,0,0,0,6.712-3l-15.816-6.8-21.9,20.827a4.871,4.871,0,0,0,6.86.137Z" transform="translate(-931.21 -406.66)" fill="#797c7b"/>
          <g id="Gruppe_1626" data-name="Gruppe 1626" transform="translate(44.457 5.508)">
            <path id="Pfad_1646" data-name="Pfad 1646" d="M938.395,602.739a7.257,7.257,0,0,1-7.278-7.237V291.834L815.491,261.373,778.164,295.5a7.307,7.307,0,0,1-10.284-.429,7.208,7.208,0,0,1,.432-10.225l40.263-36.807a7.306,7.306,0,0,1,6.79-1.668l124.894,32.9a7.243,7.243,0,0,1,5.414,7V595.5A7.257,7.257,0,0,1,938.395,602.739Z" transform="translate(-765.96 -246.125)" fill="#b4b6b6"/>
          </g>
          <rect id="Rechteck_588" data-name="Rechteck 588" width="91.561" height="285.152" transform="translate(177.957 256.688)" fill="#d7dbdb"/>
          <g id="Gruppe_1627" data-name="Gruppe 1627" transform="translate(240.656 96.712)">
            <path id="Pfad_1647" data-name="Pfad 1647" d="M1252,564.335l-7.165,2.523-29.89-27.281-9.237-87.87h7.177l39.128,24.7Z" transform="translate(-1205.708 -451.707)" fill="#6b8189"/>
            <path id="Pfad_1648" data-name="Pfad 1648" d="M1244.835,566.858l-39.128-27.281v-87.87l39.128,24.91Z" transform="translate(-1205.708 -451.707)" fill="#93b0b9"/>
            <path id="Pfad_1649" data-name="Pfad 1649" d="M1242.2,568.359,1211.7,547.7V485.545l30.495,22.435Z" transform="translate(-1209.028 -470.533)" fill="#435d77"/>
            <path id="Pfad_1650" data-name="Pfad 1650" d="M1214.748,487.785v56.146l27.45,24.427L1211.7,547.7V485.545Z" transform="translate(-1209.028 -470.533)" fill="#395067"/>
            <path id="Pfad_1651" data-name="Pfad 1651" d="M1212.944,565.122l23.2-39.044,6.053,4.453L1215.765,573l-4.062-2.752Z" transform="translate(-1209.028 -493.084)" fill="#496480"/>
            <path id="Pfad_1652" data-name="Pfad 1652" d="M1211.7,536.437l15.247-25.606,5.657,4.162-20.9,35.918Z" transform="translate(-1209.028 -484.601)" fill="#496480"/>
            <path id="Pfad_1653" data-name="Pfad 1653" d="M1237.982,607.174l18.77-29v14.049l-10.955,20.25Z" transform="translate(-1223.583 -522.066)" fill="#496480"/>
          </g>
          <path id="Pfad_1654" data-name="Pfad 1654" d="M1353.542,873.006l5.036-43.311,43.163,3.284,5.777,47.815Z" transform="translate(-1046.928 -565.294)" fill="#829095"/>
          <path id="Pfad_1655" data-name="Pfad 1655" d="M1365.783,874.773l4.031-31.672,32.9-2.078-.972-8.043-43.163-3.284-5.036,43.311Z" transform="translate(-1046.928 -565.294)" fill="#69767a"/>
          <path id="Pfad_1656" data-name="Pfad 1656" d="M1424.421,927.293,1390.1,896.86l1.759-27.833,34.318,30.433Z" transform="translate(-1067.177 -587.177)" fill="#69767a"/>
          <path id="Pfad_1657" data-name="Pfad 1657" d="M1394.044,867.962s22.485-3.065,29.755,2.448,34.595,28.519,34.595,28.519l-30.032-.535Z" transform="translate(-1069.36 -586.111)" fill="#5b676b"/>
          <path id="Pfad_1658" data-name="Pfad 1658" d="M1467.021,965.459l41.217-.52-9.427-26.779-30.032-.534Z" transform="translate(-1109.777 -625.342)" fill="#6c7a7e"/>
          <g id="Gruppe_1628" data-name="Gruppe 1628" transform="translate(324.06 278.97)">
            <path id="Pfad_1659" data-name="Pfad 1659" d="M1409.751,1011.753a7.4,7.4,0,0,1-2.816.547,2.316,2.316,0,0,1-1.62-.844c-3.822-3.909-8.649-20.855-9.937-79.387-.775-35.213.164-69.128.173-69.466l-2.425-.068c-.009.339-.95,34.306-.173,69.579.456,20.733,1.407,37.86,2.827,50.9,1.825,16.77,4.375,26.622,7.8,30.119a4.656,4.656,0,0,0,3.36,1.575,9.814,9.814,0,0,0,3.8-.756Q1410.25,1012.851,1409.751,1011.753Z" transform="translate(-1392.645 -862.534)" fill="#657fa5"/>
          </g>
          <g id="Gruppe_1629" data-name="Gruppe 1629" transform="translate(322.454 270.904)">
            <rect id="Rechteck_589" data-name="Rechteck 589" width="2.779" height="8.1" transform="translate(1.57)" fill="#2a405a"/>
            <rect id="Rechteck_590" data-name="Rechteck 590" width="6.109" height="24.043" transform="translate(0 5.572)" fill="#4b6c92"/>
          </g>
          <g id="Gruppe_1630" data-name="Gruppe 1630" transform="translate(334.581 291.716)">
            <path id="Pfad_1660" data-name="Pfad 1660" d="M1433.332,1040.484a7.413,7.413,0,0,1-2.817.546,2.316,2.316,0,0,1-1.621-.844c-3.822-3.909-8.649-20.855-9.937-79.387-.775-35.213.164-69.128.174-69.466l-2.425-.068c-.01.339-.95,34.306-.174,69.579.456,20.733,1.407,37.86,2.827,50.9,1.826,16.77,4.375,26.622,7.8,30.12a4.656,4.656,0,0,0,3.36,1.575,9.819,9.819,0,0,0,3.8-.756Q1433.83,1041.582,1433.332,1040.484Z" transform="translate(-1416.226 -891.265)" fill="#657fa5"/>
          </g>
          <g id="Gruppe_1631" data-name="Gruppe 1631" transform="translate(332.975 283.649)">
            <rect id="Rechteck_591" data-name="Rechteck 591" width="2.893" height="8.1" transform="translate(1.634)" fill="#2a405a"/>
            <rect id="Rechteck_592" data-name="Rechteck 592" width="6.36" height="24.043" transform="translate(0 5.572)" fill="#4b6c92"/>
          </g>
          <g id="Gruppe_1632" data-name="Gruppe 1632" transform="translate(349.118 295.407)">
            <path id="Pfad_1661" data-name="Pfad 1661" d="M1465.915,1048.8a7.4,7.4,0,0,1-2.817.547,2.316,2.316,0,0,1-1.62-.844c-3.822-3.909-8.649-20.854-9.937-79.387-.775-35.213.164-69.128.173-69.466l-2.425-.068c-.01.339-.95,34.307-.174,69.579.456,20.733,1.407,37.86,2.827,50.9,1.826,16.77,4.376,26.622,7.8,30.12a4.657,4.657,0,0,0,3.36,1.575,9.812,9.812,0,0,0,3.8-.756Q1466.413,1049.9,1465.915,1048.8Z" transform="translate(-1448.809 -899.585)" fill="#657fa5"/>
          </g>
          <g id="Gruppe_1633" data-name="Gruppe 1633" transform="translate(347.512 287.341)">
            <rect id="Rechteck_593" data-name="Rechteck 593" width="2.346" height="8.1" transform="translate(1.325)" fill="#2a405a"/>
            <rect id="Rechteck_594" data-name="Rechteck 594" width="5.157" height="24.043" transform="translate(0 5.572)" fill="#4b6c92"/>
          </g>
          <rect id="Rechteck_595" data-name="Rechteck 595" width="52.934" height="52.635" transform="translate(198.393 287.058)" fill="#4a7499"/>
          <path id="Pfad_1662" data-name="Pfad 1662" d="M756.509,330.217s9.79-11.719,19.209-4.895,0,20.815,0,20.815Z" transform="translate(-716.269 -283.492)" fill="#3b3a4f"/>
          <path id="Pfad_1663" data-name="Pfad 1663" d="M666.318,325.732l43.37-6.51,19.7,28.1L710.2,382.413Z" transform="translate(-666.318 -281.285)" fill="#92b8e9"/>
          <path id="Pfad_2208" data-name="Pfad 2208" d="M11.138.011a11.2,11.2,0,0,1,.023,22.394A11.2,11.2,0,0,1,11.138.011Z" transform="matrix(0.184, -0.983, 0.983, 0.184, 82.525, 21.892)" fill="#3b3a4f"/>
          <rect id="Rechteck_596" data-name="Rechteck 596" width="91.561" height="15.805" transform="translate(177.957 256.688)" fill="#4a7499"/>
        </g>
        <path id="Pfad_2209" data-name="Pfad 2209" d="M0,0,13.156.011l.051,58.716A6.578,6.578,0,0,1,.051,58.716Z" transform="translate(215.75 308.66) rotate(-8.957)" fill="#3e4142"/>
        <path id="Pfad_2210" data-name="Pfad 2210" d="M0,0,13.47-.01l-.041,52.495A6.735,6.735,0,0,1-.041,52.5Z" transform="translate(305.766 311.809) rotate(7.959)" fill="#3e4142"/>
        <g id="Gruppe_1635" data-name="Gruppe 1635" transform="translate(205.026 297.15)">
          <path id="Pfad_1664" data-name="Pfad 1664" d="M573.062,927.523A7.407,7.407,0,0,1,570.4,913.9c1.326-.812,28.845-17.043,86.674-7.251a286.7,286.7,0,0,1,31.968,7.4,7.417,7.417,0,0,1-3.332,14.434,7.607,7.607,0,0,1-.845-.194c-38.758-11.24-66.125-10.924-82.258-8.68-16.468,2.29-24.313,6.874-24.387,6.92A7.467,7.467,0,0,1,573.062,927.523Z" transform="translate(-566.852 -903.513)" fill="#4a7499"/>
        </g>
        <path id="Pfad_1665" data-name="Pfad 1665" d="M753.678,1201.907l-93.89-91.142-16.237-.971-38.77,2.7,65.836,103.257,71.1-.712-2.291-2.456Z" transform="translate(-382.832 -721.13)" fill="#d7dbdb"/>
        <path id="Pfad_1666" data-name="Pfad 1666" d="M431.511,969.2s11.279,8.79,17.108,18.836l-20.8,28.345s-2.247-18.229-4.738-24.562C421.355,987.43,410.95,973.5,410.95,973.5Z" transform="translate(-275.481 -642.909)" fill="#d7dbdb"/>
        <path id="Pfad_1667" data-name="Pfad 1667" d="M443.524,975.44l17.153,20.689,5.94-8.095c-5.829-10.046-17.108-18.836-17.108-18.836l-5.677,1.186A14.108,14.108,0,0,0,443.524,975.44Z" transform="translate(-293.479 -642.909)" fill="#606264"/>
        <path id="Pfad_1668" data-name="Pfad 1668" d="M577.731,1044.468c-25.524-2.181-57.73,4.864-85.436,5.066-14.581-2.608-28.027-5.375-38.067-7.546A39.288,39.288,0,0,1,443.35,1033l-6.867,4.979s-16.16,17.857-13.3,33.3,16.372,31.827,45.044,31.764c24.305-.054,96.2-38.575,122.156-28.508,12.475,4.837,25.705,6.96,38.325,7.661,32.3,7.721,71.61,12.561,80.72-3.407C709.431,1078.794,621.784,1048.232,577.731,1044.468Z" transform="translate(-282.07 -678.407)" fill="#d7dbdb"/>
        <g id="Gruppe_1636" data-name="Gruppe 1636" transform="translate(154.597 339.703)">
          <path id="Pfad_1669" data-name="Pfad 1669" d="M582.914,1008.73s-42.259,3.806-55.5,3.164c-11.791-.571-44.627-8.014-44.627-8.014l-4.038-4.448q-1.759,1.572-3.574,3.1a192.162,192.162,0,0,1-21.353,15.533s9.222,18.194,31.328,19.179c38.858,1.732,96.812-14.176,126.653-1.806l93.817,23.713c22.817,9.237,21.719,1.16,20.7-4.062h0S647.449,1009.61,582.914,1008.73Z" transform="translate(-453.823 -999.432)" fill="#2b6299"/>
        </g>
        <g id="Gruppe_1637" data-name="Gruppe 1637" transform="translate(0 176.359)">
          <path id="Pfad_1670" data-name="Pfad 1670" d="M306.851,832.828c-.919-12-5.515-34.134-24.4-61.9A132.393,132.393,0,0,0,274.121,760a144.839,144.839,0,0,0-58.949-45.568c-8.733-4.557-14.476-6.823-14.476-6.823a3.6,3.6,0,0,0-.685,2.07c-1.948,1.4-5.537,5.855,7.05,15.484,5.991,4.583,35.429,33.6,51.467,49.941,26.186,26.683,24.483,57.875,26.186,64.313,3.681,13.912,20.367,6.783,22.151,3.234C306.866,842.646,308.938,842.772,306.851,832.828Z" transform="translate(-157.544 -673.727)" fill="#d7dbdb"/>
          <path id="Pfad_1671" data-name="Pfad 1671" d="M203,704.949s41.722,23.8,63.613,50.5c19.357,23.609,46.866,53.291,42.867,83.927,0,0,7.135,7.155,12.3-14.214,1.693-7-3.717-22.98-7.249-33.069-5.888-16.815-11.581-33.4-30.622-48.274-11.475-8.965-45.2-33.112-59.049-38.383C208.693,699.282,201.754,701.659,203,704.949Z" transform="translate(-160.233 -670.395)" fill="#2b6299"/>
          <path id="Pfad_1672" data-name="Pfad 1672" d="M148.691,664.689,108,640.849c-.6-.353-.844-.933-.574-1.378l.207-.342c5.339-8.814,28.732-10.734,40.144-3.253,17.089,11.2,8.425,19.769,3.085,28.582h0A1.671,1.671,0,0,1,148.691,664.689Z" transform="translate(-107.319 -631.24)" fill="#2b6299"/>
          <path id="Pfad_1673" data-name="Pfad 1673" d="M147.349,667.518c3.616-6.344,8.947-15.67-11.7-23.266-10.529-3.872-19.675-3.684-24.559,2.869a5.984,5.984,0,0,0-2.233-.457,17.98,17.98,0,0,0,4.226,5.948c4.248,3.947,17.036,11.655,24.6,16.721,8.437,5.648,7.682,8.863,11.8,10.531l2.235-9.589S150.037,669.2,147.349,667.518Z" transform="translate(-108.168 -637.056)" fill="#d7dbdb"/>
        </g>
        <path id="Pfad_1674" data-name="Pfad 1674" d="M685.469,1354.859s.592-41.237,41.177-42.638,47.54,0,47.54,0l17.171-7.5s38.674,2.917,49.492,22.4c8.743,15.742,6.979,27.744,6.979,27.744Z" transform="translate(-427.52 -829.579)" fill="#d7dbdb"/>
        <g id="Gruppe_1639" data-name="Gruppe 1639" transform="translate(169.858 316.73)">
          <path id="Pfad_2211" data-name="Pfad 2211" d="M0,0,13.152.019l.085,58.731A6.576,6.576,0,0,1,.085,58.731Z" transform="translate(11.361 16.962) rotate(-15.331)" fill="#1f2222"/>
          <path id="Rechteck_600" data-name="Rechteck 600" d="M0,0H13.462a0,0,0,0,1,0,0V52.454a6.731,6.731,0,0,1-6.731,6.731h0A6.731,6.731,0,0,1,0,52.454V0A0,0,0,0,1,0,0Z" transform="translate(99.935 10.688) rotate(1.585)" fill="#1f2222"/>
          <g id="Gruppe_1638" data-name="Gruppe 1638" transform="translate(0)">
            <path id="Pfad_1675" data-name="Pfad 1675" d="M495.063,978.065a7.412,7.412,0,0,1-4.165-13.25c1.227-.953,26.764-20.122,85.329-16.773a286.838,286.838,0,0,1,32.6,3.828,7.415,7.415,0,0,1-1.7,14.712,7.548,7.548,0,0,1-.862-.1c-39.774-6.892-66.936-3.558-82.719.454-16.11,4.095-23.395,9.516-23.464,9.569A7.459,7.459,0,0,1,495.063,978.065Z" transform="translate(-488.029 -947.649)" fill="#5585af"/>
          </g>
        </g>
        <rect id="Rechteck_601" data-name="Rechteck 601" width="390.419" height="21.866" rx="10.933" transform="translate(138.768 519.975)" fill="#939393"/>
        <circle id="Ellipse_62" data-name="Ellipse 62" cx="31.5" cy="31.5" r="31.5" transform="translate(218.259 372.676)" fill="#606264"/>
      </g>
      <g id="Gruppe_1641" data-name="Gruppe 1641" transform="translate(254.398 184.423)">
        <path id="Pfad_1676" data-name="Pfad 1676" d="M1041.458,1567.824l7.967,63.987H1085.9l3.971-68.253Z" transform="translate(-845.754 -855.685)" fill="#e2e2e2"/>
        <path id="Pfad_1677" data-name="Pfad 1677" d="M1044.843,1657.534s-4.9-.61-6.741,3.047c-.81,1.609-.869,3.518-2.451,13.407-2.014,12.581-3.632,18.026-4.29,23.157-.352,2.737,0,15.235,0,15.235s68.028,0,99.9-.609,23.722-29.609,10.419-31.079c-5.516-.609-20.578.427-32.482-1.828-13.7-2.595-17.773-6.094-17.773-6.094s-5.516-12.8-8.58-14.625c0,0-10.288,9.141-21.45,9.141C1047.295,1667.284,1045.456,1659.969,1044.843,1657.534Z" transform="translate(-841.784 -892.378)" fill="#691300"/>
        <path id="Pfad_1680" data-name="Pfad 1680" d="M853.458,1567.824v60.331l17.16,6.094,19.318-6.094,11.938-64.6Z" transform="translate(-772.973 -855.685)" fill="#e2e2e2"/>
        <path id="Pfad_1681" data-name="Pfad 1681" d="M1046.161,655.776c7.4,7.329,13.73,33.564,24.048,53.229,10.849,20.678,17.51,29.345,20.746,32.828A123.526,123.526,0,0,1,1098,776.122c1.445,22.52-8.674,25.071-13.766,29.247-29.584-4.057-56.624-69.991-56.624-69.991l-10.4-68.535s8.754-31.079,28.956-11.066" transform="translate(-836.365 -498.48)" fill="#ffb0a0"/>
        <path id="Pfad_1682" data-name="Pfad 1682" d="M1003.459,718.373l40.449,71.3,36.772-71.909s-27.272-63.61-48.417-65.206Z" transform="translate(-831.043 -499.847)" fill="#f0f2f2"/>
        <path id="Pfad_1683" data-name="Pfad 1683" d="M1094.7,750.574l105.388-24.151,31.336-101.308-105.389,24.151Z" transform="translate(-866.366 -489.128)" fill="#2e3462"/>
        <path id="Pfad_1684" data-name="Pfad 1684" d="M1111.971,800.687c.809-19.484,9.041-27.037,15.653-35.454.022.015,53.3-56.265,53.3-56.265l28.671,13.7a637.291,637.291,0,0,1-29.634,58.765c-16.03,27.914-33.777,45.359-59.06,47.332C1120.874,828.772,1111.168,820.012,1111.971,800.687Z" transform="translate(-873.034 -521.88)" fill="#ffb0a0"/>
        <path id="Pfad_1685" data-name="Pfad 1685" d="M1249.953,685.947s19.327-44.784,17.085-52.215-13.316-17-17.873-18.267c-4.671-1.3-8.221-.185-7.848,3.716,0,0-5.542-2.044-8.407-.31s-3.176,5.511-3.176,5.511a6.187,6.187,0,0,0-6.912-.8c-3.986,1.981-1.779,7.15-1.779,7.15s-2.526-.966-4.457,2.875c-1.807,3.594,3,11.773,3,11.773s-1.838,15.518-.468,19.211c.945,2.55,2.168,7.657,2.168,7.657Z" transform="translate(-913.394 -485.155)" fill="#ffb0a0"/>
        <path id="Pfad_1686" data-name="Pfad 1686" d="M957.806,968.719c21.17,138.72,19.107,118.494,26.679,183.205,6.234,53.281,19.073,226.338,19.073,226.338l62.512-2.437-9.193-232.79-15-186.476Z" transform="translate(-813.369 -618.59)" fill="#f0f2f2"/>
        <path id="Pfad_1687" data-name="Pfad 1687" d="M846.264,965.433c1.7,140.163,2.1,120.058.613,185.257-1.226,53.627-10.419,231.571-10.419,231.571h60.061l19.844-233.38,15.089-188.323Z" transform="translate(-766.391 -620.152)" fill="#f0f2f2"/>
        <path id="Pfad_1688" data-name="Pfad 1688" d="M899.229,623.558s-29.565,4.376-44.126,15.235c-4.9,3.656-5.047,82.695-4.9,136.505.185,68.737-6.742,103.6-6.742,103.6s46.82,8.564,93.768,8.532c23.268-.016,58.5-6.32,71.093-10.36,0,0-6.249-44.866-11.031-107.254-4.471-58.327-11.032-114.567-17.16-122.489-8.521-11.014-36.159-18.891-36.159-18.891Z" transform="translate(-769.101 -488.519)" fill="#f0f2f2"/>
        <path id="Pfad_1689" data-name="Pfad 1689" d="M930.581,550.558s4.082,35.727-6.137,48.358c0,0,34.942,18.066,48.426,29.645l7.085-19.1s-9.021-18.658-.7-42.1Z" transform="translate(-800.454 -460.005)" fill="#ffb0a0"/>
        <path id="Pfad_1690" data-name="Pfad 1690" d="M951.458,577.558s11.946,24.62,34.934,26.2a64.827,64.827,0,0,1,2.312-22.737Z" transform="translate(-810.912 -470.552)" fill="#ee8b7b"/>
        <path id="Pfad_1691" data-name="Pfad 1691" d="M929.676,497.964c2.09,28.2,28.77,41.055,48.92,39.177,20.488-1.91,27.213-21.787,28.8-44.218,1.438-20.358,2.868-59.149-38.5-60.876C918.7,429.952,928.089,476.552,929.676,497.964Z" transform="translate(-801.814 -413.688)" fill="#ffb0a0"/>
        <path id="Pfad_1692" data-name="Pfad 1692" d="M919.714,497.932s-14.382-1.711-16.353,10.1c-1.55,9.293,8.9,14.469,17.87,13.293C921.231,521.323,921.669,505.062,919.714,497.932Z" transform="translate(-792.232 -439.416)" fill="#ffb0a0"/>
        <path id="Pfad_1693" data-name="Pfad 1693" d="M899.651,467.166s-9.3-4.515-8.817-14.389c.617-12.72,7.117-13.888,7.117-13.888s-2.877-9.811,2.24-17.245c6.262-9.1,17.187-11.733,22.4-7.054,0,0,6.067-13.876,20.316-12.535,12.177,1.146,10.512,7.449,10.512,7.449s12.116-11.6,23.306-4.126c11.724,7.833,8.015,16.9,8.015,16.9s12.71-.045,15.229,8.284c1.757,5.809-4.008,12.579-4.008,12.579s8.517,15.795-3.013,17.683c0,0-.613-23.157-11.723-22.122-12.327,1.148-12.675,5.006-21.985.793s-26.967-2.438-31.516,12.7c-3.941,13.115-3.476,19.327-8.964,20.373,0,0-1.826-10.931-7.043-11.46C902.854,460.219,899.651,467.166,899.651,467.166Z" transform="translate(-787.436 -401.964)" fill="#740019"/>
        <path id="Pfad_1694" data-name="Pfad 1694" d="M808.133,657.558s-90.811,76.484-85.8,118.833c3.677,31.079,65.577,72.518,65.577,72.518l9.806-37.173-27.579-42.658S812.7,721.02,816.1,711.794C822.842,693.513,808.133,657.558,808.133,657.558Z" transform="translate(-722.132 -501.8)" fill="#ffb0a0"/>
        <path id="Pfad_1695" data-name="Pfad 1695" d="M830.223,903.7l9.649-11.146.334,10.6a74.467,74.467,0,0,1,9.027-.866,62.4,62.4,0,0,1,15.114-.887c10.872.7,16.824,3.849,18.684,5.988,1.209,1.391.256,5.677-4.051,4.945-2.938-.5-14.266-1.893-14.266-1.893l-10.691,1.891q-.016.371-.034.751a62.492,62.492,0,0,1,14.327-.748c10.872.7,16.824,3.849,18.684,5.987,1.208,1.391.254,5.678-4.051,4.947-2.938-.5-14.267-1.894-14.267-1.894l-15.9,2.812c-.028.167-.056.336-.084.5a62.292,62.292,0,0,1,10.164-.189c10.871.7,16.823,3.849,18.683,5.988,1.209,1.391.256,5.677-4.051,4.946-2.938-.5-14.266-1.894-14.266-1.894L849.884,935.9c-.051.145-.1.288-.156.432.852.143,1.719.306,2.6.494,10.652,2.274,16.076,6.256,17.6,8.642.992,1.551-.583,5.653-4.735,4.3-2.833-.922-13.833-3.95-13.833-3.95l-9.006.261c-12.137,3.957-25.9-10.866-25.9-10.866Z" transform="translate(-758.649 -593.591)" fill="#ffb0a0"/>
        <path id="Pfad_1696" data-name="Pfad 1696" d="M823.776,644.558s-7.967,3.047-15.934,11.578c-5.307,5.684-52.707,53.627-56.384,60.33,0,0,41.675,41.439,47.191,39.611,0,0,36.159-42.048,37.385-58.5S823.776,644.558,823.776,644.558Z" transform="translate(-733.485 -496.722)" fill="#f0f2f2"/>
        <path id="Pfad_1702" data-name="Pfad 1702" d="M844.842,1657.534s-4.9-.61-6.742,3.047c-.809,1.609-.868,3.518-2.451,13.407-2.013,12.581-3.631,18.026-4.29,23.157-.351,2.737,0,15.235,0,15.235s68.028,0,99.9-.609,23.722-29.609,10.419-31.079c-5.516-.609-20.578.427-32.483-1.828-13.7-2.595-17.773-6.094-17.773-6.094s-5.516-12.8-8.58-14.625c0,0-10.287,9.141-21.45,9.141C847.294,1667.284,845.455,1659.969,844.842,1657.534Z" transform="translate(-764.357 -892.378)" fill="#691300"/>
        <path id="Pfad_1708" data-name="Pfad 1708" d="M955.922,540.292s19-10.36,40.45-9.75,21.45,8.532,21.45,8.532-.6,41.809-33.095,40.22C947.342,577.465,955.922,540.292,955.922,540.292Z" transform="translate(-812.311 -452.177)" fill="#e7eef2"/>
        <path id="Pfad_1709" data-name="Pfad 1709" d="M945.8,530.747s-9.193-31.079-20.837-31.689" transform="translate(-800.653 -439.889)" fill="none" stroke="#e7eef2" stroke-linecap="round" stroke-linejoin="round" stroke-width="3"/>
        <path id="Pfad_1710" data-name="Pfad 1710" d="M928.958,537.058s3.064,12.8,18.386,10.36" transform="translate(-802.201 -454.732)" fill="none" stroke="#e7eef2" stroke-linecap="round" stroke-linejoin="round" stroke-width="3"/>
        <path id="Pfad_1711" data-name="Pfad 1711" d="M988.958,544.7s24.515-5.485,35.547,1.219" transform="translate(-825.429 -456.893)" fill="none" stroke="#d9dee0" stroke-linecap="round" stroke-linejoin="round" stroke-width="3"/>
        <path id="Pfad_1712" data-name="Pfad 1712" d="M985.958,561.669s25.128-4.875,35.547,0" transform="translate(-824.268 -463.499)" fill="none" stroke="#d9dee0" stroke-linecap="round" stroke-linejoin="round" stroke-width="3"/>
        <path id="Pfad_1713" data-name="Pfad 1713" d="M981.958,581.669s25.128-4.875,35.547,0" transform="translate(-822.719 -471.311)" fill="none" stroke="#d9dee0" stroke-linecap="round" stroke-linejoin="round" stroke-width="3"/>
      </g>
    </g>
  </g>
</svg>
