<svg xmlns="http://www.w3.org/2000/svg" xmlns:xlink="http://www.w3.org/1999/xlink" width="243.926" height="511.85" viewBox="0 0 243.926 511.85">
  <defs>
    <clipPath id="clip-path">
      <circle id="Ellipse_109" data-name="Ellipse 109" cx="109" cy="109" r="109" transform="translate(225 492)" fill="#fff" stroke="#707070" stroke-width="1"/>
    </clipPath>
  </defs>
  <g id="Gruppe_2180" data-name="Gruppe 2180" transform="translate(-225 -487)">
    <g id="Gruppe_1376" data-name="Gruppe 1376" transform="matrix(0.985, 0.174, -0.174, 0.985, 342.846, 127.883)">
      <g id="Gruppe_1375" data-name="Gruppe 1375" transform="translate(59.937 738.804)">
        <g id="Gruppe_1374" data-name="Gruppe 1374" transform="translate(2.067)">
          <path id="Pfad_1408" data-name="Pfad 1408" d="M73.655,643.824A34.564,34.564,0,0,0,6.49,648.33a34.493,34.493,0,0,0-35.217-9.37,34.548,34.548,0,0,0-22.965,43.158,34.6,34.6,0,0,0,5.585,10.845c18.274,31.892,77.967,38.412,77.967,38.412S77.753,692.6,75.085,655.94h0A34.623,34.623,0,0,0,73.655,643.824Z" transform="translate(53.212 -619.351)" fill="#f15757"/>
          <path id="Pfad_1409" data-name="Pfad 1409" d="M72.833,654.4a34.45,34.45,0,0,0-13.809-29.715A34.553,34.553,0,0,0,6.49,648.33c-.686-.728-1.406-1.42-2.149-2.081-.032.18-.068.362-.1.544a34.66,34.66,0,0,0-4.529-4.026,34.361,34.361,0,0,0-28.44-3.806,34.548,34.548,0,0,0-22.965,43.159,34.6,34.6,0,0,0,5.585,10.845c3.831,6.692,9.492,12.261,16.039,16.892,24.607,16.151,59.678,19.981,59.678,19.981S75.5,691.064,72.833,654.4Z" transform="translate(53.212 -619.35)" fill="#f46969"/>
        </g>
        <path id="Pfad_1410" data-name="Pfad 1410" d="M60.793,671.283,44.681,643.356a1.893,1.893,0,0,0-2.244-.851A1.968,1.968,0,0,0,41,644.456l1.593,43.159L28.613,664.5a1.979,1.979,0,0,0-2.291-.831,1.9,1.9,0,0,0-1.34,1.447l-3.69,18.233L6.623,687.832l-26.415-37.168a1.982,1.982,0,0,0-2.22-.785,2.023,2.023,0,0,0-1.429,1.886l-1.938,45.843-29.683,9.068,1.162,3.807,31.03-9.48a2.007,2.007,0,0,0,1.407-1.906l1.752-41.452L4.174,691.252a2.011,2.011,0,0,0,2.24.806l17.174-5.249a1.97,1.97,0,0,0,1.362-1.466l2.91-14.389,15.311,25.323a1.932,1.932,0,0,0,2.254.833,1.956,1.956,0,0,0,1.425-1.947l-1.58-42.825,12.894,22.351a2,2,0,0,0,2.278.864l32.64-9.973-1.162-3.805Z" transform="translate(55.063 -616.662)" fill="#fff"/>
      </g>
      <g id="Gruppe_1373" data-name="Gruppe 1373" transform="translate(152.08 623.613)">
        <g id="Gruppe_1368" data-name="Gruppe 1368">
          <g id="Gruppe_1366" data-name="Gruppe 1366">
            <path id="Pfad_1400" data-name="Pfad 1400" d="M110.362,662.422C91.136,657.517,88.95,635.088,89.6,618.477a148.38,148.38,0,0,1,4.987-32.488l11.349,2.7c3.367.8,4.609-4.421,1.243-5.221L93.424,580.2a2.47,2.47,0,0,0-2.117.391,2.6,2.6,0,0,0-1.253,1.608c-7.287,25.253-15.358,76.671,19.067,85.449C112.477,668.5,113.712,663.277,110.362,662.422Z" transform="translate(-83.66 -580.113)" fill="#d1d1d1"/>
            <path id="Pfad_1401" data-name="Pfad 1401" d="M167.008,596.9,153.26,593.63c-3.368-.8-4.61,4.419-1.242,5.221l10.95,2.605a153.867,153.867,0,0,1-10.176,31.254c-6.783,15.162-19.049,34.145-38.335,29.886-3.375-.747-4.622,4.471-1.243,5.22,34.3,7.576,50.278-40.77,55.337-66.827A2.647,2.647,0,0,0,167.008,596.9Z" transform="translate(-80.446 -578.547)" fill="#d1d1d1"/>
          </g>
          <g id="Gruppe_1367" data-name="Gruppe 1367" transform="translate(16.528 1.986)">
            <path id="Pfad_1402" data-name="Pfad 1402" d="M105.449,583.26,99.7,581.892l-1.241,5.222,5.744,1.367C107.572,589.282,108.815,584.06,105.449,583.26Z" transform="translate(-98.462 -581.892)" fill="#0651b9"/>
            <path id="Pfad_1403" data-name="Pfad 1403" d="M149.207,593.63,154.951,595l-1.243,5.22-5.743-1.366C144.6,598.049,145.84,592.828,149.207,593.63Z" transform="translate(-92.922 -580.533)" fill="#0651b9"/>
          </g>
        </g>
        <g id="Gruppe_1372" data-name="Gruppe 1372" transform="translate(8.925 76.808)">
          <g id="Gruppe_1370" data-name="Gruppe 1370">
            <g id="Gruppe_1369" data-name="Gruppe 1369" transform="translate(0 8.36)">
              <path id="Pfad_1404" data-name="Pfad 1404" d="M115.655,761.477l-4.613-1.1A25.252,25.252,0,0,1,92.34,730l17.513-73.615,5.222,1.242L97.56,731.242a19.881,19.881,0,0,0,14.723,23.915l4.614,1.1a19.883,19.883,0,0,0,23.915-14.723l11.346-47.692,5.221,1.243-11.347,47.691A25.252,25.252,0,0,1,115.655,761.477Z" transform="translate(-91.652 -656.388)" fill="#0651b9"/>
            </g>
            <path id="Pfad_1405" data-name="Pfad 1405" d="M123.383,660.7a8.019,8.019,0,0,1-9.659,5.944l-8.063-1.919a8.018,8.018,0,0,1-5.948-9.655h0a8.022,8.022,0,0,1,9.661-5.947l8.064,1.918a8.018,8.018,0,0,1,5.945,9.66Z" transform="translate(-90.738 -648.901)" fill="#0651b9"/>
          </g>
          <g id="Gruppe_1371" data-name="Gruppe 1371" transform="translate(50.172 33.794)">
            <path id="Pfad_1406" data-name="Pfad 1406" d="M136.941,689.141a12.977,12.977,0,1,0,15.628-9.619A12.98,12.98,0,0,0,136.941,689.141Z" transform="translate(-136.586 -679.166)" fill="#055bd1"/>
            <path id="Pfad_1407" data-name="Pfad 1407" d="M141.5,689.807a7.732,7.732,0,1,0,9.31-5.73A7.734,7.734,0,0,0,141.5,689.807Z" transform="translate(-136.038 -678.618)" fill="#0651b9"/>
          </g>
        </g>
      </g>
    </g>
    <g id="Gruppe_maskieren_13" data-name="Gruppe maskieren 13" transform="translate(0 -5)" clip-path="url(#clip-path)">
      <g id="Gruppe_1208" data-name="Gruppe 1208" transform="translate(-431.797 586.334) rotate(-20)">
        <path id="Pfad_1226" data-name="Pfad 1226" d="M668.6,226.81c-4.551-3.832-11.5-6.851-13.414-3.186S668.6,238.547,668.6,238.547Z" transform="translate(-6.895 -12.264)" fill="#febe92"/>
        <path id="Pfad_1227" data-name="Pfad 1227" d="M872.588,392.788h0c-24.1-22.908-89.334-94.663-107.182-111.307-9.331-8.7-11-16.256-9.923-22a20.834,20.834,0,0,1,7.286-11.771s-5.188-3.356-5.188-12.7,8.3-13.651,9.023-6.706,5.268,13.412,10.535,19.164,2.051,15.4,6.317,26.652C787.69,285.273,846.032,352.113,872.588,392.788Z" transform="translate(-50.042 -13.519)" fill="#f7a981"/>
        <path id="Pfad_1228" data-name="Pfad 1228" d="M844.608,407.9H779.955L729.6,306.041c-10.711,1.1-31.7-6.194-39.365-25.838,0,0,14.988-19.76,16.793-22.024.943-1.177,11.031,7.254,20.474,15.6,8.671,7.664,16.794,15.249,16.794,15.249Z" transform="translate(-22.062 -27.815)" fill="#f7a981"/>
        <path id="Pfad_1229" data-name="Pfad 1229" d="M692.281,440.57,688.3,422.583a36.559,36.559,0,0,0,7.962-19.906c.885-11.943,1.884-40,0-46.682s-6.075-5.8-6.755,0-.68,13.963-2.719,13.963,2.04-26.513,0-29.006-6.118-3.852-7.025,2.493-.227,25.38-1.586,25.607.68-34.218-2.946-34.9-6.572-.453-7.251,8.838,2.04,26.286,0,25.833.227-28.779-2.266-29.685-5.892-1.36-7.025,5.665-2.266,32.858-2.266,38.07l-.906,4.532s-3.852,0-4.985-3.172-2.946-11.784-8.385-12.917-2.039,4.532-2.492,11.783,8.158,30.139,18.355,38.07l-3.4,19.4Z" transform="translate(0 -60.485)" fill="#f7a981"/>
        <path id="Pfad_1230" data-name="Pfad 1230" d="M668,427.875c10.877,4.306,17,19.942,17,19.942" transform="translate(-12.484 -100.954)" fill="none" stroke="#d3644a" stroke-linecap="round" stroke-miterlimit="10" stroke-width="2"/>
        <path id="Pfad_1231" data-name="Pfad 1231" d="M703.135,444.459c2.209-6.258,14.287-16.807,14.287-16.807" transform="translate(-27.618 -100.858)" fill="none" stroke="#d3644a" stroke-linecap="round" stroke-miterlimit="10" stroke-width="2"/>
        <g id="Gruppe_1207" data-name="Gruppe 1207" transform="translate(658.831 193.492)">
          <rect id="Rechteck_539" data-name="Rechteck 539" width="48.713" height="64.032" rx="16.638" transform="translate(0)" fill="#0b374f"/>
          <path id="Pfad_1232" data-name="Pfad 1232" d="M689.562,240.868c-3.077,0-5.571-1.769-5.571-3.952v-29.3c0-2.183,2.494-3.952,5.571-3.952h25.994c3.077,0,5.572,1.769,5.572,3.952v29.3c0,2.183-2.495,3.952-5.571,3.952Z" transform="translate(-678.203 -197.872)" fill="#fff" opacity="0.63" style="mix-blend-mode: overlay;isolation: isolate"/>
          <path id="Pfad_1233" data-name="Pfad 1233" d="M689.562,240.868c-3.077,0-5.571-1.769-5.571-3.952v-29.3c0-2.183,2.494-3.952,5.571-3.952h25.994c3.077,0,5.572,1.769,5.572,3.952v29.3c0,2.183-2.495,3.952-5.571,3.952Z" transform="translate(-678.203 -197.872)" fill="#fff" opacity="0.63" style="mix-blend-mode: overlay;isolation: isolate"/>
          <g id="Gruppe_1204" data-name="Gruppe 1204" transform="translate(17.718 59.818)">
            <rect id="Rechteck_540" data-name="Rechteck 540" width="13.276" height="1.157" fill="#072330"/>
          </g>
          <rect id="Rechteck_541" data-name="Rechteck 541" width="7.754" height="35.086" transform="translate(20.48 60.976)" fill="#d9f0f9"/>
          <path id="Pfad_1234" data-name="Pfad 1234" d="M717.325,341.916a2.943,2.943,0,1,1-5.886,0c0-1.625,2.3-6.191,2.943-6.191S717.325,340.291,717.325,341.916Z" transform="translate(-690.025 -254.755)" fill="#fe423d"/>
          <g id="Gruppe_1206" data-name="Gruppe 1206" transform="translate(7.407 13.458)">
            <g id="Gruppe_1205" data-name="Gruppe 1205">
              <path id="Pfad_1235" data-name="Pfad 1235" d="M686.835,231.639c0-2.4,1.433-4.094,3.773-5.089l-.029-.088a4.709,4.709,0,0,1-3.013-4.27c0-3.013,2.545-5.06,5.878-5.06,3.685,0,5.528,2.31,5.528,4.679a4.828,4.828,0,0,1-3.129,4.445v.088c2.369.936,3.832,2.6,3.832,4.913,0,3.305-2.837,5.528-6.464,5.528C689.233,236.787,686.835,234.418,686.835,231.639Zm10.236-.117c0-2.31-1.609-3.422-4.182-4.153-2.224.644-3.423,2.106-3.423,3.919a3.516,3.516,0,0,0,3.8,3.626C695.58,234.915,697.071,233.483,697.071,231.523Zm-7.078-9.505c0,1.9,1.433,2.925,3.627,3.51a3.746,3.746,0,0,0,2.9-3.452,2.955,2.955,0,0,0-3.218-3.1A3.024,3.024,0,0,0,689.993,222.017Z" transform="translate(-686.835 -217.133)" fill="#fff"/>
              <path id="Pfad_1236" data-name="Pfad 1236" d="M713.962,247.027a1.729,1.729,0,0,1,1.755-1.842,1.845,1.845,0,1,1-1.755,1.842Z" transform="translate(-698.519 -229.216)" fill="#fff"/>
              <path id="Pfad_1237" data-name="Pfad 1237" d="M735.519,219.862h-7.253l-.731,4.884a10.13,10.13,0,0,1,1.55-.117,8.036,8.036,0,0,1,4.095,1.024,5.419,5.419,0,0,1,2.72,4.884c0,3.715-2.955,6.493-7.078,6.493a9.307,9.307,0,0,1-4.737-1.169l.643-1.96a8.512,8.512,0,0,0,4.065,1.053,4.2,4.2,0,0,0,4.5-4.124c-.03-2.457-1.667-4.212-5.47-4.212a19.581,19.581,0,0,0-2.632.2l1.228-9.126h9.1Z" transform="translate(-702.879 -217.376)" fill="#fff"/>
            </g>
          </g>
        </g>
        <path id="Pfad_1238" data-name="Pfad 1238" d="M669.839,250.127c-2.25-4.5-7.826,4.072-3.913,7.9S673.91,258.272,669.839,250.127Z" transform="translate(-11.007 -23.845)" fill="#febe92"/>
        <path id="Pfad_1239" data-name="Pfad 1239" d="M667.606,266.531c-2.552,8.623,2.021,12.935,5.6,10.54s.225-10.54-1.69-10.54Z" transform="translate(-11.995 -31.459)" fill="#febe92"/>
        <path id="Pfad_1240" data-name="Pfad 1240" d="M673.826,291.346c2.7,8.955,6.227,9.985,9.253,6.862s-.718-8.1-5-8.512S673.826,291.346,673.826,291.346Z" transform="translate(-14.993 -41.413)" fill="#febe92"/>
      </g>
    </g>
  </g>
</svg>
