<svg width="501" height="757" viewBox="0 0 501 757" fill="none" xmlns="http://www.w3.org/2000/svg">
<mask id="mask0_10_1005" style="mask-type:luminance" maskUnits="userSpaceOnUse" x="0" y="0" width="501" height="757">
<path d="M500.412 0.287231H0.45752V756.297H500.412V0.287231Z" fill="white"/>
</mask>
<g mask="url(#mask0_10_1005)">
<path d="M262.592 498.722C382.606 498.722 479.897 493.279 479.897 486.565C479.897 479.851 382.606 474.408 262.592 474.408C142.577 474.408 45.2864 479.851 45.2864 486.565C45.2864 493.279 142.577 498.722 262.592 498.722Z" fill="#E5E5E5"/>
<path d="M469.579 312.583L467.741 312.716C467.755 312.909 469.156 332.271 468.801 353.248C468.333 380.837 465.084 398.629 459.407 404.701C458.72 405.47 457.884 406.09 456.949 406.525C457.199 407.082 457.446 407.639 457.688 408.196C458.853 407.664 459.898 406.899 460.758 405.949C466.837 399.448 470.162 381.727 470.644 353.279C471 332.22 469.592 312.776 469.579 312.583Z" fill="#657FA5"/>
<path d="M480.625 315.387L478.787 315.521C478.801 315.714 480.202 335.075 479.847 356.053C479.379 383.641 476.131 401.434 470.454 407.506C469.767 408.275 468.93 408.895 467.995 409.33C468.246 409.887 468.492 410.444 468.734 411.001C469.899 410.469 470.944 409.704 471.804 408.754C477.883 402.253 481.208 384.532 481.69 356.084C482.047 335.024 480.639 315.583 480.625 315.387Z" fill="#657FA5"/>
<path d="M461.585 302.898L459.746 303.032C459.76 303.225 461.161 322.586 460.806 343.564C460.338 371.152 457.09 388.944 451.413 395.017C450.726 395.785 449.889 396.404 448.955 396.837C449.205 397.394 449.451 397.953 449.694 398.512C450.859 397.979 451.903 397.215 452.763 396.265C458.842 389.764 462.167 372.043 462.649 343.595C463.005 322.535 461.599 303.092 461.585 302.898Z" fill="#657FA5"/>
<path d="M400.177 314.879H426.133L433.799 294.051H439.406L428.898 321.895H400.177V314.879Z" fill="#8C8F8F"/>
<path d="M400.178 304.998C399.124 305.005 398.1 304.647 397.279 303.986C396.458 303.325 395.89 302.401 395.671 301.37C395.452 300.339 395.595 299.264 396.077 298.326C396.559 297.388 397.35 296.645 398.315 296.223L427.328 283.495C428.445 283.003 429.712 282.973 430.85 283.412C431.989 283.851 432.908 284.723 433.407 285.837C433.65 286.388 433.783 286.982 433.797 287.585C433.81 288.187 433.704 288.787 433.485 289.348C433.267 289.91 432.939 290.422 432.521 290.857C432.103 291.291 431.604 291.639 431.051 291.879L402.038 304.608C401.452 304.865 400.819 304.998 400.178 304.998Z" fill="#8C8F8F"/>
<path d="M404.163 283.424H389.013V340.841H404.163V283.424Z" fill="#717E83"/>
<path d="M354.556 192.931C353.825 192.933 353.109 192.717 352.501 192.308C351.893 191.9 351.422 191.32 351.147 190.641C350.872 189.963 350.807 189.218 350.959 188.502C351.112 187.786 351.475 187.132 352.003 186.624L365.817 173.43C366.356 172.916 367.038 172.577 367.774 172.457C368.509 172.336 369.264 172.441 369.939 172.756L378.589 176.799C379.027 177.002 379.42 177.289 379.745 177.644C380.071 178 380.324 178.416 380.488 178.869C380.652 179.323 380.725 179.804 380.703 180.286C380.68 180.767 380.563 181.24 380.357 181.676C379.938 182.557 379.187 183.237 378.268 183.566C377.349 183.896 376.337 183.848 375.453 183.434L369.097 180.464L357.11 191.912C356.422 192.568 355.507 192.933 354.556 192.931Z" fill="#8C8F8F"/>
<path d="M357.11 191.908L369.096 180.46L375.452 183.43C375.931 183.661 376.455 183.784 376.987 183.791C377.518 183.798 378.045 183.69 378.531 183.473C379.016 183.256 379.448 182.936 379.797 182.535C380.146 182.134 380.404 181.661 380.552 181.151L368.535 175.984L351.895 191.809C352.574 192.51 353.503 192.915 354.48 192.934C355.456 192.954 356.4 192.587 357.107 191.913L357.11 191.908Z" fill="#797C7B"/>
<path d="M354.557 346.339C353.833 346.341 353.115 346.201 352.445 345.926C351.775 345.65 351.166 345.246 350.653 344.735C350.139 344.225 349.731 343.618 349.452 342.95C349.173 342.281 349.029 341.565 349.027 340.841V110.111L261.173 86.9663L232.812 112.896C231.73 113.884 230.301 114.404 228.838 114.343C227.374 114.282 225.994 113.645 224.998 112.57C224.507 112.04 224.125 111.418 223.876 110.739C223.626 110.061 223.513 109.34 223.544 108.617C223.574 107.895 223.748 107.186 224.054 106.531C224.359 105.876 224.792 105.288 225.326 104.801L255.918 76.835C256.604 76.2094 257.435 75.7655 258.336 75.5441C259.238 75.3227 260.18 75.3308 261.077 75.5677L355.973 100.565C357.15 100.873 358.192 101.561 358.937 102.523C359.681 103.486 360.085 104.668 360.087 105.884V340.839C360.085 341.563 359.94 342.28 359.661 342.949C359.383 343.617 358.975 344.224 358.461 344.735C357.948 345.246 357.339 345.65 356.669 345.926C355.999 346.201 355.281 346.341 354.557 346.339Z" fill="#B4B6B6"/>
<path d="M394.542 266.23H324.973V482.891H394.542V266.23Z" fill="#D7DBDB"/>
<path d="M407.786 230.254L402.342 232.171L379.631 211.443L372.613 144.678H378.066L407.796 163.446L407.786 230.254Z" fill="#6B8189"/>
<path d="M402.342 232.171L372.612 211.443V144.678L402.342 163.605V232.171Z" fill="#93B0B9"/>
<path d="M397.817 219.007L374.643 203.311V156.085L397.813 173.131L397.817 219.007Z" fill="#435D77"/>
<path d="M376.959 157.787V200.447L397.816 219.007L374.643 203.311V156.085L376.959 157.787Z" fill="#395067"/>
<path d="M375.588 199.414L393.216 169.748L397.815 173.131L377.732 205.399L374.645 203.308L375.588 199.414Z" fill="#496480"/>
<path d="M374.643 184.064L386.228 164.608L390.526 167.771L374.646 195.061L374.643 184.064Z" fill="#496480"/>
<path d="M383.553 209.344L397.815 187.31V197.984L389.491 213.37L383.553 209.344Z" fill="#496480"/>
<path d="M422.728 304.998L426.554 272.09L459.35 274.585L463.739 310.916L422.728 304.998Z" fill="#829095"/>
<path d="M432.029 306.341L435.092 282.276L460.089 280.697L459.351 274.586L426.555 272.091L422.729 304.999L432.029 306.341Z" fill="#69767A"/>
<path d="M461.197 329.619L435.12 306.496L436.456 285.348L462.532 308.471L461.197 329.619Z" fill="#69767A"/>
<path d="M436.458 285.349C436.458 285.349 453.542 283.02 459.066 287.209C464.59 291.398 485.352 308.878 485.352 308.878L462.533 308.471L436.458 285.349Z" fill="#5B676B"/>
<path d="M461.197 329.62L492.514 329.225L485.352 308.878L462.533 308.472L461.197 329.62Z" fill="#6C7A7E"/>
<path d="M448.981 396.538C448.302 396.814 447.575 396.956 446.841 396.953C446.604 396.935 446.372 396.869 446.16 396.759C445.949 396.649 445.761 396.497 445.61 396.312C442.707 393.342 439.039 380.466 438.06 335.993C437.471 309.238 438.185 283.469 438.192 283.212L436.349 283.16C436.342 283.418 435.627 309.227 436.218 336.027C436.564 351.78 437.287 364.794 438.366 374.702C439.752 387.444 441.69 394.929 444.292 397.586C444.613 397.95 445.005 398.244 445.444 398.45C445.884 398.656 446.36 398.769 446.845 398.783C447.836 398.785 448.818 398.59 449.732 398.209C449.484 397.651 449.234 397.094 448.981 396.538Z" fill="#657FA5"/>
<path d="M438.068 277.031H435.956V283.186H438.068V277.031Z" fill="#2A405A"/>
<path d="M439.405 281.265H434.763V299.533H439.405V281.265Z" fill="#4B6C92"/>
<path d="M456.975 406.222C456.295 406.499 455.568 406.64 454.835 406.637C454.596 406.619 454.364 406.553 454.153 406.443C453.941 406.333 453.754 406.181 453.603 405.996C450.699 403.026 447.031 390.15 446.053 345.677C445.464 318.922 446.177 293.153 446.185 292.896L444.342 292.844C444.335 293.102 443.62 318.91 444.21 345.711C444.557 361.464 445.279 374.477 446.358 384.385C447.745 397.127 449.682 404.613 452.285 407.271C452.605 407.635 452.998 407.929 453.437 408.134C453.876 408.34 454.353 408.454 454.838 408.467C455.829 408.47 456.81 408.274 457.725 407.893C457.477 407.335 457.227 406.778 456.975 406.222Z" fill="#657FA5"/>
<path d="M446.197 286.715H443.999V292.869H446.197V286.715Z" fill="#2A405A"/>
<path d="M447.59 290.949H442.757V309.217H447.59V290.949Z" fill="#4B6C92"/>
<path d="M468.02 409.024C467.341 409.301 466.614 409.442 465.88 409.439C465.642 409.421 465.41 409.355 465.199 409.245C464.987 409.135 464.8 408.983 464.649 408.798C461.745 405.828 458.077 392.953 457.099 348.479C456.51 321.724 457.223 295.955 457.23 295.698L455.388 295.646C455.38 295.904 454.666 321.713 455.256 348.513C455.602 364.266 456.325 377.28 457.404 387.187C458.791 399.929 460.728 407.415 463.33 410.073C463.651 410.437 464.043 410.731 464.482 410.937C464.921 411.142 465.398 411.256 465.883 411.27C466.874 411.272 467.856 411.077 468.77 410.695C468.523 410.138 468.273 409.581 468.02 409.024Z" fill="#657FA5"/>
<path d="M456.592 289.52H454.81V295.675H456.592V289.52Z" fill="#2A405A"/>
<path d="M457.721 293.754H453.803V312.022H457.721V293.754Z" fill="#4B6C92"/>
<path d="M380.72 289.305H340.501V329.298H380.72V289.305Z" fill="#4A7499"/>
<path d="M220.335 106.698C220.335 106.698 227.773 97.7936 234.93 102.979C242.087 108.163 234.93 118.794 234.93 118.794L220.335 106.698Z" fill="#3B3A4F"/>
<path d="M189.76 104.967L222.713 100.021L237.681 121.371L223.102 148.034L189.76 104.967Z" fill="#92B8E9"/>
<path d="M254.028 79.5121C254.486 77.3366 255.776 75.4263 257.623 74.1898C259.471 72.9534 261.729 72.4888 263.914 72.8956C266.1 73.3024 268.039 74.5481 269.318 76.3665C270.597 78.1848 271.114 80.4314 270.758 82.6257C270.3 84.8013 269.01 86.7115 267.163 87.948C265.315 89.1845 263.057 89.6491 260.872 89.2423C258.686 88.8355 256.747 87.5897 255.468 85.7714C254.189 83.953 253.672 81.7065 254.028 79.5121Z" fill="#3B3A4F"/>
<path d="M394.542 266.23H324.973V278.238H394.542V266.23Z" fill="#4A7499"/>
<path d="M164.189 305.718L174.065 304.17L181.049 348.233C181.151 348.882 181.124 349.544 180.969 350.182C180.815 350.82 180.537 351.421 180.15 351.951C179.764 352.482 179.276 352.931 178.716 353.273C178.156 353.615 177.534 353.843 176.885 353.945C176.237 354.047 175.575 354.02 174.937 353.865C174.299 353.711 173.698 353.433 173.167 353.046C172.637 352.659 172.188 352.172 171.846 351.612C171.504 351.052 171.275 350.43 171.174 349.781L164.189 305.718Z" fill="#3E4142"/>
<path d="M232.584 308.111L242.722 309.521L237.168 349.018C237.076 349.684 236.853 350.325 236.513 350.905C236.173 351.484 235.722 351.991 235.186 352.397C234.65 352.802 234.04 353.098 233.389 353.267C232.739 353.437 232.062 353.477 231.396 353.384C230.731 353.292 230.09 353.069 229.51 352.729C228.93 352.389 228.423 351.939 228.018 351.403C227.612 350.867 227.317 350.256 227.147 349.606C226.978 348.955 226.938 348.278 227.03 347.613L232.584 308.111Z" fill="#3E4142"/>
<path d="M160.76 315.216C159.628 315.029 158.58 314.5 157.757 313.701C156.934 312.901 156.375 311.869 156.155 310.743C155.934 309.617 156.064 308.45 156.525 307.4C156.987 306.349 157.759 305.465 158.737 304.865C159.745 304.248 180.654 291.916 224.593 299.356C232.79 300.765 240.9 302.642 248.882 304.978C250.27 305.376 251.452 306.292 252.184 307.535C252.917 308.779 253.144 310.257 252.82 311.663C252.495 313.07 251.643 314.298 250.439 315.095C249.236 315.891 247.772 316.196 246.351 315.945C246.134 315.909 245.92 315.859 245.709 315.798C216.26 307.258 195.466 307.498 183.208 309.203C170.696 310.943 164.735 314.426 164.679 314.461C163.507 315.179 162.114 315.447 160.76 315.216Z" fill="#4A7499"/>
<path d="M282.033 436.494L210.694 367.244L198.357 366.506L168.9 368.558L218.922 447.013L272.945 446.472L271.204 444.606L282.033 436.494Z" fill="#D7DBDB"/>
<path d="M118.814 319.115C118.814 319.115 127.384 325.793 131.813 333.426L116.009 354.963C116.009 354.963 114.301 341.113 112.409 336.301C111.097 332.966 103.191 322.382 103.191 322.382L118.814 319.115Z" fill="#D7DBDB"/>
<path d="M114.266 323.856L127.299 339.576L131.813 333.425C127.384 325.792 118.814 319.113 118.814 319.113L114.5 320.014C114.191 321.27 114.112 322.572 114.266 323.856Z" fill="#606264"/>
<path d="M224.907 349.332C205.513 347.675 181.043 353.028 159.992 353.181C148.913 351.2 138.696 349.097 131.068 347.448C127.923 345.689 125.123 343.375 122.803 340.619L117.585 344.402C117.585 344.402 105.307 357.97 107.48 369.704C109.653 381.437 119.919 393.886 141.705 393.838C160.172 393.797 214.798 364.528 234.52 372.177C243.998 375.853 254.051 377.466 263.64 377.998C288.181 383.865 318.049 387.542 324.971 375.41C324.974 375.413 258.379 352.192 224.907 349.332Z" fill="#D7DBDB"/>
<path d="M215.809 336.37C215.809 336.37 183.701 339.262 173.64 338.774C164.681 338.34 139.732 332.685 139.732 332.685L136.664 329.305C135.773 330.101 134.868 330.887 133.948 331.661C128.817 335.962 123.396 339.905 117.724 343.463C117.724 343.463 124.731 357.287 141.527 358.035C171.052 359.351 215.086 347.264 237.76 356.663L309.043 374.68C326.379 381.699 325.545 375.562 324.771 371.594C324.771 371.594 264.844 337.039 215.809 336.37Z" fill="#2B6299"/>
<path d="M113.705 326.081C113.007 316.964 109.515 300.146 95.1661 279.049C93.2015 276.174 91.089 273.402 88.8369 270.746C77.1816 255.497 61.7407 243.561 44.0469 236.123C37.4115 232.661 33.0479 230.939 33.0479 230.939C32.716 231.397 32.5342 231.946 32.5275 232.512C31.0474 233.575 28.3204 236.96 37.8841 244.276C42.4361 247.759 64.8034 269.806 76.9892 282.222C96.8856 302.496 95.5916 326.196 96.8856 331.088C99.6824 341.658 112.361 336.242 113.716 333.545C113.717 333.541 115.291 333.637 113.705 326.081Z" fill="#D7DBDB"/>
<path d="M32.7554 231.449C32.7554 231.449 64.4562 249.533 81.0892 269.82C95.7968 287.758 116.698 310.311 113.66 333.588C113.66 333.588 119.081 339.025 123.006 322.788C124.292 317.47 120.181 305.328 117.498 297.662C113.024 284.886 108.698 272.285 94.2308 260.983C85.512 254.171 59.8875 235.824 49.3649 231.819C37.081 227.143 31.8087 228.95 32.7554 231.449Z" fill="#2B6299"/>
<path d="M31.6955 230.61L0.778059 212.496C0.322173 212.228 0.136782 211.787 0.34193 211.449L0.499211 211.189C4.55583 204.492 22.33 203.033 31.001 208.717C43.9854 217.227 37.4024 223.738 33.345 230.434C33.1368 230.656 32.8557 230.796 32.5529 230.829C32.2501 230.861 31.9458 230.783 31.6955 230.61Z" fill="#2B6299"/>
<path d="M30.0308 228.34C32.7782 223.52 36.8288 216.434 21.141 210.662C13.141 207.72 6.19174 207.863 2.48083 212.842C1.94275 212.619 1.36675 212.501 0.78418 212.495C1.53437 214.205 2.62719 215.743 3.99513 217.014C7.2228 220.013 16.9392 225.87 22.6864 229.719C29.0969 234.011 28.5233 236.453 31.6522 237.721L33.3504 230.435C33.3504 230.435 32.0731 229.618 30.0308 228.34Z" fill="#D7DBDB"/>
<path d="M196.253 470.308C196.253 470.308 196.702 438.976 227.539 437.912C258.376 436.847 263.661 437.912 263.661 437.912L276.707 432.213C276.707 432.213 306.092 434.429 314.312 449.233C320.955 461.194 319.615 470.313 319.615 470.313L196.253 470.308Z" fill="#D7DBDB"/>
<path d="M137.952 324.738L147.594 322.11L159.454 365.129C159.803 366.408 159.629 367.772 158.972 368.923C158.314 370.073 157.226 370.915 155.948 371.264C154.669 371.612 153.305 371.439 152.154 370.781C151.004 370.123 150.162 369.036 149.813 367.757L137.952 324.738Z" fill="#1F2222"/>
<path d="M205.252 319.971L215.476 320.254L214.374 360.094C214.336 361.45 213.762 362.735 212.777 363.667C211.791 364.599 210.476 365.102 209.12 365.065C207.764 365.027 206.479 364.452 205.547 363.467C204.614 362.482 204.112 361.167 204.149 359.811L205.252 319.971Z" fill="#1F2222"/>
<path d="M134.665 334.96C133.518 334.9 132.417 334.491 131.51 333.788C130.603 333.084 129.932 332.121 129.588 331.025C129.243 329.93 129.242 328.756 129.584 327.66C129.926 326.564 130.594 325.598 131.5 324.893C132.432 324.169 151.836 309.604 196.334 312.149C204.639 312.645 212.909 313.616 221.104 315.057C222.527 315.297 223.804 316.075 224.671 317.229C225.538 318.383 225.929 319.826 225.763 321.259C225.598 322.693 224.888 324.009 223.78 324.935C222.673 325.861 221.253 326.326 219.812 326.236C219.592 326.223 219.374 326.197 219.157 326.16C188.936 320.923 168.298 323.456 156.306 326.505C144.066 329.616 138.531 333.735 138.478 333.775C137.393 334.62 136.038 335.041 134.665 334.96Z" fill="#5585AF"/>
<path d="M394.035 466.277H114.005C109.417 466.277 105.698 469.997 105.698 474.584C105.698 479.172 109.417 482.891 114.005 482.891H394.035C398.623 482.891 402.342 479.172 402.342 474.584C402.342 469.997 398.623 466.277 394.035 466.277Z" fill="#939393"/>
<path d="M190.03 402.226C203.248 402.226 213.964 391.511 213.964 378.292C213.964 365.074 203.248 354.358 190.03 354.358C176.812 354.358 166.096 365.074 166.096 378.292C166.096 391.511 176.812 402.226 190.03 402.226Z" fill="#606264"/>
<path d="M305.978 674.17L312.032 722.788H339.746L342.763 670.928L305.978 674.17Z" fill="#E2E2E2"/>
<path d="M311.567 714.452C311.567 714.452 307.843 713.989 306.445 716.768C305.829 717.99 305.784 719.441 304.582 726.954C303.052 736.514 301.823 740.651 301.323 744.549C301.055 746.629 301.323 756.125 301.323 756.125C301.323 756.125 353.011 756.125 377.228 755.662C401.444 755.2 395.252 733.165 385.144 732.048C380.953 731.585 369.509 732.373 360.464 730.659C350.055 728.687 346.96 726.029 346.96 726.029C346.96 726.029 342.769 716.303 340.441 714.917C340.441 714.917 332.624 721.862 324.143 721.862C313.43 721.861 312.032 716.303 311.567 714.452Z" fill="#691300"/>
<path d="M218.434 674.17V720.01L231.472 724.64L246.15 720.01L255.221 670.926L218.434 674.17Z" fill="#E2E2E2"/>
<path d="M316.685 252.595C322.308 258.164 327.118 278.097 334.957 293.039C343.201 308.75 348.262 315.335 350.72 317.982C353.732 326.368 355.535 335.14 356.073 344.035C357.171 361.146 349.483 363.084 345.614 366.257C323.135 363.174 302.59 313.077 302.59 313.077L294.688 261.004C294.688 261.004 301.34 237.39 316.689 252.596" fill="#FFB0A0"/>
<path d="M288.284 299.118L319.017 353.292L346.957 298.655C346.957 298.655 326.235 250.324 310.169 249.111L288.284 299.118Z" fill="#F0F2F2"/>
<path d="M330.771 331.729L410.846 313.379L434.655 236.404L354.579 254.754L330.771 331.729Z" fill="#2E3462"/>
<path d="M338.827 344.92C339.442 330.116 345.696 324.377 350.72 317.982C350.737 317.993 391.218 275.231 391.218 275.231L413.003 285.641C406.271 300.902 398.756 315.805 390.486 330.291C378.307 351.5 364.822 364.755 345.612 366.254C345.592 366.259 338.217 359.603 338.827 344.92Z" fill="#FFB0A0"/>
<path d="M413.001 285.644C413.001 285.644 427.686 251.616 425.982 245.97C424.279 240.324 415.865 233.053 412.402 232.091C408.853 231.103 406.156 231.95 406.439 234.914C406.439 234.914 402.228 233.361 400.052 234.679C397.875 235.996 397.638 238.866 397.638 238.866C396.925 238.25 396.043 237.862 395.106 237.754C394.17 237.645 393.222 237.821 392.387 238.258C389.358 239.763 391.035 243.691 391.035 243.691C391.035 243.691 389.116 242.957 387.649 245.875C386.276 248.606 389.928 254.82 389.928 254.82C389.928 254.82 388.531 266.611 389.572 269.417C390.29 271.355 391.22 275.235 391.22 275.235L413.001 285.644Z" fill="#FFB0A0"/>
<path d="M267.025 399.111C283.11 504.512 281.543 489.144 287.296 538.312C292.033 578.795 301.788 710.286 301.788 710.286L349.285 708.434L342.3 531.558L330.903 389.872L267.025 399.111Z" fill="#F0F2F2"/>
<path d="M217.968 395.428C219.26 501.925 219.564 486.649 218.434 536.187C217.503 576.934 210.518 712.137 210.518 712.137H256.153L271.23 534.813L282.695 391.723L217.968 395.428Z" fill="#F0F2F2"/>
<path d="M256.153 235.684C256.153 235.684 233.689 239.009 222.626 247.26C218.902 250.037 218.791 310.092 218.902 350.977C219.043 403.204 213.78 429.693 213.78 429.693C213.78 429.693 249.354 436.2 285.026 436.176C302.705 436.164 329.474 431.374 339.043 428.305C339.043 428.305 334.295 394.215 330.661 346.812C327.264 302.495 322.279 259.763 317.623 253.744C311.149 245.375 290.149 239.39 290.149 239.39L256.153 235.684Z" fill="#F0F2F2"/>
<path d="M256.152 201.883C256.152 201.883 259.254 229.029 251.489 238.626C251.489 238.626 278.039 252.352 288.284 261.15L293.667 246.638C293.667 246.638 286.813 232.461 293.135 214.65L256.152 201.883Z" fill="#FFB0A0"/>
<path d="M264.069 214.384C264.069 214.384 273.145 233.091 290.612 234.291C290.17 228.474 290.764 222.624 292.368 217.015L264.069 214.384Z" fill="#EE8B7B"/>
<path d="M254.431 197.114C256.019 218.54 276.291 228.308 291.601 226.881C307.168 225.429 312.278 210.327 313.484 193.283C314.576 177.815 315.663 148.341 284.231 147.029C246.092 145.437 253.225 180.845 254.431 197.114Z" fill="#FFB0A0"/>
<path d="M254.142 177.541C254.142 177.541 243.215 176.241 241.717 185.215C240.54 192.276 248.48 196.209 255.295 195.315C255.295 195.314 255.628 182.958 254.142 177.541Z" fill="#FFB0A0"/>
<path d="M242.542 182.621C242.542 182.621 235.476 179.19 235.843 171.688C236.312 162.023 241.251 161.136 241.251 161.136C241.251 161.136 239.065 153.681 242.953 148.033C247.711 141.119 256.012 139.118 259.972 142.673C259.972 142.673 264.582 132.13 275.409 133.149C284.661 134.02 283.396 138.809 283.396 138.809C283.396 138.809 292.602 129.995 301.104 135.674C310.012 141.625 307.194 148.515 307.194 148.515C307.194 148.515 316.851 148.48 318.765 154.809C320.1 159.223 315.72 164.367 315.72 164.367C315.72 164.367 322.191 176.368 313.43 177.802C313.43 177.802 312.965 160.207 304.523 160.994C295.157 161.866 294.893 164.797 287.819 161.596C280.745 158.395 267.329 159.744 263.873 171.246C260.878 181.211 261.231 185.931 257.062 186.725C257.062 186.725 255.674 178.42 251.71 178.018C244.976 177.343 242.542 182.621 242.542 182.621Z" fill="#740019"/>
<path d="M222.625 251.426C222.625 251.426 153.626 309.54 157.433 341.717C160.227 365.331 207.259 396.817 207.259 396.817L214.71 368.572L193.755 336.16C193.755 336.16 226.095 299.645 228.678 292.635C233.801 278.745 222.625 251.426 222.625 251.426Z" fill="#FFB0A0"/>
<path d="M211.663 368.704L218.994 360.235L219.248 368.289C221.519 367.93 223.809 367.711 226.107 367.631C229.893 366.941 233.75 366.714 237.591 366.957C245.851 367.489 250.374 369.881 251.787 371.506C252.706 372.563 251.982 375.82 248.709 375.264C246.477 374.884 237.87 373.825 237.87 373.825L229.746 375.262C229.738 375.45 229.73 375.64 229.721 375.833C233.315 375.226 236.968 375.035 240.606 375.265C248.867 375.796 253.389 378.189 254.803 379.814C255.721 380.87 254.996 384.128 251.725 383.572C249.492 383.192 240.885 382.133 240.885 382.133L228.804 384.27C228.782 384.397 228.761 384.525 228.74 384.65C231.306 384.391 233.889 384.343 236.462 384.506C244.722 385.038 249.245 387.431 250.658 389.056C251.577 390.113 250.852 393.369 247.58 392.814C245.348 392.434 236.741 391.375 236.741 391.375L226.602 393.169C226.563 393.28 226.526 393.388 226.483 393.498C227.13 393.606 227.789 393.73 228.459 393.873C236.552 395.601 240.673 398.626 241.831 400.439C242.585 401.618 241.388 404.734 238.234 403.706C236.081 403.006 227.723 400.705 227.723 400.705L220.88 400.903C211.658 403.91 201.201 392.647 201.201 392.647L211.663 368.704Z" fill="#FFB0A0"/>
<path d="M225.884 245.407C225.884 245.407 219.831 247.722 213.778 254.204C209.745 258.523 173.73 294.95 170.937 300.043C170.937 300.043 202.602 331.529 206.793 330.14C206.793 330.14 234.267 298.192 235.198 285.691C236.13 273.191 225.884 245.407 225.884 245.407Z" fill="#F0F2F2"/>
<path d="M218.434 714.452C218.434 714.452 214.711 713.989 213.311 716.768C212.696 717.99 212.651 719.441 211.449 726.954C209.919 736.514 208.69 740.651 208.189 744.549C207.922 746.629 208.189 756.125 208.189 756.125C208.189 756.125 259.877 756.125 284.094 755.662C308.311 755.2 302.118 733.165 292.01 732.048C287.819 731.585 276.375 732.373 267.33 730.659C256.92 728.687 253.825 726.029 253.825 726.029C253.825 726.029 249.634 716.303 247.306 714.917C247.306 714.917 239.49 721.862 231.008 721.862C220.297 721.861 218.899 716.303 218.434 714.452Z" fill="#691300"/>
<path d="M266.397 200.03C266.397 200.03 280.834 192.159 297.132 192.622C313.43 193.086 313.43 199.105 313.43 199.105C313.43 199.105 312.974 230.872 288.284 229.665C259.878 228.275 266.397 200.03 266.397 200.03Z" fill="#E7EEF2"/>
<path d="M267.565 202.115C267.565 202.115 260.58 178.501 251.732 178.037" stroke="#E7EEF2" stroke-width="3" stroke-linecap="round" stroke-linejoin="round"/>
<path d="M253.592 195.632C253.592 195.632 255.92 205.358 267.561 203.504" stroke="#E7EEF2" stroke-width="3" stroke-linecap="round" stroke-linejoin="round"/>
<path d="M281.531 199.797C281.531 199.797 300.158 195.629 308.54 200.723" stroke="#D9DEE0" stroke-width="3" stroke-linecap="round" stroke-linejoin="round"/>
<path d="M280.134 207.67C280.134 207.67 299.227 203.966 307.143 207.67" stroke="#D9DEE0" stroke-width="3" stroke-linecap="round" stroke-linejoin="round"/>
<path d="M278.272 216.931C278.272 216.931 297.364 213.227 305.281 216.931" stroke="#D9DEE0" stroke-width="3" stroke-linecap="round" stroke-linejoin="round"/>
</g>
</svg>
