<svg xmlns="http://www.w3.org/2000/svg" width="78" height="78" viewBox="0 0 78 78">
  <g id="Gruppe_2301" data-name="Gruppe 2301" transform="translate(-923 -1104)">
    <g id="Ellipse_116" data-name="Ellipse 116" transform="translate(923 1104)" fill="#fff" stroke="#f40000" stroke-width="4">
      <circle cx="39" cy="39" r="39" stroke="none"/>
      <circle cx="39" cy="39" r="37" fill="none"/>
    </g>
    <g id="Emails_Email-Actions_email-action-warning" data-name="Emails / Email-Actions / email-action-warning" transform="translate(785.138 151.138)">
      <g id="Group_83" data-name="Group 83" transform="translate(161.613 974.614)">
        <g id="email-action-warning" transform="translate(0 0)">
          <path id="Shape_314" data-name="Shape 314" d="M164.828,980.25a.953.953,0,1,0,.953.953.953.953,0,0,0-.953-.953" transform="translate(-149.578 -957.378)" fill="none" stroke="#f40000" stroke-linecap="round" stroke-linejoin="round" stroke-width="4"/>
          <path id="Shape_315" data-name="Shape 315" d="M164.25,982.624V975" transform="translate(-149 -965.47)" fill="none" stroke="#f40000" stroke-linecap="round" stroke-linejoin="round" stroke-width="4"/>
          <g id="Shape_316" data-name="Shape 316" transform="translate(-158.249 -971.25)" fill="none" stroke-linecap="round" stroke-linejoin="round">
            <path d="M188.272,995.22a4.509,4.509,0,0,1-4.033,6.526H162.76a4.507,4.507,0,0,1-4.033-6.526l10.74-21.477a4.509,4.509,0,0,1,8.066,0Z" stroke="none"/>
            <path d="M 184.2390747070312 1001.745971679688 C 185.8020324707031 1001.745971679688 187.2531127929688 1000.937866210938 188.0739440917969 999.6087646484375 C 188.8973388671875 998.2796630859375 188.9710693359375 996.61767578125 188.2721862792969 995.219970703125 L 177.5325012207031 973.7431640625 C 176.7675476074219 972.2158203125 175.2071838378906 971.25 173.4994506835938 971.25 C 171.7890930175781 971.25 170.2286987304688 972.2158203125 169.4663391113281 973.7431640625 L 158.7266540527344 995.219970703125 C 158.0252685546875 996.61767578125 158.1014709472656 998.2796630859375 158.92236328125 999.6087646484375 C 159.7431945800781 1000.937866210938 161.1942749023438 1001.745971679688 162.7597961425781 1001.745971679688 L 184.2390747070312 1001.745971679688 M 184.2390747070312 1005.745971679688 L 162.7597961425781 1005.745971679688 C 161.3121032714844 1005.745971679688 159.8790740966797 1005.3740234375 158.6155853271484 1004.670349121094 C 157.3505706787109 1003.965881347656 156.2798156738281 1002.9423828125 155.5190734863281 1001.710571289062 C 154.7588348388672 1000.479675292969 154.3226318359375 999.0650634765625 154.2576904296875 997.61962890625 C 154.1925964355469 996.171142578125 154.5016937255859 994.720947265625 155.1515502929688 993.4259033203125 L 165.8887176513672 971.9541625976562 C 166.5938262939453 970.54150390625 167.6782989501953 969.3536987304688 169.0235748291016 968.5217895507812 C 170.3690032958984 967.6897583007812 171.9167327880859 967.25 173.4994506835938 967.25 C 175.0808715820312 967.25 176.6279449462891 967.6897583007812 177.9733581542969 968.5217895507812 C 179.3169860839844 969.3527221679688 180.4012756347656 970.538818359375 181.1090087890625 971.951904296875 L 191.8498077392578 993.4309692382812 C 192.4971160888672 994.7254638671875 192.8048706054688 996.1738891601562 192.7398834228516 997.6196899414062 C 192.6748504638672 999.0664672851562 192.2379608154297 1000.4814453125 191.4763031005859 1001.712097167969 C 190.7158355712891 1002.942810058594 189.6457672119141 1003.965637207031 188.3817596435547 1004.669982910156 C 187.1184234619141 1005.373901367188 185.6859130859375 1005.745971679688 184.2390747070312 1005.745971679688 Z" stroke="none" fill="#f40000"/>
          </g>
        </g>
      </g>
    </g>
  </g>
</svg>
