<svg xmlns="http://www.w3.org/2000/svg" xmlns:xlink="http://www.w3.org/1999/xlink" width="33" height="23.819" viewBox="0 0 33 23.819">
  <defs>
    <clipPath id="clip-path">
      <rect id="Rechteck_1140" data-name="Rechteck 1140" width="33" height="23.82" transform="translate(17840 -10574)" fill="none" stroke="#707070" stroke-width="1"/>
    </clipPath>
  </defs>
  <g id="high_risk" transform="translate(-17840 10574)" clip-path="url(#clip-path)">
    <g id="high_risk-2" data-name="high_risk" transform="translate(17840 -10574)">
      <g id="Gruppe_1908" data-name="Gruppe 1908" transform="translate(0 0)">
        <path id="Pfad_2104" data-name="Pfad 2104" d="M-1243.24,387.636l-3.508-6.018a16.44,16.44,0,0,0-5.226,4.829,16.441,16.441,0,0,0-2.7,6.585l6.865,1.181A9.479,9.479,0,0,1-1243.24,387.636Z" transform="translate(1254.886 -377.677)" fill="#fd0"/>
        <path id="Pfad_2105" data-name="Pfad 2105" d="M-1159.51,364.056a9.426,9.426,0,0,1,4.7,1.248l3.458-6.047a16.438,16.438,0,0,0-8.16-2.168,16.439,16.439,0,0,0-8.278,2.237l3.508,6.018A9.426,9.426,0,0,1-1159.51,364.056Z" transform="translate(1175.925 -355.384)" fill="#f99d0c"/>
        <path id="Pfad_2106" data-name="Pfad 2106" d="M-1020.812,393.454l6.855-1.238a16.438,16.438,0,0,0-2.75-6.563,16.438,16.438,0,0,0-5.266-4.785l-3.458,6.047A9.48,9.48,0,0,1-1020.812,393.454Z" transform="translate(1046.549 -376.995)" fill="#f35c19"/>
        <g id="Gruppe_1905" data-name="Gruppe 1905" transform="translate(0 4.766)">
          <path id="Pfad_2107" data-name="Pfad 2107" d="M-1256.12,449.62l-.913-.457.1-.2.722.361.219-.438.192.1Z" transform="translate(1257.034 -443.578)" fill="#fff"/>
          <path id="Pfad_2108" data-name="Pfad 2108" d="M-1250.461,437.829a.472.472,0,0,1-.113.137.367.367,0,0,1-.135.072.471.471,0,0,1-.147.015.587.587,0,0,1-.148-.027.753.753,0,0,1-.14-.062.747.747,0,0,1-.125-.089.582.582,0,0,1-.1-.113.466.466,0,0,1-.063-.134.368.368,0,0,1-.008-.153.467.467,0,0,1,.059-.167.454.454,0,0,1,.143-.159.36.36,0,0,1,.178-.062.611.611,0,0,1,.184.016.694.694,0,0,1,.177.071.689.689,0,0,1,.152.116.6.6,0,0,1,.109.15.36.36,0,0,1,.038.184A.456.456,0,0,1-1250.461,437.829Zm-.187-.106a.176.176,0,0,0,.018-.137.277.277,0,0,0-.068-.122.488.488,0,0,0-.114-.088.546.546,0,0,0-.137-.056.258.258,0,0,0-.138,0,.182.182,0,0,0-.109.089.182.182,0,0,0-.02.14.264.264,0,0,0,.069.122.529.529,0,0,0,.116.087.5.5,0,0,0,.1.044.4.4,0,0,0,.1.018.2.2,0,0,0,.1-.024A.193.193,0,0,0-1250.647,437.724Z" transform="translate(1251.953 -432.853)" fill="#fff"/>
          <path id="Pfad_2109" data-name="Pfad 2109" d="M-1246.379,424.671l-.974-.377.125-.192.514.209.026.011.021.01-.019-.016a.175.175,0,0,1-.022-.02l-.382-.405.106-.162.526.188.03.013.021.01-.012-.011-.014-.013-.013-.012-.4-.387.125-.192.734.744-.115.176-.553-.191-.052-.024a.362.362,0,0,1,.042.038l.4.427Z" transform="translate(1248.236 -420.348)" fill="#fff"/>
          <path id="Pfad_2110" data-name="Pfad 2110" d="M-1235.606,413.136l-.8-.632.308-.391a.342.342,0,0,1,.237-.152.342.342,0,0,1,.238.082.349.349,0,0,1,.108.148.273.273,0,0,1,.011.181l.428.094-.153.195-.4-.077-.122.155.283.223Zm-.311-.527.172-.219a.1.1,0,0,0-.024-.166.134.134,0,0,0-.084-.031.105.105,0,0,0-.081.048l-.173.219Z" transform="translate(1238.289 -410.018)" fill="#fff"/>
          <path id="Pfad_2111" data-name="Pfad 2111" d="M-1228.309,407.819l-.775-.665.145-.168.775.665Z" transform="translate(1231.632 -405.496)" fill="#fff"/>
          <path id="Pfad_2112" data-name="Pfad 2112" d="M-1223.654,401.457a.417.417,0,0,1-.232.133.437.437,0,0,1-.266-.037l.08-.2a.321.321,0,0,0,.15.014.2.2,0,0,0,.118-.062.2.2,0,0,0,.057-.1.088.088,0,0,0-.029-.083.078.078,0,0,0-.064-.019.206.206,0,0,0-.071.02l-.094.051-.063.034-.063.03a.393.393,0,0,1-.067.025c-.017,0-.039.008-.065.012a.186.186,0,0,1-.069,0,.322.322,0,0,1-.067-.025.285.285,0,0,1-.068-.048.261.261,0,0,1-.085-.21.386.386,0,0,1,.117-.248.368.368,0,0,1,.209-.12.337.337,0,0,1,.219.034l-.088.189a.17.17,0,0,0-.194.048c-.056.061-.064.11-.024.147a.052.052,0,0,0,.033.014.124.124,0,0,0,.05-.011l.05-.022.065-.034.075-.04.076-.036a.308.308,0,0,1,.086-.026.64.64,0,0,1,.082,0,.2.2,0,0,1,.088.021.335.335,0,0,1,.082.057.276.276,0,0,1,.094.235A.428.428,0,0,1-1223.654,401.457Z" transform="translate(1227.515 -399.712)" fill="#fff"/>
          <path id="Pfad_2113" data-name="Pfad 2113" d="M-1217.359,391.537l-.5-.162.028.309.154.16-.16.154-.708-.736.16-.154.335.348-.059-.613.193-.185.037.478.709.22Z" transform="translate(1222.055 -390.658)" fill="#fff"/>
        </g>
        <g id="Gruppe_1906" data-name="Gruppe 1906" transform="translate(10.51 0)">
          <path id="Pfad_2114" data-name="Pfad 2114" d="M-1140.542,347.018l-.212.066-.152-.483c0-.009-.006-.02-.008-.031,0,.012,0,.023,0,.032l-.079.577-.4-.425-.021-.027.01.031.152.483-.212.066-.306-.974.216-.068.383.426q.017.019.043.054c0-.029,0-.052,0-.069l.078-.57.2-.062Z" transform="translate(1141.769 -345.346)" fill="#fff"/>
          <path id="Pfad_2115" data-name="Pfad 2115" d="M-1127.556,344.875a.475.475,0,0,1-.177.012.364.364,0,0,1-.145-.049.468.468,0,0,1-.111-.1.58.58,0,0,1-.082-.126.735.735,0,0,1-.051-.144.738.738,0,0,1-.022-.152.589.589,0,0,1,.014-.15.466.466,0,0,1,.054-.137.364.364,0,0,1,.106-.111.471.471,0,0,1,.162-.071.454.454,0,0,1,.214-.005.358.358,0,0,1,.167.087.6.6,0,0,1,.115.145.69.69,0,0,1,.07.178.694.694,0,0,1,.021.19.618.618,0,0,1-.034.182.36.36,0,0,1-.108.154A.454.454,0,0,1-1127.556,344.875Zm-.051-.208a.176.176,0,0,0,.112-.081.277.277,0,0,0,.042-.134.491.491,0,0,0-.014-.143.542.542,0,0,0-.053-.138.257.257,0,0,0-.1-.1.182.182,0,0,0-.14-.018.182.182,0,0,0-.116.082.265.265,0,0,0-.042.133.531.531,0,0,0,.016.144.493.493,0,0,0,.037.1.4.4,0,0,0,.059.088.2.2,0,0,0,.086.057A.193.193,0,0,0-1127.607,344.667Z" transform="translate(1129.387 -343.338)" fill="#fff"/>
          <path id="Pfad_2116" data-name="Pfad 2116" d="M-1117.147,341.711l.37-.068a.565.565,0,0,1,.232,0,.393.393,0,0,1,.175.087.518.518,0,0,1,.114.145.613.613,0,0,1,.062.18.62.62,0,0,1,.01.143.516.516,0,0,1-.028.145.45.45,0,0,1-.072.133.44.44,0,0,1-.127.106.576.576,0,0,1-.187.066l-.365.067Zm.533.726a.214.214,0,0,0,.169-.122.356.356,0,0,0,.024-.217.369.369,0,0,0-.1-.2.2.2,0,0,0-.188-.058l-.185.034.108.59Z" transform="translate(1119.392 -341.336)" fill="#fff"/>
          <path id="Pfad_2117" data-name="Pfad 2117" d="M-1105.137,340.536l-.126-1.013.728-.091.026.208-.508.063.022.178.284-.035.026.208-.284.035.026.208.537-.067.026.21Z" transform="translate(1108.592 -339.337)" fill="#fff"/>
          <path id="Pfad_2118" data-name="Pfad 2118" d="M-1094.592,339.839l-.069-1.019.5-.034a.342.342,0,0,1,.272.074.343.343,0,0,1,.1.232.351.351,0,0,1-.037.18.273.273,0,0,1-.127.13l.217.38-.247.017-.209-.347-.2.013.024.359Zm.182-.584.278-.019q.115-.008.107-.129a.133.133,0,0,0-.033-.083.106.106,0,0,0-.09-.028l-.278.019Z" transform="translate(1098.957 -338.749)" fill="#fff"/>
          <path id="Pfad_2119" data-name="Pfad 2119" d="M-1083.1,339.428l-.078-.2-.384,0-.074.2-.242,0,.394-1.025.213,0,.413,1.018Zm-.154-.4-.089-.219a.786.786,0,0,1-.031-.086.7.7,0,0,1-.03.086l-.086.221Z" transform="translate(1089.158 -338.406)" fill="#fff"/>
          <path id="Pfad_2120" data-name="Pfad 2120" d="M-1072.89,338.623l-.032.808-.222-.009.032-.808-.293-.011.008-.213.807.032-.008.213Z" transform="translate(1079.637 -338.39)" fill="#fff"/>
          <path id="Pfad_2121" data-name="Pfad 2121" d="M-1063.382,339.9l.094-1.017.731.067-.019.209-.51-.047-.016.179.285.026-.019.209-.285-.026-.019.209.539.05-.019.211Z" transform="translate(1070.529 -338.843)" fill="#fff"/>
          <path id="Pfad_2122" data-name="Pfad 2122" d="M-1049.361,341.526l.173-1.007.49.084a.342.342,0,0,1,.247.136.343.343,0,0,1,.041.248.348.348,0,0,1-.079.166.273.273,0,0,1-.154.1l.122.421-.244-.042-.122-.386-.194-.033-.061.355Zm.315-.525.275.047a.1.1,0,0,0,.134-.1.132.132,0,0,0-.012-.089.105.105,0,0,0-.081-.049l-.275-.047Z" transform="translate(1057.787 -340.325)" fill="#fff"/>
          <path id="Pfad_2123" data-name="Pfad 2123" d="M-1038.314,343.624l.216-1,.217.047-.216,1Z" transform="translate(1047.747 -342.24)" fill="#fff"/>
          <path id="Pfad_2124" data-name="Pfad 2124" d="M-1033.181,345.326a.418.418,0,0,1-.228-.141.437.437,0,0,1-.094-.251l.211-.023a.318.318,0,0,0,.059.138.2.2,0,0,0,.11.074.2.2,0,0,0,.116,0,.088.088,0,0,0,.059-.065.078.078,0,0,0-.014-.065.207.207,0,0,0-.051-.053q-.029-.02-.09-.058l-.06-.039-.057-.041a.378.378,0,0,1-.054-.047c-.012-.013-.025-.03-.041-.051a.182.182,0,0,1-.032-.062.311.311,0,0,1-.01-.07.278.278,0,0,1,.009-.083.261.261,0,0,1,.144-.175.386.386,0,0,1,.274-.016.368.368,0,0,1,.205.127.337.337,0,0,1,.074.209l-.208.013a.17.17,0,0,0-.135-.148q-.12-.031-.141.05a.052.052,0,0,0,0,.035.121.121,0,0,0,.034.039c.017.015.032.026.043.034l.061.041.072.047.068.05a.311.311,0,0,1,.064.063.687.687,0,0,1,.043.07.205.205,0,0,1,.023.087.338.338,0,0,1-.011.1.276.276,0,0,1-.162.195A.429.429,0,0,1-1033.181,345.326Z" transform="translate(1043.375 -343.745)" fill="#fff"/>
          <path id="Pfad_2125" data-name="Pfad 2125" d="M-1023.554,347.556l-.1-.518-.258.172-.067.211-.211-.068.31-.973.211.067-.147.46.511-.344.254.081-.4.26.144.729Z" transform="translate(1034.909 -345.652)" fill="#fff"/>
        </g>
        <g id="Gruppe_1907" data-name="Gruppe 1907" transform="translate(27.903 4.665)">
          <path id="Pfad_2126" data-name="Pfad 2126" d="M-950.559,390.722l.287-.3-.3-.278-.287.3-.161-.152.7-.743.161.152-.268.285.3.278.268-.285.163.153-.7.744Z" transform="translate(951.016 -389.549)" fill="#fff"/>
          <path id="Pfad_2127" data-name="Pfad 2127" d="M-942.608,398.687l.731-.713.155.159-.732.713Z" transform="translate(943.374 -397.206)" fill="#fff"/>
          <path id="Pfad_2128" data-name="Pfad 2128" d="M-937.528,404.269a.447.447,0,0,1-.1-.181.368.368,0,0,1-.005-.186.58.58,0,0,1,.072-.171.684.684,0,0,1,.127-.151.638.638,0,0,1,.158-.1.61.61,0,0,1,.18-.052.394.394,0,0,1,.188.023.418.418,0,0,1,.169.117.37.37,0,0,1,.1.208.592.592,0,0,1-.024.228l-.211-.071a.226.226,0,0,0-.025-.223.179.179,0,0,0-.126-.063.262.262,0,0,0-.136.027.547.547,0,0,0-.12.083.427.427,0,0,0-.13.19.18.18,0,0,0,.043.184.161.161,0,0,0,.1.054.123.123,0,0,0,.1-.029l.005,0-.111-.124.157-.141.263.293-.119.107a.405.405,0,0,1-.294.12A.373.373,0,0,1-937.528,404.269Z" transform="translate(938.864 -402.156)" fill="#fff"/>
          <path id="Pfad_2129" data-name="Pfad 2129" d="M-931.926,411.151l.327-.261-.253-.317-.327.261-.138-.173.8-.637.138.173-.306.244.253.317.305-.244.139.174-.8.637Z" transform="translate(934.022 -408.157)" fill="#fff"/>
          <path id="Pfad_2130" data-name="Pfad 2130" d="M-922.792,423.681l.847-.57.278.413a.342.342,0,0,1,.072.272.342.342,0,0,1-.151.2.347.347,0,0,1-.174.057.272.272,0,0,1-.176-.045l-.22.378-.138-.206.2-.355-.11-.163-.3.2Zm.6-.135.156.231a.1.1,0,0,0,.165.028.133.133,0,0,0,.056-.07.105.105,0,0,0-.021-.092l-.156-.231Z" transform="translate(925.365 -420.051)" fill="#fff"/>
          <path id="Pfad_2131" data-name="Pfad 2131" d="M-916.63,433.41l.87-.534.116.189-.87.534Z" transform="translate(919.765 -428.925)" fill="#fff"/>
          <path id="Pfad_2132" data-name="Pfad 2132" d="M-912.981,438.993a.418.418,0,0,1-.056-.262.436.436,0,0,1,.116-.242l.162.137a.32.32,0,0,0-.059.138.2.2,0,0,0,.022.131.2.2,0,0,0,.078.085.088.088,0,0,0,.088,0,.078.078,0,0,0,.038-.055.206.206,0,0,0,0-.074q-.005-.035-.02-.105c-.006-.031-.011-.055-.013-.07s-.006-.039-.01-.069a.389.389,0,0,1,0-.072q0-.026.009-.065a.183.183,0,0,1,.023-.065.317.317,0,0,1,.044-.056.278.278,0,0,1,.066-.05.261.261,0,0,1,.226-.017.385.385,0,0,1,.2.187.368.368,0,0,1,.05.236.338.338,0,0,1-.1.2l-.153-.142a.17.17,0,0,0,.013-.2q-.061-.108-.133-.067a.052.052,0,0,0-.023.027.122.122,0,0,0,0,.051c0,.023,0,.041.006.055s.006.038.012.073.012.064.015.084.007.048.011.083a.308.308,0,0,1,0,.09.672.672,0,0,1-.021.08.2.2,0,0,1-.047.077.338.338,0,0,1-.08.061.276.276,0,0,1-.253.018A.429.429,0,0,1-912.981,438.993Z" transform="translate(916.503 -433.819)" fill="#fff"/>
          <path id="Pfad_2133" data-name="Pfad 2133" d="M-909.075,447.5l.307-.428-.3-.068-.2.1-.1-.2.918-.448.1.2-.434.212.6.132.117.24-.467-.111-.427.608Z" transform="translate(913.165 -441.267)" fill="#fff"/>
        </g>
      </g>
      <g id="Gruppe_1917" data-name="Gruppe 1917" transform="translate(9.522 7.368)">
        <g id="Gruppe_1911" data-name="Gruppe 1911" transform="translate(0 3.315)">
          <g id="Gruppe_1909" data-name="Gruppe 1909" transform="translate(1.013 0.939)">
            <ellipse id="Ellipse_93" data-name="Ellipse 93" cx="5.987" cy="5.987" rx="5.987" ry="5.987" transform="translate(0 0.345) rotate(-1.649)" fill="#fff"/>
          </g>
          <g id="Gruppe_1910" data-name="Gruppe 1910" transform="translate(0 0)">
            <ellipse id="Ellipse_94" data-name="Ellipse 94" cx="5.987" cy="5.987" rx="5.987" ry="5.987" transform="matrix(0.983, -0.182, 0.182, 0.983, 0, 2.183)" fill="#e7f0f7"/>
          </g>
        </g>
        <g id="Gruppe_1912" data-name="Gruppe 1912" transform="matrix(-0.53, -0.848, 0.848, -0.53, 6.323, 13.857)">
          <path id="Pfad_2134" data-name="Pfad 2134" d="M5.555,3.1a7.537,7.537,0,0,1-.134.924c-.136.7-.269,1.408-.4,2.112l-.773,4.021-1.346,7a.106.106,0,0,1-.208,0L1.063,8.7l-.7-3.652c-.254-1.321-.8-2.792.291-4.025A2.883,2.883,0,0,1,2.58.008Q2.687,0,2.794,0A2.733,2.733,0,0,1,4.927,1.033,3,3,0,0,1,5.469,2.1,2.968,2.968,0,0,1,5.555,3.1Z" transform="translate(0 0)" fill="#494d56"/>
          <path id="Pfad_2135" data-name="Pfad 2135" d="M0,0H.012A2.734,2.734,0,0,1,2.145,1.033,3,3,0,0,1,2.687,2.1a2.966,2.966,0,0,1,.086,1,7.517,7.517,0,0,1-.134.924c-.136.7-.269,1.408-.4,2.112l-.773,4.021-1.346,7A.1.1,0,0,1,0,17.243Z" transform="translate(2.782 0)" fill="#fff" opacity="0.1"/>
        </g>
        <g id="Gruppe_1916" data-name="Gruppe 1916" transform="matrix(-0.53, -0.848, 0.848, -0.53, 6.152, 15.765)">
          <g id="Gruppe_1913" data-name="Gruppe 1913" transform="translate(0 0.099)" opacity="0.1">
            <ellipse id="Ellipse_95" data-name="Ellipse 95" cx="3.173" cy="3.173" rx="3.173" ry="3.173" transform="translate(6.18 0) rotate(76.85)" fill="#494d56"/>
          </g>
          <g id="Gruppe_1914" data-name="Gruppe 1914" transform="translate(0.735 0)">
            <ellipse id="Ellipse_96" data-name="Ellipse 96" cx="3.044" cy="3.044" rx="3.044" ry="3.044" transform="translate(5.929 0) rotate(76.85)" fill="#fff"/>
          </g>
          <g id="Gruppe_1915" data-name="Gruppe 1915" transform="translate(0.43 0.105)">
            <ellipse id="Ellipse_97" data-name="Ellipse 97" cx="3.044" cy="3.044" rx="3.044" ry="3.044" transform="translate(1.438 0) rotate(13.666)" fill="#e7f0f7"/>
          </g>
        </g>
      </g>
    </g>
  </g>
</svg>
