<svg xmlns="http://www.w3.org/2000/svg" xmlns:xlink="http://www.w3.org/1999/xlink" width="418" height="330" viewBox="0 0 418 330">
  <defs>
    <clipPath id="clip-path">
      <rect id="Rechteck_1143" data-name="Rechteck 1143" width="418" height="330" transform="translate(18721 -11058)" fill="none" stroke="#707070" stroke-width="1"/>
    </clipPath>
  </defs>
  <g id="high_risk" transform="translate(-18721 11058)" clip-path="url(#clip-path)">
    <g id="high_risk-2" data-name="high_risk" transform="translate(18730 -11042)">
      <g id="Gruppe_1908" data-name="Gruppe 1908" transform="translate(0 0)">
        <path id="Pfad_2104" data-name="Pfad 2104" d="M-1116.123,454.568l-42.524-72.95a199.256,199.256,0,0,0-63.348,58.535,199.29,199.29,0,0,0-32.676,79.821l83.219,14.317A114.89,114.89,0,0,1-1116.123,454.568Z" transform="translate(1257.283 -333.842)" fill="#fd0"/>
        <path id="Pfad_2105" data-name="Pfad 2105" d="M-1067.446,441.541a114.257,114.257,0,0,1,56.991,15.126l41.914-73.3a199.257,199.257,0,0,0-98.906-26.281A199.263,199.263,0,0,0-1167.788,384.2l42.525,72.951A114.26,114.26,0,0,1-1067.446,441.541Z" transform="translate(1266.424 -336.423)" fill="#f99d0c"/>
        <path id="Pfad_2106" data-name="Pfad 2106" d="M-969.435,533.428l83.088-15.008a199.245,199.245,0,0,0-33.338-79.547,199.255,199.255,0,0,0-63.833-58l-41.913,73.3A114.916,114.916,0,0,1-969.435,533.428Z" transform="translate(1281.401 -333.921)" fill="#f35c19"/>
        <g id="Gruppe_1905" data-name="Gruppe 1905" transform="translate(0 57.767)">
          <path id="Pfad_2107" data-name="Pfad 2107" d="M-1245.962,457.767l-11.072-5.534,1.2-2.4,8.749,4.372,2.656-5.314,2.325,1.162Z" transform="translate(1257.034 -384.531)" fill="#fff"/>
          <path id="Pfad_2108" data-name="Pfad 2108" d="M-1239.535,446.091a5.722,5.722,0,0,1-1.364,1.655,4.446,4.446,0,0,1-1.642.87,5.717,5.717,0,0,1-1.779.18,7.145,7.145,0,0,1-1.8-.327,9.145,9.145,0,0,1-1.7-.751,9.018,9.018,0,0,1-1.517-1.073,7.035,7.035,0,0,1-1.2-1.374,5.632,5.632,0,0,1-.759-1.62,4.457,4.457,0,0,1-.1-1.854,5.667,5.667,0,0,1,.719-2.02,5.516,5.516,0,0,1,1.731-1.927,4.366,4.366,0,0,1,2.154-.749,7.4,7.4,0,0,1,2.234.2,8.4,8.4,0,0,1,2.151.866,8.344,8.344,0,0,1,1.847,1.4,7.3,7.3,0,0,1,1.32,1.815,4.361,4.361,0,0,1,.461,2.232A5.52,5.52,0,0,1-1239.535,446.091Zm-2.261-1.282a2.134,2.134,0,0,0,.223-1.664,3.365,3.365,0,0,0-.826-1.482,5.911,5.911,0,0,0-1.379-1.067,6.639,6.639,0,0,0-1.657-.677,3.125,3.125,0,0,0-1.672.047,2.206,2.206,0,0,0-1.317,1.085,2.208,2.208,0,0,0-.245,1.7,3.2,3.2,0,0,0,.831,1.478,6.424,6.424,0,0,0,1.4,1.059,6.059,6.059,0,0,0,1.222.53,4.862,4.862,0,0,0,1.271.213,2.361,2.361,0,0,0,1.219-.286A2.332,2.332,0,0,0-1241.8,444.809Z" transform="translate(1257.622 -385.773)" fill="#fff"/>
          <path id="Pfad_2109" data-name="Pfad 2109" d="M-1235.544,439.622l-11.809-4.565,1.521-2.322,6.225,2.535a1.806,1.806,0,0,1,.312.139,2.241,2.241,0,0,0,.257.126c-.043-.042-.121-.107-.233-.2a2.107,2.107,0,0,1-.267-.238l-4.625-4.912,1.289-1.967,6.375,2.273c.1.04.224.091.364.155a2.593,2.593,0,0,1,.256.125,1.721,1.721,0,0,0-.145-.136c-.061-.055-.12-.106-.172-.155s-.105-.1-.157-.147l-4.834-4.688,1.52-2.323,8.893,9.018-1.4,2.129-6.7-2.32c-.1-.038-.313-.134-.635-.289a4.46,4.46,0,0,1,.5.456l4.858,5.171Z" transform="translate(1258.052 -387.22)" fill="#fff"/>
          <path id="Pfad_2110" data-name="Pfad 2110" d="M-1226.686,426.21l-9.723-7.661,3.73-4.736a4.144,4.144,0,0,1,2.872-1.846,4.151,4.151,0,0,1,2.884,1,4.232,4.232,0,0,1,1.308,1.8,3.31,3.31,0,0,1,.137,2.2l5.183,1.136-1.859,2.359-4.821-.937-1.478,1.875,3.431,2.7Zm-3.767-6.391,2.089-2.653a1.267,1.267,0,0,0-.288-2.006,1.628,1.628,0,0,0-1.016-.382,1.279,1.279,0,0,0-.986.582l-2.093,2.654Z" transform="translate(1259.205 -388.417)" fill="#fff"/>
          <path id="Pfad_2111" data-name="Pfad 2111" d="M-1219.693,417.09l-9.391-8.064,1.752-2.041,9.39,8.065Z" transform="translate(1259.974 -388.94)" fill="#fff"/>
          <path id="Pfad_2112" data-name="Pfad 2112" d="M-1213.658,410.751a5.053,5.053,0,0,1-2.817,1.618,5.3,5.3,0,0,1-3.22-.443l.975-2.377a3.891,3.891,0,0,0,1.815.166,2.424,2.424,0,0,0,1.43-.748,2.439,2.439,0,0,0,.687-1.221,1.065,1.065,0,0,0-.355-1.007.948.948,0,0,0-.777-.227,2.486,2.486,0,0,0-.861.238q-.382.189-1.143.618c-.333.188-.588.326-.761.417s-.425.211-.761.366a4.769,4.769,0,0,1-.814.3c-.206.05-.468.1-.783.142a2.243,2.243,0,0,1-.839-.02,3.884,3.884,0,0,1-.807-.3,3.462,3.462,0,0,1-.827-.577,3.168,3.168,0,0,1-1.032-2.551,4.677,4.677,0,0,1,1.416-3.006,4.46,4.46,0,0,1,2.536-1.457,4.087,4.087,0,0,1,2.654.415l-1.065,2.292a2.059,2.059,0,0,0-2.355.586q-1.025,1.1-.286,1.788a.637.637,0,0,0,.4.174,1.5,1.5,0,0,0,.608-.136q.384-.152.607-.267c.152-.076.416-.213.793-.41.395-.216.7-.379.915-.49s.523-.258.922-.436a3.724,3.724,0,0,1,1.046-.319,7.762,7.762,0,0,1,1-.05,2.446,2.446,0,0,1,1.066.255,4.061,4.061,0,0,1,1,.7,3.344,3.344,0,0,1,1.143,2.848A5.2,5.2,0,0,1-1213.658,410.751Z" transform="translate(1260.45 -389.61)" fill="#fff"/>
          <path id="Pfad_2113" data-name="Pfad 2113" d="M-1204.155,401.311l-6.075-1.96.337,3.747,1.863,1.938-1.938,1.863-8.577-8.927,1.938-1.862,4.057,4.221-.718-7.43,2.335-2.242.448,5.8,8.6,2.673Z" transform="translate(1261.083 -390.658)" fill="#fff"/>
        </g>
        <g id="Gruppe_1906" data-name="Gruppe 1906" transform="translate(127.392 0)">
          <path id="Pfad_2114" data-name="Pfad 2114" d="M-1126.891,357.854l-2.564.806-1.839-5.853c-.034-.113-.068-.239-.1-.377-.014.151-.028.281-.046.385l-.956,6.992-4.8-5.147c-.059-.066-.142-.177-.251-.328l.115.372,1.839,5.854-2.564.806-3.709-11.81,2.614-.821,4.644,5.159q.2.234.521.652.018-.523.052-.832l.943-6.913,2.4-.753Z" transform="translate(1141.769 -337.584)" fill="#fff"/>
          <path id="Pfad_2115" data-name="Pfad 2115" d="M-1121.012,356.455a5.762,5.762,0,0,1-2.143.144,4.42,4.42,0,0,1-1.758-.6,5.651,5.651,0,0,1-1.351-1.169,7.038,7.038,0,0,1-1-1.532,8.909,8.909,0,0,1-.62-1.749,9,9,0,0,1-.262-1.839,7.162,7.162,0,0,1,.173-1.818,5.653,5.653,0,0,1,.657-1.663,4.411,4.411,0,0,1,1.281-1.343,5.7,5.7,0,0,1,1.964-.866,5.5,5.5,0,0,1,2.588-.062,4.338,4.338,0,0,1,2.023,1.051,7.257,7.257,0,0,1,1.39,1.761,8.385,8.385,0,0,1,.848,2.159,8.407,8.407,0,0,1,.25,2.307,7.485,7.485,0,0,1-.415,2.2,4.359,4.359,0,0,1-1.307,1.868A5.518,5.518,0,0,1-1121.012,356.455Zm-.62-2.523a2.134,2.134,0,0,0,1.361-.98,3.35,3.35,0,0,0,.512-1.62,5.93,5.93,0,0,0-.17-1.734,6.56,6.56,0,0,0-.646-1.67,3.121,3.121,0,0,0-1.184-1.185,2.213,2.213,0,0,0-1.691-.213,2.208,2.208,0,0,0-1.4.992,3.226,3.226,0,0,0-.5,1.617,6.435,6.435,0,0,0,.192,1.746,5.991,5.991,0,0,0,.455,1.255,4.9,4.9,0,0,0,.717,1.072,2.388,2.388,0,0,0,1.044.69A2.342,2.342,0,0,0-1121.632,353.931Z" transform="translate(1143.201 -337.817)" fill="#fff"/>
          <path id="Pfad_2116" data-name="Pfad 2116" d="M-1117.146,342.589l4.487-.821a6.853,6.853,0,0,1,2.808.018,4.757,4.757,0,0,1,2.124,1.05,6.279,6.279,0,0,1,1.381,1.752,7.416,7.416,0,0,1,.749,2.182,7.513,7.513,0,0,1,.118,1.73,6.255,6.255,0,0,1-.344,1.753,5.473,5.473,0,0,1-.872,1.616,5.35,5.35,0,0,1-1.545,1.289,6.983,6.983,0,0,1-2.263.8l-4.42.808Zm6.46,8.8a2.6,2.6,0,0,0,2.05-1.48,4.325,4.325,0,0,0,.291-2.633,4.475,4.475,0,0,0-1.179-2.374,2.394,2.394,0,0,0-2.277-.7l-2.243.41,1.307,7.148Z" transform="translate(1144.359 -338.048)" fill="#fff"/>
          <path id="Pfad_2117" data-name="Pfad 2117" d="M-1103.733,352.816l-1.529-12.283,8.827-1.1.313,2.526-6.158.769.268,2.159,3.439-.429.314,2.526-3.438.429.315,2.526,6.509-.812.318,2.544Z" transform="translate(1145.61 -338.28)" fill="#fff"/>
          <path id="Pfad_2118" data-name="Pfad 2118" d="M-1093.82,351.563l-.842-12.351,6.018-.409a4.145,4.145,0,0,1,3.3.892,4.154,4.154,0,0,1,1.192,2.809,4.257,4.257,0,0,1-.454,2.176,3.309,3.309,0,0,1-1.542,1.575l2.635,4.607-3,.2-2.536-4.206-2.382.163.3,4.357Zm2.213-7.081,3.369-.229q1.393-.1,1.293-1.56a1.6,1.6,0,0,0-.4-1.009,1.282,1.282,0,0,0-1.095-.343l-3.37.23Z" transform="translate(1146.725 -338.348)" fill="#fff"/>
          <path id="Pfad_2119" data-name="Pfad 2119" d="M-1074.456,350.767l-.94-2.4-4.65.039-.9,2.414-2.934.024,4.774-12.419,2.582-.021,5,12.335Zm-1.863-4.863-1.083-2.661a9.385,9.385,0,0,1-.38-1.041,8.555,8.555,0,0,1-.361,1.047l-1.04,2.679Z" transform="translate(1147.86 -338.388)" fill="#fff"/>
          <path id="Pfad_2120" data-name="Pfad 2120" d="M-1067.168,341.214l-.383,9.789-2.687-.1.385-9.789-3.551-.139.1-2.58,9.788.384-.1,2.58Z" transform="translate(1148.961 -338.39)" fill="#fff"/>
          <path id="Pfad_2121" data-name="Pfad 2121" d="M-1063.382,351.214l1.135-12.326,8.856.814-.232,2.535-6.181-.568-.2,2.166,3.451.317-.232,2.537-3.452-.319-.233,2.537,6.531.6-.234,2.553Z" transform="translate(1150.015 -338.338)" fill="#fff"/>
          <path id="Pfad_2122" data-name="Pfad 2122" d="M-1049.361,352.72l2.093-12.2,5.941,1.02a4.142,4.142,0,0,1,2.994,1.643,4.157,4.157,0,0,1,.5,3.011,4.216,4.216,0,0,1-.955,2.006,3.305,3.305,0,0,1-1.867,1.169l1.474,5.1-2.962-.509-1.474-4.684-2.353-.4-.74,4.3Zm3.817-6.361,3.329.57a1.266,1.266,0,0,0,1.625-1.21,1.6,1.6,0,0,0-.149-1.075,1.274,1.274,0,0,0-.981-.59l-3.33-.57Z" transform="translate(1151.491 -338.166)" fill="#fff"/>
          <path id="Pfad_2123" data-name="Pfad 2123" d="M-1038.313,354.726l2.613-12.1,2.628.567-2.613,12.1Z" transform="translate(1152.653 -337.944)" fill="#fff"/>
          <path id="Pfad_2124" data-name="Pfad 2124" d="M-1029.594,356.927a5.072,5.072,0,0,1-2.766-1.707,5.3,5.3,0,0,1-1.144-3.042l2.556-.274a3.851,3.851,0,0,0,.719,1.673,2.412,2.412,0,0,0,1.338.9,2.453,2.453,0,0,0,1.4.023,1.067,1.067,0,0,0,.714-.793.943.943,0,0,0-.171-.793,2.511,2.511,0,0,0-.619-.642c-.232-.164-.593-.4-1.086-.708-.325-.205-.566-.363-.728-.471s-.39-.274-.687-.5a4.625,4.625,0,0,1-.656-.57c-.144-.159-.308-.365-.5-.621a2.213,2.213,0,0,1-.383-.746,3.771,3.771,0,0,1-.118-.853,3.373,3.373,0,0,1,.112-1,3.161,3.161,0,0,1,1.75-2.125,4.68,4.68,0,0,1,3.316-.188,4.464,4.464,0,0,1,2.49,1.537,4.089,4.089,0,0,1,.9,2.532l-2.523.153a2.061,2.061,0,0,0-1.637-1.792c-.973-.249-1.54-.049-1.708.6a.629.629,0,0,0,.036.429,1.461,1.461,0,0,0,.408.472c.21.176.385.311.523.408s.387.264.74.5c.376.242.663.434.867.57s.474.338.819.6a3.787,3.787,0,0,1,.781.766,8.3,8.3,0,0,1,.52.854,2.482,2.482,0,0,1,.284,1.059,4.093,4.093,0,0,1-.138,1.207,3.342,3.342,0,0,1-1.959,2.363A5.2,5.2,0,0,1-1029.594,356.927Z" transform="translate(1153.159 -337.77)" fill="#fff"/>
          <path id="Pfad_2125" data-name="Pfad 2125" d="M-1016.506,360.626l-1.172-6.276-3.133,2.081-.817,2.562-2.56-.818,3.762-11.793,2.562.818-1.78,5.577,6.193-4.169,3.082.983-4.886,3.156,1.749,8.836Z" transform="translate(1154.139 -337.549)" fill="#fff"/>
        </g>
        <g id="Gruppe_1907" data-name="Gruppe 1907" transform="translate(338.214 56.542)">
          <path id="Pfad_2126" data-name="Pfad 2126" d="M-945.479,403.772l3.479-3.7-3.579-3.37-3.479,3.7-1.957-1.843,8.484-9.012,1.958,1.841-3.249,3.451,3.58,3.37,3.247-3.45,1.972,1.854-8.484,9.015Z" transform="translate(951.016 -389.549)" fill="#fff"/>
          <path id="Pfad_2127" data-name="Pfad 2127" d="M-942.607,406.613l8.866-8.639,1.875,1.926-8.866,8.637Z" transform="translate(951.9 -388.663)" fill="#fff"/>
          <path id="Pfad_2128" data-name="Pfad 2128" d="M-936.227,413.706a5.43,5.43,0,0,1-1.241-2.19,4.471,4.471,0,0,1-.062-2.251,7.059,7.059,0,0,1,.87-2.076,8.341,8.341,0,0,1,1.544-1.826,7.749,7.749,0,0,1,1.914-1.269,7.4,7.4,0,0,1,2.176-.636,4.774,4.774,0,0,1,2.277.273,5.071,5.071,0,0,1,2.046,1.418,4.487,4.487,0,0,1,1.236,2.515,7.166,7.166,0,0,1-.293,2.77l-2.557-.863a2.739,2.739,0,0,0-.308-2.7,2.174,2.174,0,0,0-1.529-.765,3.181,3.181,0,0,0-1.646.325,6.607,6.607,0,0,0-1.45,1.007,5.172,5.172,0,0,0-1.576,2.307,2.184,2.184,0,0,0,.519,2.231,1.948,1.948,0,0,0,1.254.655,1.486,1.486,0,0,0,1.233-.347l.066-.059-1.347-1.5,1.907-1.714,3.19,3.552-1.447,1.3a4.917,4.917,0,0,1-3.565,1.455A4.519,4.519,0,0,1-936.227,413.706Z" transform="translate(952.423 -388.089)" fill="#fff"/>
          <path id="Pfad_2129" data-name="Pfad 2129" d="M-927.573,423.691l3.964-3.167-3.065-3.841-3.966,3.167-1.677-2.1,9.673-7.726,1.677,2.1-3.7,2.958,3.067,3.841,3.7-2.958,1.689,2.114-9.673,7.725Z" transform="translate(952.984 -387.395)" fill="#fff"/>
          <path id="Pfad_2130" data-name="Pfad 2130" d="M-922.792,430.025l10.269-6.914,3.368,5a4.144,4.144,0,0,1,.877,3.3,4.15,4.15,0,0,1-1.834,2.437,4.21,4.21,0,0,1-2.11.7,3.3,3.3,0,0,1-2.136-.544l-2.667,4.588-1.679-2.5,2.371-4.3-1.335-1.979-3.623,2.439Zm7.235-1.631,1.888,2.8a1.267,1.267,0,0,0,2,.338,1.618,1.618,0,0,0,.675-.848,1.279,1.279,0,0,0-.253-1.12l-1.886-2.8Z" transform="translate(953.986 -386.018)" fill="#fff"/>
          <path id="Pfad_2131" data-name="Pfad 2131" d="M-916.63,439.347l10.551-6.471,1.407,2.292-10.552,6.472Z" transform="translate(954.634 -384.99)" fill="#fff"/>
          <path id="Pfad_2132" data-name="Pfad 2132" d="M-912.325,447.133a5.058,5.058,0,0,1-.677-3.179,5.286,5.286,0,0,1,1.409-2.929l1.962,1.658a3.878,3.878,0,0,0-.711,1.676,2.409,2.409,0,0,0,.271,1.59,2.447,2.447,0,0,0,.952,1.026,1.064,1.064,0,0,0,1.068-.029.944.944,0,0,0,.454-.671,2.481,2.481,0,0,0,.037-.892q-.064-.421-.238-1.275-.114-.565-.163-.852t-.115-.838a4.666,4.666,0,0,1-.041-.869q.023-.316.105-.789a2.213,2.213,0,0,1,.275-.792,3.818,3.818,0,0,1,.534-.675,3.37,3.37,0,0,1,.8-.611,3.164,3.164,0,0,1,2.745-.2,4.671,4.671,0,0,1,2.428,2.27,4.463,4.463,0,0,1,.61,2.86,4.1,4.1,0,0,1-1.209,2.4l-1.854-1.716a2.063,2.063,0,0,0,.163-2.423q-.737-1.312-1.615-.818a.623.623,0,0,0-.284.322,1.479,1.479,0,0,0-.059.62c.018.274.041.494.067.661s.075.461.146.88c.086.44.146.78.188,1.021s.084.578.132,1.011a3.765,3.765,0,0,1-.016,1.093,8.252,8.252,0,0,1-.258.966,2.467,2.467,0,0,1-.57.937,4.064,4.064,0,0,1-.967.736,3.343,3.343,0,0,1-3.062.215A5.2,5.2,0,0,1-912.325,447.133Z" transform="translate(955.011 -384.424)" fill="#fff"/>
          <path id="Pfad_2133" data-name="Pfad 2133" d="M-905.829,459.133l3.727-5.185-3.669-.826-2.416,1.181-1.18-2.417,11.124-5.431,1.179,2.416-5.26,2.568,7.293,1.595,1.42,2.909-5.658-1.351-5.178,7.368Z" transform="translate(955.398 -383.561)" fill="#fff"/>
        </g>
      </g>
      <g id="Gruppe_1917" data-name="Gruppe 1917" transform="translate(115.416 89.308)">
        <g id="Gruppe_1911" data-name="Gruppe 1911" transform="translate(0 40.186)">
          <g id="Gruppe_1909" data-name="Gruppe 1909" transform="translate(12.281 11.377)">
            <ellipse id="Ellipse_93" data-name="Ellipse 93" cx="72.57" cy="72.57" rx="72.57" ry="72.57" transform="translate(0 4.177) rotate(-1.649)" fill="#fff"/>
          </g>
          <g id="Gruppe_1910" data-name="Gruppe 1910" transform="translate(0 0)">
            <ellipse id="Ellipse_94" data-name="Ellipse 94" cx="72.57" cy="72.57" rx="72.57" ry="72.57" transform="matrix(0.983, -0.182, 0.182, 0.983, 0, 26.459)" fill="#e7f0f7"/>
          </g>
        </g>
        <g id="Gruppe_1912" data-name="Gruppe 1912" transform="matrix(-0.53, -0.848, 0.848, -0.53, 76.642, 167.96)">
          <path id="Pfad_2134" data-name="Pfad 2134" d="M67.331,37.586a91.354,91.354,0,0,1-1.619,11.2c-1.651,8.528-3.264,17.064-4.9,25.6q-4.685,24.372-9.37,48.743c-4.691,24.4-13.123,68.264-16.313,84.863a1.282,1.282,0,0,1-2.519,0L12.888,105.4,4.378,61.13C1.3,45.117-5.259,27.29,7.905,12.344,13.95,5.482,22.157.786,31.275.1Q32.568,0,33.866,0A33.131,33.131,0,0,1,59.717,12.521a36.389,36.389,0,0,1,6.57,12.9A35.98,35.98,0,0,1,67.331,37.586Z" transform="translate(0 0.001)" fill="#494d56"/>
          <path id="Pfad_2135" data-name="Pfad 2135" d="M0,.006C.049.006.1,0,.146,0A33.135,33.135,0,0,1,26,12.522a36.391,36.391,0,0,1,6.57,12.9,35.949,35.949,0,0,1,1.043,12.169,91.12,91.12,0,0,1-1.619,11.2c-1.651,8.528-3.264,17.063-4.9,25.595Q22.4,98.752,17.719,123.124c-4.691,24.4-13.122,68.265-16.313,84.864A1.244,1.244,0,0,1,0,209Z" transform="translate(33.72 0)" fill="#fff" opacity="0.1"/>
        </g>
        <g id="Gruppe_1916" data-name="Gruppe 1916" transform="matrix(-0.53, -0.848, 0.848, -0.53, 74.573, 191.09)">
          <g id="Gruppe_1913" data-name="Gruppe 1913" transform="translate(0 1.199)" opacity="0.1">
            <ellipse id="Ellipse_95" data-name="Ellipse 95" cx="38.466" cy="38.465" rx="38.466" ry="38.465" transform="translate(74.913 0) rotate(76.85)" fill="#494d56"/>
          </g>
          <g id="Gruppe_1914" data-name="Gruppe 1914" transform="translate(8.907 0)">
            <ellipse id="Ellipse_96" data-name="Ellipse 96" cx="36.899" cy="36.899" rx="36.899" ry="36.899" transform="translate(71.863 0) rotate(76.85)" fill="#fff"/>
          </g>
          <g id="Gruppe_1915" data-name="Gruppe 1915" transform="translate(5.216 1.268)">
            <ellipse id="Ellipse_97" data-name="Ellipse 97" cx="36.899" cy="36.899" rx="36.899" ry="36.899" transform="translate(17.436 0) rotate(13.666)" fill="#e7f0f7"/>
          </g>
        </g>
      </g>
    </g>
  </g>
</svg>
