<svg xmlns="http://www.w3.org/2000/svg" xmlns:xlink="http://www.w3.org/1999/xlink" width="24.015" height="24.014" viewBox="0 0 24.015 24.014">
  <defs>
    <clipPath id="clip-path">
      <rect id="Rechteck_1135" data-name="Rechteck 1135" width="24.015" height="24.014" transform="translate(0 0)" fill="none"/>
    </clipPath>
  </defs>
  <g id="internet_icon" transform="translate(0 0)">
    <g id="Gruppe_2371" data-name="Gruppe 2371" clip-path="url(#clip-path)">
      <path id="Pfad_3196" data-name="Pfad 3196" d="M13.6,23.155a11.556,11.556,0,0,1-1.588.109A11.257,11.257,0,1,1,23.15,13.606" fill="none" stroke="#000" stroke-linecap="round" stroke-linejoin="round" stroke-width="1.5"/>
      <path id="Pfad_3197" data-name="Pfad 3197" d="M9.3,22.935C7.78,20.7,6.762,16.647,6.762,12.014S7.78,3.326,9.3,1.093" fill="none" stroke="#000" stroke-linecap="round" stroke-linejoin="round" stroke-width="1.5"/>
      <line id="Linie_43" data-name="Linie 43" x2="10.475" transform="translate(0.787 11.264)" fill="none" stroke="#000" stroke-linecap="round" stroke-linejoin="round" stroke-width="1.5"/>
      <line id="Linie_44" data-name="Linie 44" x2="6.726" transform="translate(16.512 11.264)" fill="none" stroke="#000" stroke-linecap="round" stroke-linejoin="round" stroke-width="1.5"/>
      <line id="Linie_45" data-name="Linie 45" x2="18.001" transform="translate(3.012 5.264)" fill="none" stroke="#000" stroke-linecap="round" stroke-linejoin="round" stroke-width="1.5"/>
      <line id="Linie_46" data-name="Linie 46" x2="8.452" transform="translate(2.06 17.264)" fill="none" stroke="#000" stroke-linecap="round" stroke-linejoin="round" stroke-width="1.5"/>
      <path id="Pfad_3198" data-name="Pfad 3198" d="M14.723,1.093c1.348,1.978,2.3,5.386,2.5,9.359q.021.408.031.813" fill="none" stroke="#000" stroke-linecap="round" stroke-linejoin="round" stroke-width="1.5"/>
      <path id="Pfad_3199" data-name="Pfad 3199" d="M13.026,13.86l2.158,7.191a.667.667,0,0,0,1.112.281l1.1-1.1,2.835,2.836a.67.67,0,0,0,.945,0l1.891-1.891a.668.668,0,0,0,0-.945L20.231,17.4l1.1-1.1a.669.669,0,0,0-.28-1.112l-7.192-2.158a.668.668,0,0,0-.833.834Z" fill="none" stroke="#000" stroke-linecap="round" stroke-linejoin="round" stroke-width="1.5"/>
    </g>
  </g>
</svg>
