<svg id="Logo_HG" xmlns="http://www.w3.org/2000/svg" xmlns:xlink="http://www.w3.org/1999/xlink" width="265.631" height="130.333" viewBox="0 0 265.631 130.333">
  <defs>
    <clipPath id="clip-path">
      <rect id="Rechteck_516" data-name="Rechteck 516" width="265.13" height="130.333" fill="none"/>
    </clipPath>
  </defs>
  <text id="Healthy" transform="translate(141.632 57.357)" fill="#232323" font-size="33" font-family="Overpass-Black, Overpass" font-weight="800"><tspan x="0" y="0">Healt</tspan><tspan y="0" letter-spacing="-0.01em">h</tspan><tspan y="0">y</tspan></text>
  <text id="Gumz" transform="translate(141.632 91.304)" fill="#232323" font-size="33" font-family="Overpass-Light, Overpass" font-weight="300"><tspan x="0" y="0">Gumz</tspan></text>
  <g id="Gruppe_1128" data-name="Gruppe 1128">
    <g id="Gruppe_1127" data-name="Gruppe 1127" clip-path="url(#clip-path)">
      <path id="Differenzmenge_2" data-name="Differenzmenge 2" d="M61.219,121.817a61.246,61.246,0,0,1-56.408-37.2,60.655,60.655,0,0,1,13.12-66.777,61.37,61.37,0,0,1,86.576,0A60.935,60.935,0,0,1,61.219,121.817Zm-.855-48.553.07,0c.054,0,.1.007.153.013,3.219.3,6.221,2.889,8.452,7.288a36.858,36.858,0,0,1,3.472,16.314c0,1.136-.043,2.282-.129,3.406a15.035,15.035,0,0,0,1.006,6.782,10.653,10.653,0,0,0,.564,1.187c.007.012.013.025.019.037s.014.03.021.044l.025.039.023.036c.064.112.131.223.2.322l.068.107.022.035c.1.149.2.285.3.4a.34.34,0,0,0,.031.04l.015.018c.095.116.18.213.26.3.025.027.051.053.076.078l.035.035c.061.059.133.128.207.193l.079.065.048.04c.067.054.133.1.2.151l.011.008c.039.027.079.054.117.079.094.058.191.113.289.163a.11.11,0,0,1,.028.013.084.084,0,0,0,.02.01,2.675,2.675,0,0,0,.357.143l.014,0,.064.017c.094.027.191.051.29.07l.039.009.032,0,.032,0a1.7,1.7,0,0,0,.237.025c.047,0,.089.006.126.006.074,0,.151,0,.226-.006h.106a6.427,6.427,0,0,0,4.077-1.836A22.908,22.908,0,0,0,85.8,103.8a82.8,82.8,0,0,0,7.783-17.607,167.112,167.112,0,0,0,5.8-23.439,146.311,146.311,0,0,0,2.273-24.439A23.063,23.063,0,0,0,68.278,17.863a23.258,23.258,0,0,0-7.915,6.516,23.247,23.247,0,0,0-7.914-6.516,23.065,23.065,0,0,0-19.265-.624,23.239,23.239,0,0,0-12.274,12.2,22.563,22.563,0,0,0-1.834,8.878c-.035,12.334,2.169,27.355,6.048,41.213a122.9,122.9,0,0,0,6.192,17.427c2.341,5.136,4.7,8.917,7.017,11.238,1.687,1.692,3.312,2.55,4.83,2.55h.107c.075.006.148.006.226.006.037,0,.078,0,.125-.006a1.756,1.756,0,0,0,.238-.025l.032,0,.032,0a.321.321,0,0,1,.039-.009c.1-.018.193-.042.289-.07l.061-.016.017,0a2.7,2.7,0,0,0,.357-.143.086.086,0,0,0,.023-.011.108.108,0,0,1,.025-.012c.105-.054.2-.107.29-.163.039-.025.079-.052.117-.079l.026-.018c.063-.044.128-.09.189-.141l.082-.068.045-.038c.067-.059.137-.125.207-.193l.038-.037c.025-.024.051-.049.075-.076.081-.087.166-.184.259-.3l.015-.018a.421.421,0,0,0,.033-.041,4.889,4.889,0,0,0,.3-.4c.031-.046.06-.093.09-.142.06-.09.124-.2.2-.322l.013-.02.005-.008.032-.047c.006-.012.011-.024.017-.036s.013-.03.022-.045a10.043,10.043,0,0,0,.562-1.187,15.022,15.022,0,0,0,1.008-6.782c-.087-1.121-.13-2.267-.13-3.406,0-12.581,5.224-22.946,11.893-23.6.084-.009.17-.015.252-.021h0Z" transform="translate(0 8.517)" fill="#0295fa" stroke="rgba(0,0,0,0)" stroke-miterlimit="10" stroke-width="1"/>
      <path id="Pfad_941" data-name="Pfad 941" d="M61.877,4.758c-4.411,1.863-6.136,7.756-3.852,13.162s7.709,8.279,12.12,6.417S76.281,16.581,74,11.174,66.288,2.9,61.877,4.758" transform="translate(-13.016 -0.957)" fill="#0651b9"/>
      <path id="Pfad_942" data-name="Pfad 942" d="M81.723,37.46c1.618-6.1,11.032-16.642,21.835-23.208,3.4-2.068,9.856-7.557,6.127-12.418C105.263-3.929,96.82,5.489,94.851,8.245A64.878,64.878,0,0,1,64.84,30.179c-18.021,6.3-24.562,4.018-33.681.826A22.982,22.982,0,0,0,26.8,37.479a21.712,21.712,0,0,0-1.938,7.163c17.421-3.688,25.7-3.936,27.834,4.584,3.087,12.347-1.81,19.252-19.563,46.391A96.678,96.678,0,0,0,39,109.531c.023.044,17.385-38.934,27.013-40.443C72.964,68,77,77.887,76.321,93.024c1.519,3.8,1.543,10.8,1.543,17.749,0,5.684,2.315,8.489,4.63,8.489,15.625-43.386-6.335-60.808-.772-81.8" transform="translate(-5.676 0)" fill="#0651b9"/>
      <path id="Pfad_943" data-name="Pfad 943" d="M18.046,36.047a8.3,8.3,0,0,0-9.352,3.489,9.547,9.547,0,0,0-.333,10.206L13.22,42.3Z" transform="translate(-1.607 -8.154)" fill="#0651b9"/>
    </g>
  </g>
</svg>
