<svg xmlns="http://www.w3.org/2000/svg" xmlns:xlink="http://www.w3.org/1999/xlink" width="133" height="96" viewBox="0 0 133 96">
  <defs>
    <clipPath id="clip-path">
      <rect id="Rechteck_1139" data-name="Rechteck 1139" width="133" height="96" transform="translate(17522 -10598)" fill="none" stroke="#707070" stroke-width="1"/>
    </clipPath>
  </defs>
  <g id="low_risk" transform="translate(-17522 10598)" clip-path="url(#clip-path)">
    <g id="low_risk-2" data-name="low_risk" transform="translate(17186.064 -11094.299)">
      <g id="Gruppe_1908" data-name="Gruppe 1908" transform="translate(336.217 496.294)">
        <path id="Pfad_2104" data-name="Pfad 2104" d="M-1208.6,405.874l-14.139-24.256a66.253,66.253,0,0,0-21.063,19.463,66.254,66.254,0,0,0-10.865,26.541l27.67,4.76A38.2,38.2,0,0,1-1208.6,405.874Z" transform="translate(1255.539 -365.732)" fill="#fd0"/>
        <path id="Pfad_2105" data-name="Pfad 2105" d="M-1134.424,385.169a37.993,37.993,0,0,1,18.95,5.029l13.936-24.371a66.252,66.252,0,0,0-32.886-8.738,66.254,66.254,0,0,0-33.364,9.014l14.139,24.256A37.991,37.991,0,0,1-1134.424,385.169Z" transform="translate(1200.584 -350.217)" fill="#f99d0c"/>
        <path id="Pfad_2106" data-name="Pfad 2106" d="M-1006.813,431.594l27.627-4.99a66.251,66.251,0,0,0-11.085-26.449,66.251,66.251,0,0,0-21.224-19.287l-13.936,24.371A38.209,38.209,0,0,1-1006.813,431.594Z" transform="translate(1110.541 -365.258)" fill="#f35c19"/>
        <g id="Gruppe_1905" data-name="Gruppe 1905" transform="translate(0 19.208)">
          <path id="Pfad_2107" data-name="Pfad 2107" d="M-1253.353,451.84l-3.681-1.84.4-.8,2.909,1.454.883-1.767.773.386Z" transform="translate(1257.034 -427.489)" fill="#fff"/>
          <path id="Pfad_2108" data-name="Pfad 2108" d="M-1247.483,440.081a1.9,1.9,0,0,1-.454.55,1.48,1.48,0,0,1-.546.289,1.9,1.9,0,0,1-.591.06,2.362,2.362,0,0,1-.6-.109,3.05,3.05,0,0,1-.565-.25,3.005,3.005,0,0,1-.5-.357,2.34,2.34,0,0,1-.4-.457,1.881,1.881,0,0,1-.252-.539,1.48,1.48,0,0,1-.032-.616,1.886,1.886,0,0,1,.239-.672,1.832,1.832,0,0,1,.576-.641,1.451,1.451,0,0,1,.716-.249,2.459,2.459,0,0,1,.743.066,2.8,2.8,0,0,1,.716.288,2.78,2.78,0,0,1,.614.467,2.432,2.432,0,0,1,.439.6,1.448,1.448,0,0,1,.153.742A1.832,1.832,0,0,1-1247.483,440.081Zm-.752-.426a.711.711,0,0,0,.074-.553,1.121,1.121,0,0,0-.275-.493,1.968,1.968,0,0,0-.458-.355,2.206,2.206,0,0,0-.552-.225,1.037,1.037,0,0,0-.556.016.735.735,0,0,0-.438.36.734.734,0,0,0-.081.566,1.062,1.062,0,0,0,.276.491,2.147,2.147,0,0,0,.466.352,2.007,2.007,0,0,0,.406.176,1.607,1.607,0,0,0,.423.071.785.785,0,0,0,.405-.095A.778.778,0,0,0-1248.235,439.654Z" transform="translate(1253.498 -420.025)" fill="#fff"/>
          <path id="Pfad_2109" data-name="Pfad 2109" d="M-1243.427,428.745l-3.926-1.518.506-.772,2.07.843a.6.6,0,0,1,.1.046.811.811,0,0,0,.085.042.969.969,0,0,0-.077-.065.7.7,0,0,1-.089-.079l-1.538-1.633.428-.654,2.12.756c.034.013.074.03.121.051a.881.881,0,0,1,.085.042.614.614,0,0,0-.048-.045l-.057-.051-.052-.049-1.607-1.559.506-.772,2.956,3-.464.708-2.229-.771c-.033-.013-.1-.045-.211-.1a1.4,1.4,0,0,1,.168.152l1.615,1.719Z" transform="translate(1250.911 -411.322)" fill="#fff"/>
          <path id="Pfad_2110" data-name="Pfad 2110" d="M-1233.175,416.7l-3.233-2.547,1.241-1.575a1.377,1.377,0,0,1,.955-.614,1.379,1.379,0,0,1,.959.332,1.408,1.408,0,0,1,.435.6,1.1,1.1,0,0,1,.045.731l1.724.378-.618.785-1.6-.312-.491.624,1.141.9Zm-1.253-2.125.695-.882a.421.421,0,0,0-.1-.667.539.539,0,0,0-.337-.127.425.425,0,0,0-.328.194l-.7.882Z" transform="translate(1243.988 -404.132)" fill="#fff"/>
          <path id="Pfad_2111" data-name="Pfad 2111" d="M-1225.962,410.345l-3.122-2.682.583-.678,3.122,2.682Z" transform="translate(1239.355 -400.985)" fill="#fff"/>
          <path id="Pfad_2112" data-name="Pfad 2112" d="M-1220.93,403.989a1.683,1.683,0,0,1-.937.538,1.76,1.76,0,0,1-1.07-.147l.324-.79a1.291,1.291,0,0,0,.6.055.8.8,0,0,0,.475-.248.812.812,0,0,0,.229-.406.355.355,0,0,0-.118-.335.315.315,0,0,0-.259-.075.829.829,0,0,0-.286.079q-.127.063-.38.205c-.111.062-.2.108-.253.139s-.141.07-.253.122a1.576,1.576,0,0,1-.271.1c-.069.017-.156.032-.26.047a.753.753,0,0,1-.279-.007,1.294,1.294,0,0,1-.268-.1,1.141,1.141,0,0,1-.275-.192,1.054,1.054,0,0,1-.344-.848,1.558,1.558,0,0,1,.471-1,1.484,1.484,0,0,1,.843-.484,1.36,1.36,0,0,1,.883.138l-.355.762a.685.685,0,0,0-.783.2q-.34.366-.094.594a.212.212,0,0,0,.131.058.5.5,0,0,0,.2-.045c.085-.034.153-.063.2-.089s.138-.071.264-.136.232-.126.3-.163.175-.086.307-.145a1.237,1.237,0,0,1,.348-.106,2.563,2.563,0,0,1,.332-.017.813.813,0,0,1,.355.085,1.348,1.348,0,0,1,.331.231,1.111,1.111,0,0,1,.38.947A1.728,1.728,0,0,1-1220.93,403.989Z" transform="translate(1236.489 -396.96)" fill="#fff"/>
          <path id="Pfad_2113" data-name="Pfad 2113" d="M-1213.761,394.2l-2.02-.652.112,1.246.62.645-.645.62-2.852-2.968.645-.619,1.349,1.4-.238-2.471.776-.746.149,1.928,2.86.889Z" transform="translate(1232.69 -390.658)" fill="#fff"/>
        </g>
        <g id="Gruppe_1906" data-name="Gruppe 1906" transform="translate(42.358 0)">
          <path id="Pfad_2114" data-name="Pfad 2114" d="M-1136.822,349.971l-.853.268-.612-1.946c-.011-.038-.023-.079-.033-.125,0,.05-.01.093-.015.128l-.318,2.325-1.6-1.711c-.02-.022-.047-.059-.084-.109l.039.123.611,1.947-.853.268-1.234-3.927.87-.273,1.543,1.715c.045.052.1.124.173.217q.006-.174.017-.277l.313-2.3.8-.25Z" transform="translate(1141.769 -343.231)" fill="#fff"/>
          <path id="Pfad_2115" data-name="Pfad 2115" d="M-1125.773,348.03a1.912,1.912,0,0,1-.712.048,1.468,1.468,0,0,1-.585-.2,1.883,1.883,0,0,1-.449-.389,2.339,2.339,0,0,1-.331-.509,3.012,3.012,0,0,1-.207-.582,3.02,3.02,0,0,1-.087-.611,2.363,2.363,0,0,1,.058-.6,1.875,1.875,0,0,1,.218-.553,1.469,1.469,0,0,1,.426-.447,1.9,1.9,0,0,1,.653-.288,1.83,1.83,0,0,1,.861-.021,1.449,1.449,0,0,1,.673.349,2.427,2.427,0,0,1,.461.586,2.8,2.8,0,0,1,.282.718,2.814,2.814,0,0,1,.083.767,2.473,2.473,0,0,1-.138.733,1.448,1.448,0,0,1-.435.621A1.832,1.832,0,0,1-1125.773,348.03Zm-.206-.839a.71.71,0,0,0,.453-.326,1.126,1.126,0,0,0,.17-.539,1.982,1.982,0,0,0-.057-.577,2.2,2.2,0,0,0-.215-.555,1.036,1.036,0,0,0-.394-.394.735.735,0,0,0-.562-.071.734.734,0,0,0-.467.33,1.063,1.063,0,0,0-.168.538,2.146,2.146,0,0,0,.064.581,1.992,1.992,0,0,0,.151.417,1.623,1.623,0,0,0,.238.356.792.792,0,0,0,.347.23A.78.78,0,0,0-1125.979,347.191Z" transform="translate(1133.152 -341.833)" fill="#fff"/>
          <path id="Pfad_2116" data-name="Pfad 2116" d="M-1117.147,341.95l1.492-.273a2.278,2.278,0,0,1,.933.006,1.584,1.584,0,0,1,.707.349,2.1,2.1,0,0,1,.459.582,2.477,2.477,0,0,1,.249.725,2.52,2.52,0,0,1,.039.575,2.09,2.09,0,0,1-.115.583,1.81,1.81,0,0,1-.29.537,1.769,1.769,0,0,1-.513.428,2.32,2.32,0,0,1-.752.266l-1.47.269Zm2.148,2.924a.864.864,0,0,0,.681-.492,1.434,1.434,0,0,0,.1-.875,1.489,1.489,0,0,0-.392-.789.8.8,0,0,0-.757-.232l-.746.136.434,2.377Z" transform="translate(1126.195 -340.441)" fill="#fff"/>
          <path id="Pfad_2117" data-name="Pfad 2117" d="M-1104.754,343.882l-.509-4.084,2.935-.366.1.84-2.048.256.089.718,1.143-.143.1.84-1.144.143.105.84,2.164-.27.105.846Z" transform="translate(1118.678 -339.049)" fill="#fff"/>
          <path id="Pfad_2118" data-name="Pfad 2118" d="M-1094.382,343.033l-.28-4.107,2-.136a1.377,1.377,0,0,1,1.1.3,1.383,1.383,0,0,1,.4.934,1.414,1.414,0,0,1-.151.724,1.1,1.1,0,0,1-.513.524l.876,1.532-1,.068-.843-1.4-.792.054.1,1.449Zm.735-2.354,1.12-.076q.463-.031.43-.519a.536.536,0,0,0-.132-.336.426.426,0,0,0-.364-.114l-1.121.076Z" transform="translate(1111.973 -338.639)" fill="#fff"/>
          <path id="Pfad_2119" data-name="Pfad 2119" d="M-1080.747,342.518l-.312-.8-1.546.013-.3.8-.976.008,1.588-4.129.859-.007,1.664,4.1Zm-.619-1.617-.36-.885a3.1,3.1,0,0,1-.126-.346,2.853,2.853,0,0,1-.12.348l-.345.891Z" transform="translate(1105.153 -338.401)" fill="#fff"/>
          <path id="Pfad_2120" data-name="Pfad 2120" d="M-1071.33,339.329l-.128,3.255-.893-.035.127-3.255-1.181-.046.033-.858,3.255.128-.034.858Z" transform="translate(1098.527 -338.39)" fill="#fff"/>
          <path id="Pfad_2121" data-name="Pfad 2121" d="M-1063.382,342.987l.377-4.1,2.945.271-.077.843-2.055-.189-.066.72,1.147.105-.077.843-1.148-.106-.078.843,2.172.2-.078.849Z" transform="translate(1092.188 -338.705)" fill="#fff"/>
          <path id="Pfad_2122" data-name="Pfad 2122" d="M-1049.361,344.576l.7-4.057,1.976.339a1.377,1.377,0,0,1,1,.546,1.382,1.382,0,0,1,.165,1,1.409,1.409,0,0,1-.317.667,1.1,1.1,0,0,1-.621.388l.491,1.695-.985-.169-.49-1.557-.782-.134-.245,1.431Zm1.269-2.115,1.107.19a.421.421,0,0,0,.54-.4.536.536,0,0,0-.049-.358.425.425,0,0,0-.327-.2l-1.107-.19Z" transform="translate(1083.319 -339.737)" fill="#fff"/>
          <path id="Pfad_2123" data-name="Pfad 2123" d="M-1038.314,346.649l.869-4.023.874.189-.869,4.023Z" transform="translate(1076.332 -341.069)" fill="#fff"/>
          <path id="Pfad_2124" data-name="Pfad 2124" d="M-1032.2,348.487a1.683,1.683,0,0,1-.919-.567,1.759,1.759,0,0,1-.38-1.012l.849-.091a1.29,1.29,0,0,0,.239.556.8.8,0,0,0,.445.3.815.815,0,0,0,.466.008.354.354,0,0,0,.238-.264.315.315,0,0,0-.057-.264.829.829,0,0,0-.206-.213q-.116-.082-.361-.236c-.108-.068-.188-.121-.242-.157s-.13-.091-.228-.165a1.594,1.594,0,0,1-.218-.19c-.047-.053-.1-.121-.165-.207a.743.743,0,0,1-.127-.248,1.281,1.281,0,0,1-.04-.284,1.139,1.139,0,0,1,.038-.333,1.051,1.051,0,0,1,.582-.706,1.555,1.555,0,0,1,1.1-.062,1.481,1.481,0,0,1,.828.511,1.361,1.361,0,0,1,.3.842l-.839.051a.686.686,0,0,0-.545-.6q-.484-.124-.568.2a.211.211,0,0,0,.012.143.489.489,0,0,0,.136.157c.07.058.128.1.174.136l.246.166c.125.08.221.144.288.19s.158.112.273.2a1.248,1.248,0,0,1,.26.255,2.713,2.713,0,0,1,.173.284.832.832,0,0,1,.095.352,1.379,1.379,0,0,1-.046.4,1.111,1.111,0,0,1-.651.786A1.729,1.729,0,0,1-1032.2,348.487Z" transform="translate(1073.289 -342.117)" fill="#fff"/>
          <path id="Pfad_2125" data-name="Pfad 2125" d="M-1021.634,351.117l-.39-2.087-1.041.692-.272.852-.851-.272,1.251-3.921.852.272-.592,1.854,2.059-1.386,1.025.327-1.624,1.049.581,2.938Z" transform="translate(1067.397 -343.444)" fill="#fff"/>
        </g>
        <g id="Gruppe_1907" data-name="Gruppe 1907" transform="translate(112.456 18.8)">
          <path id="Pfad_2126" data-name="Pfad 2126" d="M-949.175,394.279l1.156-1.229-1.19-1.12-1.156,1.229-.651-.613,2.821-3,.651.612-1.08,1.147,1.19,1.12,1.08-1.147.655.616-2.821,3Z" transform="translate(951.016 -389.549)" fill="#fff"/>
          <path id="Pfad_2127" data-name="Pfad 2127" d="M-942.608,400.846l2.948-2.872.623.641-2.948,2.872Z" transform="translate(945.698 -394.878)" fill="#fff"/>
          <path id="Pfad_2128" data-name="Pfad 2128" d="M-937.173,406.841a1.8,1.8,0,0,1-.412-.728,1.483,1.483,0,0,1-.021-.749,2.326,2.326,0,0,1,.289-.69,2.762,2.762,0,0,1,.513-.607,2.566,2.566,0,0,1,.636-.422,2.452,2.452,0,0,1,.723-.211,1.588,1.588,0,0,1,.757.091,1.687,1.687,0,0,1,.68.471,1.494,1.494,0,0,1,.411.836,2.4,2.4,0,0,1-.1.921l-.85-.287a.91.91,0,0,0-.1-.9.722.722,0,0,0-.509-.254,1.057,1.057,0,0,0-.547.108,2.214,2.214,0,0,0-.482.335,1.72,1.72,0,0,0-.524.767.726.726,0,0,0,.172.742.649.649,0,0,0,.417.218.494.494,0,0,0,.41-.115l.022-.019-.448-.5.634-.57,1.061,1.181-.481.433a1.635,1.635,0,0,1-1.186.484A1.5,1.5,0,0,1-937.173,406.841Z" transform="translate(942.558 -398.323)" fill="#fff"/>
          <path id="Pfad_2129" data-name="Pfad 2129" d="M-930.74,414.568l1.319-1.053-1.02-1.277-1.319,1.053-.557-.7,3.216-2.569.557.7-1.231.983,1.02,1.277,1.231-.984.562.7-3.216,2.568Z" transform="translate(939.188 -402.5)" fill="#fff"/>
          <path id="Pfad_2130" data-name="Pfad 2130" d="M-922.792,425.41l3.414-2.3,1.12,1.663a1.378,1.378,0,0,1,.292,1.1,1.381,1.381,0,0,1-.61.81,1.4,1.4,0,0,1-.7.232,1.1,1.1,0,0,1-.71-.181l-.887,1.525-.558-.829.788-1.43-.444-.658-1.2.811Zm2.406-.542.627.932a.422.422,0,0,0,.664.113.539.539,0,0,0,.224-.282.425.425,0,0,0-.084-.372l-.627-.932Z" transform="translate(933.164 -410.778)" fill="#fff"/>
          <path id="Pfad_2131" data-name="Pfad 2131" d="M-916.63,435.028l3.508-2.152.468.762-3.508,2.152Z" transform="translate(929.266 -416.954)" fill="#fff"/>
          <path id="Pfad_2132" data-name="Pfad 2132" d="M-912.8,441.211a1.683,1.683,0,0,1-.225-1.057,1.757,1.757,0,0,1,.469-.974l.653.551a1.293,1.293,0,0,0-.237.557.8.8,0,0,0,.091.529.811.811,0,0,0,.316.341.353.353,0,0,0,.355-.01.315.315,0,0,0,.151-.223.823.823,0,0,0,.012-.3q-.021-.14-.079-.424c-.025-.125-.044-.22-.054-.283s-.024-.157-.038-.279a1.55,1.55,0,0,1-.014-.289q.008-.105.035-.262a.738.738,0,0,1,.092-.263,1.281,1.281,0,0,1,.177-.225,1.122,1.122,0,0,1,.267-.2,1.052,1.052,0,0,1,.913-.067,1.553,1.553,0,0,1,.807.754,1.486,1.486,0,0,1,.2.951,1.364,1.364,0,0,1-.4.8l-.617-.571a.686.686,0,0,0,.054-.806q-.245-.436-.537-.272a.21.21,0,0,0-.095.107.493.493,0,0,0-.019.206c.006.091.014.164.022.22s.025.153.049.293.049.259.062.339.028.192.044.336a1.236,1.236,0,0,1-.005.363,2.642,2.642,0,0,1-.086.321.816.816,0,0,1-.189.312,1.354,1.354,0,0,1-.322.245,1.111,1.111,0,0,1-1.018.072A1.73,1.73,0,0,1-912.8,441.211Z" transform="translate(926.996 -420.36)" fill="#fff"/>
          <path id="Pfad_2133" data-name="Pfad 2133" d="M-908.191,450.671l1.239-1.724-1.22-.275-.8.392-.392-.8,3.7-1.806.392.8-1.749.854,2.425.53.472.967-1.882-.449-1.722,2.45Z" transform="translate(924.672 -425.544)" fill="#fff"/>
        </g>
      </g>
      <g id="Gruppe_1917" data-name="Gruppe 1917" transform="translate(347.875 525.989)">
        <g id="Gruppe_1911" data-name="Gruppe 1911" transform="translate(26.717 13.362)">
          <g id="Gruppe_1909" data-name="Gruppe 1909" transform="translate(4.083 3.783)">
            <ellipse id="Ellipse_93" data-name="Ellipse 93" cx="24.13" cy="24.13" rx="24.13" ry="24.13" transform="translate(0 1.389) rotate(-1.649)" fill="#fff"/>
          </g>
          <g id="Gruppe_1910" data-name="Gruppe 1910" transform="translate(0 0)">
            <ellipse id="Ellipse_94" data-name="Ellipse 94" cx="24.13" cy="24.13" rx="24.13" ry="24.13" transform="matrix(0.983, -0.182, 0.182, 0.983, 0, 8.798)" fill="#e7f0f7"/>
          </g>
        </g>
        <g id="Gruppe_1912" data-name="Gruppe 1912" transform="translate(0 19.017) rotate(-58)">
          <path id="Pfad_2134" data-name="Pfad 2134" d="M22.387,57a30.372,30.372,0,0,0-.538-3.724c-.549-2.835-1.085-5.674-1.63-8.511L17.1,28.562c-1.56-8.113-4.364-22.7-5.424-28.217a.426.426,0,0,0-.838,0L4.285,34.456,1.456,49.175C.432,54.5-1.749,60.427,2.628,65.4a11.62,11.62,0,0,0,7.77,4.072q.43.033.862.032a11.016,11.016,0,0,0,8.6-4.163,12.1,12.1,0,0,0,2.185-4.288A11.962,11.962,0,0,0,22.387,57Z" fill="#494d56"/>
          <path id="Pfad_2135" data-name="Pfad 2135" d="M0,69.495l.048,0a11.017,11.017,0,0,0,8.6-4.164,12.1,12.1,0,0,0,2.185-4.288A11.952,11.952,0,0,0,11.175,57a30.3,30.3,0,0,0-.538-3.724c-.549-2.835-1.085-5.674-1.63-8.51q-1.557-8.1-3.115-16.207C4.332,20.444,1.528,5.86.467.341A.414.414,0,0,0,0,0Z" transform="translate(11.212 0.005)" fill="#fff" opacity="0.1"/>
        </g>
        <g id="Gruppe_1916" data-name="Gruppe 1916" transform="translate(33.231 47.043) rotate(-58)">
          <g id="Gruppe_1913" data-name="Gruppe 1913" transform="translate(0 0)" opacity="0.1">
            <ellipse id="Ellipse_95" data-name="Ellipse 95" cx="12.79" cy="12.79" rx="12.79" ry="12.79" transform="translate(0 24.909) rotate(-76.85)" fill="#494d56"/>
          </g>
          <g id="Gruppe_1914" data-name="Gruppe 1914" transform="translate(2.961 1.65)">
            <ellipse id="Ellipse_96" data-name="Ellipse 96" cx="12.269" cy="12.269" rx="12.269" ry="12.269" transform="translate(0 23.894) rotate(-76.85)" fill="#fff"/>
          </g>
          <g id="Gruppe_1915" data-name="Gruppe 1915" transform="translate(1.734 1.065)">
            <ellipse id="Ellipse_97" data-name="Ellipse 97" cx="12.269" cy="12.269" rx="12.269" ry="12.269" transform="translate(0 5.797) rotate(-13.666)" fill="#e7f0f7"/>
          </g>
        </g>
      </g>
    </g>
  </g>
</svg>
