<svg xmlns="http://www.w3.org/2000/svg" width="399.121" height="298.005" viewBox="0 0 399.121 298.005">
  <g id="moderate_risk" data-name="moderate risk" transform="translate(-336.217 -496.294)">
    <g id="Gruppe_1908" data-name="Gruppe 1908" transform="translate(336.217 496.294)">
      <path id="Pfad_2104" data-name="Pfad 2104" d="M-1116.428,454.408l-42.43-72.79a198.816,198.816,0,0,0-63.208,58.407,198.817,198.817,0,0,0-32.6,79.646l83.035,14.285A114.641,114.641,0,0,1-1116.428,454.408Z" transform="translate(1257.277 -333.947)" fill="#fd0"/>
      <path id="Pfad_2105" data-name="Pfad 2105" d="M-1067.667,441.355a114.015,114.015,0,0,1,56.867,15.093l41.821-73.135a198.817,198.817,0,0,0-98.688-26.223,198.823,198.823,0,0,0-100.121,27.05l42.43,72.79A114.006,114.006,0,0,1-1067.667,441.355Z" transform="translate(1266.207 -336.468)" fill="#f99d0c"/>
      <path id="Pfad_2106" data-name="Pfad 2106" d="M-969.559,533.093l82.906-14.976a198.814,198.814,0,0,0-33.265-79.372,198.814,198.814,0,0,0-63.692-57.877L-1025.431,454A114.662,114.662,0,0,1-969.559,533.093Z" transform="translate(1280.838 -334.024)" fill="#f35c19"/>
      <g id="Gruppe_1905" data-name="Gruppe 1905" transform="translate(0 57.64)">
        <path id="Pfad_2107" data-name="Pfad 2107" d="M-1245.986,457.748l-11.048-5.522,1.2-2.4,8.729,4.363,2.65-5.3,2.32,1.159Z" transform="translate(1257.034 -384.673)" fill="#fff"/>
        <path id="Pfad_2108" data-name="Pfad 2108" d="M-1239.56,446.071a5.707,5.707,0,0,1-1.362,1.651,4.44,4.44,0,0,1-1.639.868,5.688,5.688,0,0,1-1.774.18,7.09,7.09,0,0,1-1.793-.326,9.156,9.156,0,0,1-1.695-.749,9.019,9.019,0,0,1-1.512-1.071,7.011,7.011,0,0,1-1.2-1.371,5.648,5.648,0,0,1-.757-1.617,4.442,4.442,0,0,1-.1-1.849,5.659,5.659,0,0,1,.718-2.016,5.5,5.5,0,0,1,1.727-1.922,4.352,4.352,0,0,1,2.149-.748,7.38,7.38,0,0,1,2.23.2,8.406,8.406,0,0,1,2.147.863,8.343,8.343,0,0,1,1.843,1.4,7.291,7.291,0,0,1,1.317,1.811,4.344,4.344,0,0,1,.46,2.228A5.494,5.494,0,0,1-1239.56,446.071Zm-2.256-1.279a2.132,2.132,0,0,0,.222-1.661,3.364,3.364,0,0,0-.824-1.479,5.907,5.907,0,0,0-1.375-1.064,6.619,6.619,0,0,0-1.655-.676,3.112,3.112,0,0,0-1.668.047,2.2,2.2,0,0,0-1.314,1.082,2.2,2.2,0,0,0-.244,1.7,3.189,3.189,0,0,0,.828,1.474,6.443,6.443,0,0,0,1.4,1.056,6.028,6.028,0,0,0,1.22.529,4.828,4.828,0,0,0,1.269.213,2.357,2.357,0,0,0,1.216-.285A2.335,2.335,0,0,0-1241.817,444.792Z" transform="translate(1257.608 -385.886)" fill="#fff"/>
        <path id="Pfad_2109" data-name="Pfad 2109" d="M-1235.571,439.586l-11.782-4.556,1.517-2.317,6.211,2.53a1.817,1.817,0,0,1,.311.139,2.44,2.44,0,0,0,.255.126,2.9,2.9,0,0,0-.231-.2,2.075,2.075,0,0,1-.266-.237l-4.615-4.9,1.286-1.963,6.361,2.268c.1.04.224.09.364.154a2.706,2.706,0,0,1,.255.125,1.862,1.862,0,0,0-.144-.136c-.062-.054-.12-.106-.172-.154s-.1-.1-.156-.147l-4.823-4.678,1.517-2.318,8.872,9-1.393,2.125-6.689-2.315c-.1-.039-.314-.134-.634-.289a4.222,4.222,0,0,1,.5.455l4.848,5.16Z" transform="translate(1258.029 -387.3)" fill="#fff"/>
        <path id="Pfad_2110" data-name="Pfad 2110" d="M-1226.706,426.179l-9.7-7.643,3.723-4.727a4.133,4.133,0,0,1,2.865-1.842,4.139,4.139,0,0,1,2.877,1,4.225,4.225,0,0,1,1.305,1.792,3.289,3.289,0,0,1,.135,2.195l5.173,1.134-1.856,2.354-4.81-.935-1.474,1.871,3.424,2.7Zm-3.76-6.376,2.085-2.648a1.264,1.264,0,0,0-.288-2,1.619,1.619,0,0,0-1.012-.381,1.277,1.277,0,0,0-.986.581l-2.086,2.648Z" transform="translate(1259.154 -388.468)" fill="#fff"/>
        <path id="Pfad_2111" data-name="Pfad 2111" d="M-1219.714,417.068l-9.37-8.047,1.748-2.036,9.369,8.047Z" transform="translate(1259.907 -388.98)" fill="#fff"/>
        <path id="Pfad_2112" data-name="Pfad 2112" d="M-1213.682,410.729a5.049,5.049,0,0,1-2.812,1.615,5.282,5.282,0,0,1-3.212-.442l.974-2.372a3.872,3.872,0,0,0,1.81.165,2.414,2.414,0,0,0,1.427-.745,2.437,2.437,0,0,0,.686-1.219,1.066,1.066,0,0,0-.355-1,.947.947,0,0,0-.776-.226,2.492,2.492,0,0,0-.859.237q-.38.189-1.139.616c-.333.187-.587.325-.759.416s-.424.211-.76.365a4.744,4.744,0,0,1-.813.3c-.206.05-.467.1-.781.142a2.259,2.259,0,0,1-.838-.02,3.875,3.875,0,0,1-.8-.3,3.421,3.421,0,0,1-.826-.576,3.162,3.162,0,0,1-1.031-2.545,4.674,4.674,0,0,1,1.413-3,4.454,4.454,0,0,1,2.531-1.453,4.081,4.081,0,0,1,2.65.415l-1.064,2.286a2.056,2.056,0,0,0-2.351.586q-1.021,1.1-.283,1.783a.637.637,0,0,0,.394.174,1.5,1.5,0,0,0,.606-.136c.255-.1.458-.19.608-.267s.415-.213.791-.409q.589-.323.912-.489c.216-.112.524-.258.921-.434a3.714,3.714,0,0,1,1.043-.319,7.673,7.673,0,0,1,1-.05,2.442,2.442,0,0,1,1.064.255,4.054,4.054,0,0,1,.994.694,3.334,3.334,0,0,1,1.14,2.842A5.185,5.185,0,0,1-1213.682,410.729Z" transform="translate(1260.372 -389.634)" fill="#fff"/>
        <path id="Pfad_2113" data-name="Pfad 2113" d="M-1204.186,401.288l-6.063-1.956.336,3.738,1.859,1.934-1.934,1.859-8.559-8.907,1.934-1.858,4.047,4.211-.715-7.414,2.329-2.238.446,5.786,8.582,2.667Z" transform="translate(1260.99 -390.658)" fill="#fff"/>
      </g>
      <g id="Gruppe_1906" data-name="Gruppe 1906" transform="translate(127.112 0)">
        <path id="Pfad_2114" data-name="Pfad 2114" d="M-1126.924,357.827l-2.558.8-1.835-5.84c-.034-.113-.068-.238-.1-.376-.015.151-.029.28-.045.384l-.954,6.976-4.792-5.135c-.06-.066-.142-.178-.251-.328l.116.371,1.835,5.841-2.558.8-3.7-11.784,2.61-.819,4.631,5.148c.135.155.308.372.52.651q.018-.523.052-.83l.941-6.9,2.391-.751Z" transform="translate(1141.769 -337.603)" fill="#fff"/>
        <path id="Pfad_2115" data-name="Pfad 2115" d="M-1121.028,356.427a5.738,5.738,0,0,1-2.136.143,4.406,4.406,0,0,1-1.754-.6,5.659,5.659,0,0,1-1.349-1.167,7.011,7.011,0,0,1-.994-1.528,9.02,9.02,0,0,1-.62-1.746,9.042,9.042,0,0,1-.26-1.835,7.071,7.071,0,0,1,.173-1.814,5.629,5.629,0,0,1,.655-1.66,4.417,4.417,0,0,1,1.279-1.34,5.7,5.7,0,0,1,1.958-.863,5.489,5.489,0,0,1,2.583-.062,4.345,4.345,0,0,1,2.021,1.049,7.291,7.291,0,0,1,1.385,1.758,8.406,8.406,0,0,1,.847,2.154,8.437,8.437,0,0,1,.248,2.3,7.416,7.416,0,0,1-.414,2.2,4.345,4.345,0,0,1-1.3,1.864A5.5,5.5,0,0,1-1121.028,356.427Zm-.619-2.518a2.13,2.13,0,0,0,1.359-.978,3.381,3.381,0,0,0,.512-1.617,5.966,5.966,0,0,0-.17-1.73,6.614,6.614,0,0,0-.646-1.666,3.11,3.11,0,0,0-1.181-1.182,2.205,2.205,0,0,0-1.687-.213,2.2,2.2,0,0,0-1.4.989,3.194,3.194,0,0,0-.5,1.613,6.441,6.441,0,0,0,.192,1.742,5.976,5.976,0,0,0,.454,1.252,4.876,4.876,0,0,0,.715,1.07,2.377,2.377,0,0,0,1.042.689A2.34,2.34,0,0,0-1121.646,353.909Z" transform="translate(1143.169 -337.831)" fill="#fff"/>
        <path id="Pfad_2116" data-name="Pfad 2116" d="M-1117.147,342.587l4.477-.819a6.836,6.836,0,0,1,2.8.018,4.754,4.754,0,0,1,2.121,1.048,6.289,6.289,0,0,1,1.377,1.748,7.435,7.435,0,0,1,.748,2.177,7.55,7.55,0,0,1,.118,1.727,6.266,6.266,0,0,1-.344,1.749,5.427,5.427,0,0,1-.871,1.612,5.308,5.308,0,0,1-1.541,1.286,6.963,6.963,0,0,1-2.257.8l-4.41.806Zm6.446,8.776a2.593,2.593,0,0,0,2.045-1.477,4.3,4.3,0,0,0,.291-2.627,4.469,4.469,0,0,0-1.177-2.369,2.386,2.386,0,0,0-2.272-.7l-2.239.409,1.3,7.133Z" transform="translate(1144.3 -338.057)" fill="#fff"/>
        <path id="Pfad_2117" data-name="Pfad 2117" d="M-1103.736,352.787l-1.527-12.256,8.808-1.1.313,2.521-6.145.768.268,2.154,3.431-.428.314,2.521-3.432.428.315,2.521,6.5-.809.317,2.539Z" transform="translate(1145.521 -338.283)" fill="#fff"/>
        <path id="Pfad_2118" data-name="Pfad 2118" d="M-1093.822,351.535l-.84-12.324,6-.408a4.131,4.131,0,0,1,3.288.89,4.148,4.148,0,0,1,1.19,2.8,4.242,4.242,0,0,1-.453,2.171,3.3,3.3,0,0,1-1.538,1.571l2.63,4.6-2.993.2-2.531-4.2-2.376.162.3,4.347Zm2.207-7.065,3.362-.229q1.39-.094,1.29-1.556a1.611,1.611,0,0,0-.395-1.007,1.28,1.28,0,0,0-1.093-.342l-3.363.229Z" transform="translate(1146.611 -338.349)" fill="#fff"/>
        <path id="Pfad_2119" data-name="Pfad 2119" d="M-1074.477,350.74l-.937-2.391-4.641.039-.9,2.408-2.928.024,4.764-12.392,2.576-.021,4.993,12.308Zm-1.858-4.853-1.081-2.654a9.342,9.342,0,0,1-.38-1.039,8.541,8.541,0,0,1-.361,1.044l-1.037,2.673Z" transform="translate(1147.719 -338.388)" fill="#fff"/>
        <path id="Pfad_2120" data-name="Pfad 2120" d="M-1067.181,341.208l-.383,9.767-2.68-.1.383-9.767-3.543-.139.1-2.574,9.767.383-.1,2.574Z" transform="translate(1148.795 -338.39)" fill="#fff"/>
        <path id="Pfad_2121" data-name="Pfad 2121" d="M-1063.382,351.187l1.133-12.3,8.836.813-.232,2.53-6.167-.567-.2,2.161,3.443.316-.232,2.531-3.444-.318-.234,2.531,6.518.6-.234,2.547Z" transform="translate(1149.826 -338.339)" fill="#fff"/>
        <path id="Pfad_2122" data-name="Pfad 2122" d="M-1049.361,352.693l2.088-12.174,5.93,1.017a4.132,4.132,0,0,1,2.986,1.64,4.146,4.146,0,0,1,.5,3,4.223,4.223,0,0,1-.952,2,3.306,3.306,0,0,1-1.865,1.166l1.472,5.086-2.957-.507-1.471-4.674-2.348-.4-.737,4.294Zm3.809-6.346,3.321.569a1.263,1.263,0,0,0,1.621-1.208,1.61,1.61,0,0,0-.148-1.073,1.275,1.275,0,0,0-.98-.589l-3.323-.569Z" transform="translate(1151.267 -338.171)" fill="#fff"/>
        <path id="Pfad_2123" data-name="Pfad 2123" d="M-1038.314,354.7l2.607-12.073,2.622.566-2.608,12.073Z" transform="translate(1152.402 -337.955)" fill="#fff"/>
        <path id="Pfad_2124" data-name="Pfad 2124" d="M-1029.6,356.9a5.051,5.051,0,0,1-2.759-1.7,5.277,5.277,0,0,1-1.141-3.036l2.549-.273a3.87,3.87,0,0,0,.718,1.67,2.4,2.4,0,0,0,1.335.9,2.445,2.445,0,0,0,1.4.023,1.062,1.062,0,0,0,.714-.792.945.945,0,0,0-.17-.791,2.491,2.491,0,0,0-.619-.641q-.347-.245-1.084-.707c-.324-.205-.566-.363-.726-.47s-.389-.273-.685-.5a4.789,4.789,0,0,1-.655-.569c-.141-.159-.307-.364-.5-.62a2.224,2.224,0,0,1-.382-.744,3.836,3.836,0,0,1-.119-.851,3.426,3.426,0,0,1,.113-1,3.156,3.156,0,0,1,1.747-2.12,4.667,4.667,0,0,1,3.309-.188,4.445,4.445,0,0,1,2.484,1.533,4.084,4.084,0,0,1,.9,2.527l-2.517.153a2.057,2.057,0,0,0-1.634-1.788q-1.454-.372-1.7.6a.634.634,0,0,0,.035.428,1.468,1.468,0,0,0,.408.471c.209.175.384.31.523.407s.385.262.738.5c.375.241.663.432.865.569s.474.337.819.6a3.746,3.746,0,0,1,.779.764,8.139,8.139,0,0,1,.518.852,2.489,2.489,0,0,1,.284,1.056,4.127,4.127,0,0,1-.138,1.2,3.334,3.334,0,0,1-1.955,2.358A5.189,5.189,0,0,1-1029.6,356.9Z" transform="translate(1152.896 -337.784)" fill="#fff"/>
        <path id="Pfad_2125" data-name="Pfad 2125" d="M-1016.523,360.595l-1.17-6.263-3.125,2.077-.816,2.556-2.554-.816,3.754-11.768,2.555.816-1.776,5.565,6.179-4.16,3.076.981-4.874,3.148,1.745,8.817Z" transform="translate(1153.854 -337.569)" fill="#fff"/>
      </g>
      <g id="Gruppe_1907" data-name="Gruppe 1907" transform="translate(337.47 56.417)">
        <path id="Pfad_2126" data-name="Pfad 2126" d="M-945.491,403.742l3.47-3.688-3.572-3.362-3.47,3.688-1.953-1.838,8.466-8.992,1.953,1.837-3.242,3.443,3.572,3.362,3.241-3.443,1.966,1.849-8.465,9Z" transform="translate(951.016 -389.549)" fill="#fff"/>
        <path id="Pfad_2127" data-name="Pfad 2127" d="M-942.608,406.593l8.847-8.619,1.87,1.922-8.847,8.618Z" transform="translate(951.88 -388.683)" fill="#fff"/>
        <path id="Pfad_2128" data-name="Pfad 2128" d="M-936.23,413.684a5.406,5.406,0,0,1-1.237-2.186,4.448,4.448,0,0,1-.062-2.246,6.984,6.984,0,0,1,.868-2.071,8.289,8.289,0,0,1,1.541-1.822,7.7,7.7,0,0,1,1.91-1.266,7.361,7.361,0,0,1,2.17-.634,4.768,4.768,0,0,1,2.273.272,5.063,5.063,0,0,1,2.041,1.415,4.484,4.484,0,0,1,1.234,2.51,7.189,7.189,0,0,1-.292,2.764l-2.552-.861a2.732,2.732,0,0,0-.307-2.691,2.167,2.167,0,0,0-1.526-.763,3.173,3.173,0,0,0-1.642.324,6.64,6.64,0,0,0-1.447,1,5.162,5.162,0,0,0-1.573,2.3,2.179,2.179,0,0,0,.517,2.227,1.946,1.946,0,0,0,1.252.654,1.483,1.483,0,0,0,1.231-.346l.066-.058-1.344-1.5,1.9-1.71,3.184,3.544-1.445,1.3a4.906,4.906,0,0,1-3.558,1.451A4.511,4.511,0,0,1-936.23,413.684Z" transform="translate(952.39 -388.123)" fill="#fff"/>
        <path id="Pfad_2129" data-name="Pfad 2129" d="M-927.584,423.661l3.957-3.161-3.06-3.833-3.957,3.16-1.673-2.1,9.651-7.709,1.673,2.1-3.7,2.951,3.06,3.833,3.7-2.952,1.685,2.11-9.651,7.707Z" transform="translate(952.938 -387.445)" fill="#fff"/>
        <path id="Pfad_2130" data-name="Pfad 2130" d="M-922.792,430.009l10.246-6.9,3.36,4.991a4.134,4.134,0,0,1,.876,3.293,4.144,4.144,0,0,1-1.83,2.432,4.206,4.206,0,0,1-2.106.695,3.289,3.289,0,0,1-2.131-.543l-2.661,4.578-1.675-2.489,2.364-4.292-1.331-1.975-3.615,2.434Zm7.22-1.628,1.882,2.8a1.265,1.265,0,0,0,1.994.339,1.617,1.617,0,0,0,.674-.847,1.277,1.277,0,0,0-.253-1.117l-1.881-2.8Z" transform="translate(953.917 -386.099)" fill="#fff"/>
        <path id="Pfad_2131" data-name="Pfad 2131" d="M-916.63,439.333l10.528-6.457,1.4,2.286-10.528,6.458Z" transform="translate(954.55 -385.096)" fill="#fff"/>
        <path id="Pfad_2132" data-name="Pfad 2132" d="M-912.327,447.114a5.051,5.051,0,0,1-.675-3.172,5.272,5.272,0,0,1,1.406-2.922l1.959,1.654a3.879,3.879,0,0,0-.711,1.672,2.412,2.412,0,0,0,.272,1.587,2.437,2.437,0,0,0,.95,1.025,1.059,1.059,0,0,0,1.065-.03.945.945,0,0,0,.454-.669,2.472,2.472,0,0,0,.036-.89q-.063-.42-.237-1.273c-.076-.376-.131-.659-.163-.85s-.072-.47-.115-.836a4.648,4.648,0,0,1-.041-.867q.023-.316.1-.787a2.218,2.218,0,0,1,.275-.79,3.847,3.847,0,0,1,.533-.674,3.373,3.373,0,0,1,.8-.61,3.158,3.158,0,0,1,2.739-.2,4.662,4.662,0,0,1,2.422,2.264,4.459,4.459,0,0,1,.61,2.854,4.092,4.092,0,0,1-1.206,2.4l-1.85-1.713a2.058,2.058,0,0,0,.162-2.418q-.735-1.308-1.611-.816a.629.629,0,0,0-.284.322,1.479,1.479,0,0,0-.057.619c.018.273.041.493.067.659s.075.46.147.879c.085.439.146.777.186,1.018s.085.577.131,1.009a3.71,3.71,0,0,1-.015,1.091,7.913,7.913,0,0,1-.258.964,2.451,2.451,0,0,1-.568.935,4.069,4.069,0,0,1-.965.734,3.335,3.335,0,0,1-3.055.215A5.191,5.191,0,0,1-912.327,447.114Z" transform="translate(954.919 -384.542)" fill="#fff"/>
        <path id="Pfad_2133" data-name="Pfad 2133" d="M-905.837,459.1l3.719-5.173-3.661-.824-2.411,1.178-1.177-2.411,11.1-5.419,1.176,2.411-5.248,2.562,7.277,1.591,1.417,2.9-5.646-1.348-5.167,7.352Z" transform="translate(955.297 -383.7)" fill="#fff"/>
      </g>
    </g>
    <g id="Gruppe_1917" data-name="Gruppe 1917" transform="translate(451.379 531.583)">
      <g id="Gruppe_1911" data-name="Gruppe 1911" transform="translate(0 93.92)">
        <g id="Gruppe_1909" data-name="Gruppe 1909" transform="translate(12.254 11.352)">
          <ellipse id="Ellipse_93" data-name="Ellipse 93" cx="72.411" cy="72.411" rx="72.411" ry="72.411" transform="translate(0 4.168) rotate(-1.649)" fill="#fff"/>
        </g>
        <g id="Gruppe_1910" data-name="Gruppe 1910" transform="translate(0 0)">
          <ellipse id="Ellipse_94" data-name="Ellipse 94" cx="72.411" cy="72.411" rx="72.411" ry="72.411" transform="matrix(0.983, -0.182, 0.182, 0.983, 0, 26.401)" fill="#e7f0f7"/>
        </g>
      </g>
      <g id="Gruppe_1912" data-name="Gruppe 1912" transform="translate(52.08 0)">
        <path id="Pfad_2134" data-name="Pfad 2134" d="M-1040.173,548.281a91.154,91.154,0,0,0-1.615-11.175c-1.647-8.509-3.256-17.027-4.892-25.539q-4.675-24.318-9.349-48.636c-4.68-24.346-13.094-68.113-16.277-84.676a1.28,1.28,0,0,0-2.513,0L-1094.5,480.618l-8.491,44.171c-3.071,15.978-9.616,33.766,3.519,48.679,6.031,6.847,14.22,11.533,23.318,12.22q1.29.1,2.586.1a33.058,33.058,0,0,0,25.794-12.493,36.309,36.309,0,0,0,6.556-12.867A35.9,35.9,0,0,0-1040.173,548.281Z" transform="translate(1107.355 -377.219)" fill="#494d56"/>
        <path id="Pfad_2135" data-name="Pfad 2135" d="M-1076.845,585.779c.049,0,.1.005.146.005a33.062,33.062,0,0,0,25.794-12.494,36.311,36.311,0,0,0,6.556-12.867,35.866,35.866,0,0,0,1.041-12.143,90.919,90.919,0,0,0-1.616-11.175c-1.647-8.509-3.257-17.026-4.893-25.538q-4.673-24.318-9.348-48.636c-4.681-24.347-13.093-68.114-16.277-84.677a1.241,1.241,0,0,0-1.4-1.013Z" transform="translate(1110.491 -377.218)" fill="#fff" opacity="0.1"/>
      </g>
      <g id="Gruppe_1916" data-name="Gruppe 1916" transform="translate(33.602 129.137)">
        <g id="Gruppe_1913" data-name="Gruppe 1913" transform="translate(0 0)" opacity="0.1">
          <ellipse id="Ellipse_95" data-name="Ellipse 95" cx="38.381" cy="38.381" rx="38.381" ry="38.381" transform="translate(0 74.749) rotate(-76.85)" fill="#494d56"/>
        </g>
        <g id="Gruppe_1914" data-name="Gruppe 1914" transform="translate(8.887 4.952)">
          <ellipse id="Ellipse_96" data-name="Ellipse 96" cx="36.818" cy="36.818" rx="36.818" ry="36.818" transform="translate(0 71.705) rotate(-76.85)" fill="#fff"/>
        </g>
        <g id="Gruppe_1915" data-name="Gruppe 1915" transform="translate(5.204 3.195)">
          <ellipse id="Ellipse_97" data-name="Ellipse 97" cx="36.818" cy="36.818" rx="36.818" ry="36.818" transform="translate(0 17.397) rotate(-13.666)" fill="#e7f0f7"/>
        </g>
      </g>
    </g>
  </g>
</svg>
