<svg xmlns="http://www.w3.org/2000/svg" xmlns:xlink="http://www.w3.org/1999/xlink" width="418" height="330" viewBox="0 0 418 330">
  <defs>
    <clipPath id="clip-path">
      <rect id="Rechteck_1142" data-name="Rechteck 1142" width="418" height="330" transform="translate(18218 -11058)" fill="none" stroke="#707070" stroke-width="1"/>
    </clipPath>
  </defs>
  <g id="moderate_risk" transform="translate(-18218 11058)" clip-path="url(#clip-path)">
    <g id="moderate_risk-2" data-name="moderate risk" transform="translate(17890.783 -11538.294)">
      <g id="Gruppe_1908" data-name="Gruppe 1908" transform="translate(336.217 496.294)">
        <path id="Pfad_2104" data-name="Pfad 2104" d="M-1116.123,454.569l-42.524-72.951a199.254,199.254,0,0,0-63.347,58.535,199.253,199.253,0,0,0-32.676,79.822l83.218,14.317A114.894,114.894,0,0,1-1116.123,454.569Z" transform="translate(1257.283 -333.842)" fill="#fd0"/>
        <path id="Pfad_2105" data-name="Pfad 2105" d="M-1067.446,441.54a114.267,114.267,0,0,1,56.992,15.126l41.913-73.3a199.255,199.255,0,0,0-98.905-26.281,199.261,199.261,0,0,0-100.342,27.11l42.524,72.951A114.257,114.257,0,0,1-1067.446,441.54Z" transform="translate(1266.423 -336.423)" fill="#f99d0c"/>
        <path id="Pfad_2106" data-name="Pfad 2106" d="M-969.436,533.428l83.088-15.009a199.251,199.251,0,0,0-33.339-79.546,199.252,199.252,0,0,0-63.832-58l-41.913,73.3A114.915,114.915,0,0,1-969.436,533.428Z" transform="translate(1281.401 -333.921)" fill="#f35c19"/>
        <g id="Gruppe_1905" data-name="Gruppe 1905" transform="translate(0 57.767)">
          <path id="Pfad_2107" data-name="Pfad 2107" d="M-1245.962,457.767l-11.072-5.534,1.2-2.4,8.748,4.372,2.656-5.314,2.325,1.162Z" transform="translate(1257.034 -384.532)" fill="#fff"/>
          <path id="Pfad_2108" data-name="Pfad 2108" d="M-1239.534,446.091a5.72,5.72,0,0,1-1.365,1.654,4.451,4.451,0,0,1-1.643.87,5.7,5.7,0,0,1-1.778.18,7.1,7.1,0,0,1-1.8-.327,9.175,9.175,0,0,1-1.7-.75,9.036,9.036,0,0,1-1.515-1.073,7.027,7.027,0,0,1-1.2-1.374,5.658,5.658,0,0,1-.759-1.62,4.451,4.451,0,0,1-.1-1.853,5.669,5.669,0,0,1,.719-2.02,5.512,5.512,0,0,1,1.731-1.926,4.361,4.361,0,0,1,2.154-.749,7.4,7.4,0,0,1,2.235.2,8.427,8.427,0,0,1,2.152.865,8.364,8.364,0,0,1,1.847,1.4,7.308,7.308,0,0,1,1.32,1.815,4.353,4.353,0,0,1,.461,2.232A5.506,5.506,0,0,1-1239.534,446.091Zm-2.261-1.282a2.138,2.138,0,0,0,.222-1.664,3.372,3.372,0,0,0-.826-1.482,5.92,5.92,0,0,0-1.378-1.066,6.634,6.634,0,0,0-1.659-.678,3.119,3.119,0,0,0-1.672.047,2.21,2.21,0,0,0-1.317,1.084,2.208,2.208,0,0,0-.244,1.7,3.194,3.194,0,0,0,.83,1.478,6.455,6.455,0,0,0,1.4,1.059,6.04,6.04,0,0,0,1.222.53,4.838,4.838,0,0,0,1.272.213,2.362,2.362,0,0,0,1.218-.285A2.34,2.34,0,0,0-1241.8,444.809Z" transform="translate(1257.622 -385.773)" fill="#fff"/>
          <path id="Pfad_2109" data-name="Pfad 2109" d="M-1235.545,439.622l-11.808-4.566,1.521-2.322,6.225,2.535a1.823,1.823,0,0,1,.312.139,2.439,2.439,0,0,0,.255.126,2.887,2.887,0,0,0-.232-.2,2.079,2.079,0,0,1-.266-.238l-4.625-4.912,1.289-1.967,6.375,2.273c.1.04.224.091.365.155a2.713,2.713,0,0,1,.255.125,1.856,1.856,0,0,0-.144-.136c-.062-.054-.12-.106-.172-.155s-.1-.1-.157-.147l-4.834-4.688,1.521-2.323,8.891,9.017-1.4,2.13-6.7-2.32c-.1-.039-.314-.135-.636-.289a4.243,4.243,0,0,1,.5.456l4.858,5.171Z" transform="translate(1258.053 -387.221)" fill="#fff"/>
          <path id="Pfad_2110" data-name="Pfad 2110" d="M-1226.684,426.211l-9.724-7.66,3.731-4.737a4.142,4.142,0,0,1,2.871-1.846,4.148,4.148,0,0,1,2.884,1,4.234,4.234,0,0,1,1.308,1.8,3.3,3.3,0,0,1,.135,2.2l5.185,1.136-1.86,2.36-4.821-.937-1.478,1.876,3.432,2.7Zm-3.769-6.39,2.09-2.654a1.267,1.267,0,0,0-.289-2.006,1.623,1.623,0,0,0-1.015-.382,1.279,1.279,0,0,0-.988.582l-2.091,2.654Z" transform="translate(1259.204 -388.417)" fill="#fff"/>
          <path id="Pfad_2111" data-name="Pfad 2111" d="M-1219.693,417.09l-9.391-8.065,1.752-2.04,9.39,8.065Z" transform="translate(1259.975 -388.94)" fill="#fff"/>
          <path id="Pfad_2112" data-name="Pfad 2112" d="M-1213.658,410.751a5.06,5.06,0,0,1-2.818,1.618,5.294,5.294,0,0,1-3.219-.443l.976-2.377a3.881,3.881,0,0,0,1.814.166,2.419,2.419,0,0,0,1.43-.747,2.442,2.442,0,0,0,.688-1.221,1.068,1.068,0,0,0-.356-1.007.949.949,0,0,0-.778-.227,2.5,2.5,0,0,0-.861.238q-.381.189-1.142.618c-.334.188-.588.326-.76.417s-.425.211-.761.366a4.754,4.754,0,0,1-.815.3c-.207.05-.468.1-.783.143a2.264,2.264,0,0,1-.84-.02,3.884,3.884,0,0,1-.806-.3,3.424,3.424,0,0,1-.828-.577,3.169,3.169,0,0,1-1.033-2.551,4.684,4.684,0,0,1,1.416-3.006,4.464,4.464,0,0,1,2.536-1.457,4.091,4.091,0,0,1,2.656.416l-1.067,2.291a2.06,2.06,0,0,0-2.356.587q-1.023,1.1-.284,1.787a.639.639,0,0,0,.395.175,1.5,1.5,0,0,0,.608-.136c.255-.1.459-.19.609-.267s.416-.213.793-.41c.393-.216.7-.379.914-.49s.525-.259.923-.435a3.721,3.721,0,0,1,1.046-.319,7.691,7.691,0,0,1,1-.05,2.448,2.448,0,0,1,1.067.255,4.064,4.064,0,0,1,1,.7,3.341,3.341,0,0,1,1.143,2.848A5.2,5.2,0,0,1-1213.658,410.751Z" transform="translate(1260.451 -389.61)" fill="#fff"/>
          <path id="Pfad_2113" data-name="Pfad 2113" d="M-1204.154,401.311l-6.076-1.961.337,3.747,1.864,1.939-1.939,1.863-8.578-8.927,1.939-1.862,4.056,4.221-.717-7.43,2.335-2.242.447,5.8,8.6,2.672Z" transform="translate(1261.083 -390.658)" fill="#fff"/>
        </g>
        <g id="Gruppe_1906" data-name="Gruppe 1906" transform="translate(127.392 0)">
          <path id="Pfad_2114" data-name="Pfad 2114" d="M-1126.891,357.853l-2.564.806-1.839-5.853c-.034-.113-.068-.239-.1-.377-.015.151-.029.281-.046.385l-.956,6.992-4.8-5.146c-.06-.066-.142-.178-.252-.328l.116.371,1.839,5.854-2.564.806-3.71-11.81,2.616-.821,4.642,5.159c.135.156.308.372.521.652q.018-.524.052-.832l.943-6.913,2.4-.753Z" transform="translate(1141.769 -337.585)" fill="#fff"/>
          <path id="Pfad_2115" data-name="Pfad 2115" d="M-1121.012,356.454a5.75,5.75,0,0,1-2.141.144,4.416,4.416,0,0,1-1.758-.6,5.67,5.67,0,0,1-1.352-1.169,7.02,7.02,0,0,1-1-1.532,9.04,9.04,0,0,1-.621-1.75,9.064,9.064,0,0,1-.261-1.839,7.08,7.08,0,0,1,.174-1.818,5.638,5.638,0,0,1,.656-1.663,4.426,4.426,0,0,1,1.282-1.343,5.709,5.709,0,0,1,1.963-.865,5.5,5.5,0,0,1,2.588-.062,4.355,4.355,0,0,1,2.025,1.051,7.307,7.307,0,0,1,1.388,1.762,8.422,8.422,0,0,1,.849,2.158,8.455,8.455,0,0,1,.249,2.307,7.436,7.436,0,0,1-.414,2.2,4.356,4.356,0,0,1-1.307,1.868A5.507,5.507,0,0,1-1121.012,356.454Zm-.62-2.523a2.135,2.135,0,0,0,1.361-.98,3.389,3.389,0,0,0,.513-1.62,5.983,5.983,0,0,0-.17-1.734,6.629,6.629,0,0,0-.648-1.67,3.116,3.116,0,0,0-1.183-1.185,2.21,2.21,0,0,0-1.691-.213,2.207,2.207,0,0,0-1.4.991,3.2,3.2,0,0,0-.505,1.617,6.46,6.46,0,0,0,.192,1.746,5.986,5.986,0,0,0,.455,1.254,4.885,4.885,0,0,0,.717,1.072,2.383,2.383,0,0,0,1.045.691A2.345,2.345,0,0,0-1121.632,353.931Z" transform="translate(1143.203 -337.817)" fill="#fff"/>
          <path id="Pfad_2116" data-name="Pfad 2116" d="M-1117.147,342.589l4.487-.821a6.852,6.852,0,0,1,2.807.018,4.764,4.764,0,0,1,2.125,1.05,6.3,6.3,0,0,1,1.38,1.752,7.45,7.45,0,0,1,.749,2.182,7.563,7.563,0,0,1,.118,1.731,6.277,6.277,0,0,1-.345,1.753,5.439,5.439,0,0,1-.873,1.616,5.321,5.321,0,0,1-1.544,1.289,6.98,6.98,0,0,1-2.262.8l-4.42.808Zm6.46,8.8a2.6,2.6,0,0,0,2.049-1.48,4.313,4.313,0,0,0,.292-2.633,4.479,4.479,0,0,0-1.179-2.374,2.392,2.392,0,0,0-2.277-.7l-2.243.41,1.306,7.148Z" transform="translate(1144.36 -338.049)" fill="#fff"/>
          <path id="Pfad_2117" data-name="Pfad 2117" d="M-1103.732,352.816l-1.531-12.283,8.827-1.1.314,2.527-6.158.769.269,2.159,3.438-.429.315,2.527-3.439.429.316,2.526,6.51-.811.317,2.544Z" transform="translate(1145.61 -338.28)" fill="#fff"/>
          <path id="Pfad_2118" data-name="Pfad 2118" d="M-1093.82,351.564l-.842-12.351,6.017-.409a4.14,4.14,0,0,1,3.3.892,4.157,4.157,0,0,1,1.193,2.808,4.251,4.251,0,0,1-.454,2.176,3.308,3.308,0,0,1-1.542,1.575l2.636,4.607-3,.2-2.536-4.205-2.382.163.3,4.357Zm2.212-7.081,3.37-.23q1.393-.095,1.293-1.559a1.615,1.615,0,0,0-.4-1.009,1.283,1.283,0,0,0-1.1-.343l-3.371.23Z" transform="translate(1146.725 -338.349)" fill="#fff"/>
          <path id="Pfad_2119" data-name="Pfad 2119" d="M-1074.456,350.768l-.939-2.4-4.651.039-.9,2.414-2.934.024,4.775-12.419,2.582-.021,5,12.335Zm-1.862-4.864-1.083-2.66a9.373,9.373,0,0,1-.38-1.041,8.571,8.571,0,0,1-.362,1.047l-1.039,2.679Z" transform="translate(1147.86 -338.388)" fill="#fff"/>
          <path id="Pfad_2120" data-name="Pfad 2120" d="M-1067.167,341.214l-.383,9.789-2.686-.105.383-9.789-3.551-.139.1-2.58,9.789.383-.1,2.58Z" transform="translate(1148.961 -338.39)" fill="#fff"/>
          <path id="Pfad_2121" data-name="Pfad 2121" d="M-1063.382,351.214l1.135-12.326,8.856.815-.233,2.535-6.18-.568-.2,2.166,3.45.317-.232,2.536-3.452-.318-.234,2.536,6.533.6-.234,2.553Z" transform="translate(1150.016 -338.338)" fill="#fff"/>
          <path id="Pfad_2122" data-name="Pfad 2122" d="M-1049.361,352.719l2.092-12.2,5.943,1.019a4.141,4.141,0,0,1,2.993,1.643,4.156,4.156,0,0,1,.5,3.011,4.233,4.233,0,0,1-.954,2.007,3.314,3.314,0,0,1-1.869,1.168l1.476,5.1-2.963-.508-1.474-4.684-2.353-.4-.738,4.3Zm3.818-6.36,3.329.57a1.265,1.265,0,0,0,1.625-1.21,1.613,1.613,0,0,0-.148-1.075,1.278,1.278,0,0,0-.983-.59l-3.33-.57Z" transform="translate(1151.491 -338.166)" fill="#fff"/>
          <path id="Pfad_2123" data-name="Pfad 2123" d="M-1038.314,354.726l2.613-12.1,2.628.567-2.614,12.1Z" transform="translate(1152.653 -337.944)" fill="#fff"/>
          <path id="Pfad_2124" data-name="Pfad 2124" d="M-1029.594,356.927a5.063,5.063,0,0,1-2.765-1.707,5.288,5.288,0,0,1-1.144-3.043l2.554-.274a3.879,3.879,0,0,0,.719,1.673,2.411,2.411,0,0,0,1.339.9,2.45,2.45,0,0,0,1.4.023,1.065,1.065,0,0,0,.715-.794.947.947,0,0,0-.17-.792,2.5,2.5,0,0,0-.62-.642q-.348-.245-1.086-.708c-.325-.206-.567-.364-.727-.471s-.39-.274-.686-.5a4.8,4.8,0,0,1-.656-.57c-.141-.159-.307-.365-.5-.621a2.227,2.227,0,0,1-.382-.746,3.844,3.844,0,0,1-.119-.853,3.428,3.428,0,0,1,.113-1,3.163,3.163,0,0,1,1.75-2.124,4.678,4.678,0,0,1,3.317-.188,4.456,4.456,0,0,1,2.49,1.536,4.093,4.093,0,0,1,.9,2.532l-2.523.154a2.062,2.062,0,0,0-1.638-1.792q-1.457-.373-1.708.6a.636.636,0,0,0,.035.429,1.471,1.471,0,0,0,.409.472c.21.176.385.311.524.408s.386.263.739.5c.376.242.664.433.866.57s.475.338.821.6a3.751,3.751,0,0,1,.78.766,8.138,8.138,0,0,1,.52.854,2.494,2.494,0,0,1,.285,1.059,4.137,4.137,0,0,1-.138,1.207,3.341,3.341,0,0,1-1.96,2.363A5.2,5.2,0,0,1-1029.594,356.927Z" transform="translate(1153.159 -337.77)" fill="#fff"/>
          <path id="Pfad_2125" data-name="Pfad 2125" d="M-1016.506,360.626l-1.173-6.276-3.132,2.081-.818,2.562-2.56-.818,3.762-11.794,2.561.818-1.78,5.577,6.193-4.169,3.083.984-4.885,3.155,1.748,8.836Z" transform="translate(1154.139 -337.549)" fill="#fff"/>
        </g>
        <g id="Gruppe_1907" data-name="Gruppe 1907" transform="translate(338.213 56.541)">
          <path id="Pfad_2126" data-name="Pfad 2126" d="M-945.479,403.773l3.478-3.7-3.58-3.37-3.478,3.7-1.957-1.842,8.485-9.012,1.957,1.841-3.249,3.451,3.58,3.37,3.248-3.45,1.971,1.853-8.484,9.015Z" transform="translate(951.016 -389.549)" fill="#fff"/>
          <path id="Pfad_2127" data-name="Pfad 2127" d="M-942.608,406.612l8.867-8.638,1.874,1.926-8.866,8.637Z" transform="translate(951.901 -388.663)" fill="#fff"/>
          <path id="Pfad_2128" data-name="Pfad 2128" d="M-936.227,413.706a5.417,5.417,0,0,1-1.24-2.191,4.458,4.458,0,0,1-.062-2.251,7,7,0,0,1,.87-2.076,8.307,8.307,0,0,1,1.544-1.826,7.718,7.718,0,0,1,1.914-1.269,7.377,7.377,0,0,1,2.175-.635,4.778,4.778,0,0,1,2.278.273,5.075,5.075,0,0,1,2.046,1.418,4.494,4.494,0,0,1,1.237,2.515,7.205,7.205,0,0,1-.293,2.77l-2.557-.863a2.738,2.738,0,0,0-.307-2.7,2.172,2.172,0,0,0-1.53-.765,3.18,3.18,0,0,0-1.646.325,6.655,6.655,0,0,0-1.45,1.007,5.174,5.174,0,0,0-1.576,2.307,2.184,2.184,0,0,0,.518,2.231,1.95,1.95,0,0,0,1.254.655,1.486,1.486,0,0,0,1.233-.347l.066-.059-1.347-1.5,1.908-1.714,3.191,3.552-1.448,1.3a4.916,4.916,0,0,1-3.566,1.454A4.521,4.521,0,0,1-936.227,413.706Z" transform="translate(952.423 -388.09)" fill="#fff"/>
          <path id="Pfad_2129" data-name="Pfad 2129" d="M-927.574,423.691l3.966-3.168-3.067-3.842-3.966,3.167-1.676-2.1,9.673-7.726,1.677,2.1-3.7,2.958,3.067,3.842,3.7-2.959,1.689,2.114-9.673,7.724Z" transform="translate(952.983 -387.395)" fill="#fff"/>
          <path id="Pfad_2130" data-name="Pfad 2130" d="M-922.792,430.024l10.268-6.913,3.367,5a4.143,4.143,0,0,1,.878,3.3,4.154,4.154,0,0,1-1.834,2.437,4.215,4.215,0,0,1-2.111.7,3.3,3.3,0,0,1-2.135-.544l-2.667,4.588L-918.7,436.1l2.37-4.3-1.334-1.979-3.623,2.439Zm7.236-1.631,1.887,2.8a1.268,1.268,0,0,0,2,.339,1.621,1.621,0,0,0,.675-.849,1.279,1.279,0,0,0-.253-1.12l-1.885-2.8Z" transform="translate(953.985 -386.018)" fill="#fff"/>
          <path id="Pfad_2131" data-name="Pfad 2131" d="M-916.63,439.347l10.551-6.471,1.406,2.291-10.551,6.472Z" transform="translate(954.634 -384.991)" fill="#fff"/>
          <path id="Pfad_2132" data-name="Pfad 2132" d="M-912.325,447.134a5.062,5.062,0,0,1-.676-3.179,5.284,5.284,0,0,1,1.409-2.929l1.963,1.658a3.887,3.887,0,0,0-.713,1.675,2.416,2.416,0,0,0,.273,1.59,2.442,2.442,0,0,0,.952,1.027,1.061,1.061,0,0,0,1.068-.03.947.947,0,0,0,.455-.671,2.479,2.479,0,0,0,.036-.892q-.063-.421-.238-1.275c-.076-.377-.132-.661-.163-.852s-.072-.471-.115-.838a4.659,4.659,0,0,1-.041-.869q.023-.317.105-.789a2.222,2.222,0,0,1,.275-.791,3.854,3.854,0,0,1,.534-.675,3.38,3.38,0,0,1,.8-.611,3.165,3.165,0,0,1,2.745-.2,4.672,4.672,0,0,1,2.427,2.269,4.469,4.469,0,0,1,.611,2.86,4.1,4.1,0,0,1-1.209,2.4l-1.854-1.716a2.063,2.063,0,0,0,.162-2.424q-.736-1.311-1.615-.818a.63.63,0,0,0-.285.323,1.482,1.482,0,0,0-.057.62c.018.274.041.494.068.661s.075.461.147.881c.085.44.146.779.187,1.02s.085.578.132,1.011a3.718,3.718,0,0,1-.015,1.093,7.932,7.932,0,0,1-.259.966,2.457,2.457,0,0,1-.569.937,4.079,4.079,0,0,1-.967.736,3.342,3.342,0,0,1-3.062.216A5.2,5.2,0,0,1-912.325,447.134Z" transform="translate(955.011 -384.424)" fill="#fff"/>
          <path id="Pfad_2133" data-name="Pfad 2133" d="M-905.829,459.133l3.727-5.184-3.669-.826-2.416,1.18-1.179-2.416,11.124-5.431,1.178,2.416-5.26,2.567,7.293,1.595,1.42,2.909-5.659-1.351-5.178,7.368Z" transform="translate(955.398 -383.562)" fill="#fff"/>
        </g>
      </g>
      <g id="Gruppe_1917" data-name="Gruppe 1917" transform="translate(451.633 531.661)">
        <g id="Gruppe_1911" data-name="Gruppe 1911" transform="translate(0 94.127)">
          <g id="Gruppe_1909" data-name="Gruppe 1909" transform="translate(12.281 11.377)">
            <ellipse id="Ellipse_93" data-name="Ellipse 93" cx="72.57" cy="72.57" rx="72.57" ry="72.57" transform="translate(0 4.177) rotate(-1.649)" fill="#fff"/>
          </g>
          <g id="Gruppe_1910" data-name="Gruppe 1910" transform="translate(0 0)">
            <ellipse id="Ellipse_94" data-name="Ellipse 94" cx="72.57" cy="72.57" rx="72.57" ry="72.57" transform="matrix(0.983, -0.182, 0.182, 0.983, 0, 26.459)" fill="#e7f0f7"/>
          </g>
        </g>
        <g id="Gruppe_1912" data-name="Gruppe 1912" transform="translate(52.195 0)">
          <path id="Pfad_2134" data-name="Pfad 2134" d="M-1040.025,548.658a91.339,91.339,0,0,0-1.619-11.2c-1.651-8.528-3.264-17.064-4.9-25.6q-4.685-24.371-9.37-48.743c-4.691-24.4-13.123-68.263-16.313-84.863a1.282,1.282,0,0,0-2.519,0l-19.719,102.583-8.51,44.268c-3.078,16.013-9.637,33.84,3.527,48.786,6.045,6.862,14.252,11.558,23.37,12.247q1.293.1,2.592.1a33.131,33.131,0,0,0,25.851-12.521,36.388,36.388,0,0,0,6.57-12.9A35.976,35.976,0,0,0-1040.025,548.658Z" transform="translate(1107.356 -377.219)" fill="#494d56"/>
          <path id="Pfad_2135" data-name="Pfad 2135" d="M-1076.845,586.238c.049,0,.1.005.146.005a33.135,33.135,0,0,0,25.851-12.522,36.391,36.391,0,0,0,6.57-12.9,35.946,35.946,0,0,0,1.043-12.169,91.127,91.127,0,0,0-1.619-11.2c-1.651-8.528-3.264-17.063-4.9-25.594q-4.683-24.372-9.369-48.743c-4.691-24.4-13.122-68.264-16.313-84.864a1.244,1.244,0,0,0-1.406-1.016Z" transform="translate(1110.566 -377.218)" fill="#fff" opacity="0.1"/>
        </g>
        <g id="Gruppe_1916" data-name="Gruppe 1916" transform="translate(33.676 129.422)">
          <g id="Gruppe_1913" data-name="Gruppe 1913" transform="translate(0 0)" opacity="0.1">
            <ellipse id="Ellipse_95" data-name="Ellipse 95" cx="38.466" cy="38.465" rx="38.466" ry="38.465" transform="translate(0 74.914) rotate(-76.85)" fill="#494d56"/>
          </g>
          <g id="Gruppe_1914" data-name="Gruppe 1914" transform="translate(8.907 4.963)">
            <ellipse id="Ellipse_96" data-name="Ellipse 96" cx="36.899" cy="36.899" rx="36.899" ry="36.899" transform="translate(0 71.863) rotate(-76.85)" fill="#fff"/>
          </g>
          <g id="Gruppe_1915" data-name="Gruppe 1915" transform="translate(5.216 3.203)">
            <ellipse id="Ellipse_97" data-name="Ellipse 97" cx="36.899" cy="36.899" rx="36.899" ry="36.899" transform="translate(0 17.436) rotate(-13.666)" fill="#e7f0f7"/>
          </g>
        </g>
      </g>
    </g>
  </g>
</svg>
